<?xml version="1.0" encoding="iso-8859-1"?>
<!-- Generator: Adobe Illustrator 18.0.0, SVG Export Plug-In . SVG Version: 6.00 Build 0)  -->
<!DOCTYPE svg PUBLIC "-//W3C//DTD SVG 1.1//EN" "http://www.w3.org/Graphics/SVG/1.1/DTD/svg11.dtd">
<svg version="1.1" id="Capa_1" xmlns="http://www.w3.org/2000/svg" xmlns:xlink="http://www.w3.org/1999/xlink" x="0px" y="0px"
	 viewBox="0 0 228.831 228.831" style="enable-background:new 0 0 228.831 228.831;" xml:space="preserve">
<g>
	<g>
		<path style="fill:#9EAEB5;" d="M182.487,184.125c-0.131,0-0.248,0.008-0.35,0.023c-0.143,0.02-0.258,0.055-0.348,0.1l0.348-0.06
			L182.487,184.125z"/>
	</g>
	<g>
		<g>
			<g>
				<circle style="fill-rule:evenodd;clip-rule:evenodd;fill:#E6E6E6;" cx="163.983" cy="89.564" r="0.587"/>
				<circle style="fill-rule:evenodd;clip-rule:evenodd;fill:#E6E6E6;" cx="165.821" cy="96.75" r="0.587"/>
				<circle style="fill-rule:evenodd;clip-rule:evenodd;fill:#E6E6E6;" cx="167.66" cy="103.937" r="0.588"/>
				<circle style="fill-rule:evenodd;clip-rule:evenodd;fill:#E6E6E6;" cx="169.498" cy="111.124" r="0.588"/>
			</g>
			<path style="fill-rule:evenodd;clip-rule:evenodd;fill:#1A1A1A;" d="M144.814,86.14c-15.369-2.873-28.072-13.577-39.731-28.99
				l-3.487,2.756c7.503,13.262,19.064,33.85,43.396,38.061C150.103,98.849,143.032,90.456,144.814,86.14z"/>
			<path style="fill-rule:evenodd;clip-rule:evenodd;fill:#1A1A1A;" d="M170.81,87.125c12.592,0.471,34.797,8.705,50.119,20.481
				l2.635-3.581c-10.746-10.802-29.219-22.412-38.848-25.399C179.763,77.089,171.384,82.492,170.81,87.125z"/>
			<g>
				<path style="fill-rule:evenodd;clip-rule:evenodd;fill:#323232;" d="M205.722,167.069c-17.58,6.769-31.049-11.151-32.17-35.244
					c5.189,0,10.379,0,15.568,0c-1.082,24.093,4.42,32.553,21.443,27.016C207.579,158.841,208.708,167.069,205.722,167.069z"/>
				<path style="fill-rule:evenodd;clip-rule:evenodd;fill:#323232;" d="M162.321,204.102c-1.123-24.092-2.242-48.185-3.365-72.277
					c5.189,0,10.379,0,15.568,0c-1.082,24.093-2.166,48.186-3.248,72.277C168.292,204.102,165.306,204.102,162.321,204.102z"/>
			</g>
			
				<rect x="159.042" y="132.756" transform="matrix(-0.9688 0.2478 -0.2478 -0.9688 378.5331 221.2387)" style="fill-rule:evenodd;clip-rule:evenodd;fill:#1A1A1A;" width="32.597" height="3.379"/>
			<path style="fill-rule:evenodd;clip-rule:evenodd;fill:#323232;" d="M191.108,130.315l-7.453-52.006l-13.703-2.232L152.23,80.61
				c-3.648,2.847-7.768,2.584-9.729,5.341c2.129,3.216,3.502,9.251,2.381,12.06l14.646,40.384L191.108,130.315z"/>
			<g>
				<path style="fill-rule:evenodd;clip-rule:evenodd;fill:#FFFFFF;" d="M182.786,91.405c-0.022,0.061-0.047,0.115-0.076,0.167
					c0.113,0.111,0.211,0.255,0.281,0.423c0.232,0.566,0.062,1.206-0.381,1.43c-0.049,0.025-0.1,0.044-0.15,0.057
					c0.035,0.168,0.041,0.344,0.01,0.516c-0.107,0.578-0.59,0.89-1.078,0.697c-0.055-0.021-0.107-0.049-0.158-0.08
					c-0.059,0.145-0.146,0.271-0.266,0.367c-0.396,0.318-0.965,0.156-1.271-0.362c-0.033-0.058-0.063-0.118-0.088-0.179
					c-0.127,0.055-0.27,0.073-0.418,0.047c-0.5-0.09-0.889-0.65-0.869-1.252c0.002-0.066,0.01-0.132,0.02-0.193
					c-0.133-0.063-0.262-0.161-0.373-0.297c-0.369-0.455-0.396-1.151-0.061-1.555c0.037-0.045,0.078-0.085,0.121-0.119
					c-0.08-0.148-0.135-0.318-0.156-0.5c-0.066-0.607,0.281-1.114,0.777-1.131c0.055-0.002,0.109,0.003,0.164,0.013
					c0.012-0.167,0.057-0.328,0.137-0.47c0.266-0.477,0.826-0.557,1.25-0.179c0.047,0.042,0.09,0.089,0.129,0.138
					c0.1-0.105,0.223-0.184,0.365-0.22c0.477-0.122,0.986,0.263,1.139,0.858c0.018,0.066,0.029,0.133,0.035,0.198
					c0.141,0.004,0.283,0.047,0.422,0.134C182.753,90.202,182.976,90.87,182.786,91.405z"/>
				
					<rect x="177.596" y="91.725" transform="matrix(-0.9688 0.2479 -0.2479 -0.9688 379.1674 139.4111)" style="fill-rule:evenodd;clip-rule:evenodd;fill:#323232;" width="6.421" height="3.703"/>
			</g>
			<polygon style="fill-rule:evenodd;clip-rule:evenodd;fill:#FFFFFF;" points="152.23,80.61 171.991,120.973 169.952,76.077 			"/>
			
				<rect x="164.934" y="81.634" transform="matrix(-0.9688 0.2478 -0.2478 -0.9688 349.9901 155.7144)" style="fill-rule:evenodd;clip-rule:evenodd;fill:#E6E6E6;" width="0.52" height="36.504"/>
			<g>
				<polygon style="fill-rule:evenodd;clip-rule:evenodd;fill:#1A1A1A;" points="152.23,80.61 146.304,92.062 158.024,97.843 
					152.3,104.063 171.991,120.973 				"/>
				<polygon style="fill-rule:evenodd;clip-rule:evenodd;fill:#1A1A1A;" points="169.952,76.077 180.638,83.278 173.132,93.978 
					181.142,96.684 171.991,120.973 				"/>
			</g>
			<polygon style="fill-rule:evenodd;clip-rule:evenodd;fill:#1A1A1A;" points="174.321,134.61 176.726,133.995 172.827,118.755 
				171.829,120.342 170.48,119.59 			"/>
			
				<rect x="154.051" y="64.891" transform="matrix(-0.9688 0.2478 -0.2478 -0.9688 332.8633 104.2999)" style="fill-rule:evenodd;clip-rule:evenodd;fill:#E7B791;" width="11.632" height="16.416"/>
			<polygon style="fill-rule:evenodd;clip-rule:evenodd;fill:#FFFFFF;" points="152.23,80.61 154.788,75.866 161.2,78.315 
				155.833,87.965 			"/>
			<polygon style="fill-rule:evenodd;clip-rule:evenodd;fill:#FFFFFF;" points="169.952,76.077 165.235,72.834 161.2,78.315 
				170.362,84.248 			"/>
			<polygon style="fill-rule:evenodd;clip-rule:evenodd;fill:#E6E6E6;" points="155.833,87.965 162.194,82.2 170.362,84.248 
				161.2,78.315 			"/>
			<g>
				<g>
					<path style="fill-rule:evenodd;clip-rule:evenodd;fill:#212E36;" d="M163.101,81.074c1.111-1.009,3.943-4.405,4.814-3.948
						c1.197,0.628,2.482,5.652,1.734,6.779c-0.545,0.818-4.66-0.801-6.119-1.152C163.046,82.403,162.845,81.614,163.101,81.074z"/>
					<path style="fill-rule:evenodd;clip-rule:evenodd;fill:#212E36;" d="M160.681,81.693c-1.461-0.351-5.576-1.97-6.119-1.151
						c-0.75,1.126,0.535,6.15,1.734,6.779c0.869,0.456,3.701-2.94,4.814-3.949C161.366,82.833,161.163,82.044,160.681,81.693z"/>
				</g>
				<path style="fill-rule:evenodd;clip-rule:evenodd;fill:#405059;" d="M160.841,81.233l1.896-0.485
					c0.328-0.084,0.664,0.115,0.748,0.442l0.326,1.275c0.084,0.328-0.115,0.664-0.443,0.748l-1.897,0.484
					c-0.328,0.084-0.664-0.115-0.748-0.442l-0.326-1.275C160.314,81.653,160.513,81.317,160.841,81.233z"/>
			</g>
			<path style="fill-rule:evenodd;clip-rule:evenodd;fill:#1A1A1A;" d="M162.388,208.567c4.897,0,8.889-2.006,8.889-4.465
				c0-2.459-3.992-4.465-8.889-4.465c-4.896,0-8.891,2.006-8.891,4.465C153.497,206.561,157.491,208.567,162.388,208.567z"/>
			
				<ellipse transform="matrix(-0.9971 -0.0759 0.0759 -0.9971 405.1145 352.822)" style="fill-rule:evenodd;clip-rule:evenodd;fill:#1A1A1A;" cx="209.262" cy="168.713" rx="4.465" ry="8.89"/>
			<path style="fill-rule:evenodd;clip-rule:evenodd;fill:#FFD8B8;" d="M220.019,110.863c0.75,1.446,1.67,1.514,2.443,0.658
				c0.83,2.267,3.189,3.252,4.314,2.668c2.188-1.136,2.711-4.468,1.168-7.441c-1.545-2.975-4.57-4.463-6.758-3.327
				C218.997,104.558,218.476,107.89,220.019,110.863z"/>
			<path style="fill-rule:evenodd;clip-rule:evenodd;fill:#FFD8B8;" d="M104.045,51.731c-1.152-1.153-2.049-0.941-2.528,0.107
				c-1.475-1.912-4.021-2.141-4.918-1.245c-1.744,1.742-1.24,5.076,1.127,7.446c2.368,2.371,5.701,2.881,7.445,1.139
				C106.916,57.435,106.412,54.101,104.045,51.731z"/>
			
				<ellipse transform="matrix(0.0087 -1 1 0.0087 104.3271 215.6485)" style="fill-rule:evenodd;clip-rule:evenodd;fill:#FFD8B8;" cx="160.932" cy="55.204" rx="20.727" ry="26.889"/>
			<path style="fill-rule:evenodd;clip-rule:evenodd;fill:#FFF4C7;" d="M178.243,40.501c-11.33-3.272-38.975-9.354-39.535,16.42
				c-0.021,0.998-3.51-6.348-4.211-5.539c2.422-12.248,17.682-19.001,30.59-17.104C169.851,34.979,174.196,36.272,178.243,40.501z"
				/>
			<path style="fill-rule:evenodd;clip-rule:evenodd;fill:#E7B791;" d="M169.737,62.985c-3.873,0.715-13.342,0.565-17.746-0.155
				C156.499,68.341,166.054,68.615,169.737,62.985z"/>
			<path style="fill-rule:evenodd;clip-rule:evenodd;fill:#FFF4C7;" d="M186.685,50.009c-15.809-17.877-43.881,3.445-45.133-24.852
				c6.836,6.96,9.258,8.914,19.023,8.711C167.595,33.722,182.874,34.778,186.685,50.009z"/>
			<path style="fill-rule:evenodd;clip-rule:evenodd;fill:#FFF4C7;" d="M186.655,53.225c-0.313-1.053-3.396,6.562-3.475,2.617
				c-0.521-25.936-40.656-8.201-33.812-36.615c4.756,8.517,5.668,11.94,15.25,13.982C174.38,35.29,186.36,38.473,186.655,53.225z"/>
			
				<ellipse transform="matrix(-0.2171 -0.9761 0.9761 -0.2171 113.6355 193.7179)" style="fill-rule:evenodd;clip-rule:evenodd;fill:#FFD8B8;" cx="134.498" cy="51.291" rx="5.761" ry="3.687"/>
			
				<ellipse transform="matrix(0.2341 -0.9722 0.9722 0.2341 91.544 224.5706)" style="fill-rule:evenodd;clip-rule:evenodd;fill:#FFD8B8;" cx="188.303" cy="54.184" rx="5.761" ry="3.688"/>
			<g>
				<path style="fill-rule:evenodd;clip-rule:evenodd;fill:#666666;" d="M148.886,53.592c0.726-2.439,5.66-2.397,6.158,0.026
					C153.417,52.36,150.163,52.739,148.886,53.592z"/>
				<path style="fill-rule:evenodd;clip-rule:evenodd;fill:#666666;" d="M172.401,53.592c-0.727-2.439-5.66-2.397-6.158,0.026
					C167.87,52.36,171.124,52.739,172.401,53.592z"/>
			</g>
		</g>
		<g>
			<path style="fill-rule:evenodd;clip-rule:evenodd;fill:#FFD8B8;" d="M38.129,190.552c-7.184-23.596-4.018-14.788-11.202-38.384
				c-4.618,1.626-9.237,3.251-13.855,4.877c9.146,22.905,7.942,13.407,17.088,36.313C32.816,192.423,35.473,191.487,38.129,190.552z
				"/>
			<path style="fill-rule:evenodd;clip-rule:evenodd;fill:#FFD8B8;" d="M52.045,203.267c9.097-22.926,18.192-45.852,27.289-68.78
				c-4.624-1.608-9.248-3.217-13.872-4.826c-7.133,23.61-14.265,47.221-21.397,70.83C46.723,201.417,49.384,202.343,52.045,203.267z
				"/>
			<path style="fill-rule:evenodd;clip-rule:evenodd;fill:#D9E0E2;" d="M64.072,32.143c21.658,5.899,29.375,47.483,18.169,94.422
				c-14.531,9.132-30.715,12.55-46.163,8.342c-15.447-4.208-27.661-15.362-35.554-30.601C14.673,58.169,42.415,26.244,64.072,32.143
				z"/>
			<path style="fill-rule:evenodd;clip-rule:evenodd;fill:#FFD8B8;" d="M48.89,95.839c-13.397,2.148-30.045,4.143-40.001,22.641
				l-2.938-2.992c6.351-15.831,21.737-26.773,32.608-26.477C43.451,89.144,52.601,93.468,48.89,95.839z"/>
			<rect x="43.921" y="73.585" style="fill-rule:evenodd;clip-rule:evenodd;fill:#E7B791;" width="11.633" height="16.416"/>
			<path style="fill-rule:evenodd;clip-rule:evenodd;fill:#FFD8B8;" d="M52.819,95.839c13.396,2.149,30.046,4.143,40.001,22.641
				l2.938-2.992c-6.35-15.831-21.736-26.773-32.607-26.477C58.258,89.144,49.109,93.468,52.819,95.839z"/>
			<path style="fill-rule:evenodd;clip-rule:evenodd;fill:#FFEDDE;" d="M42.979,122.099c-1.512-7.528-3.982-14.852-5.493-22.379
				c-0.711-3.543-0.465-7.293-1.176-10.837l8.09-3.535h11.633c2.696,1.382,6.358,2.317,8.09,4.145
				c-0.674,3.369-0.455,6.855-1.134,10.228c-1.51,7.494-3.927,14.88-5.446,22.379H42.979z"/>
			
				<ellipse transform="matrix(0.4865 -0.8737 0.8737 0.4865 -151.747 150.0253)" style="fill-rule:evenodd;clip-rule:evenodd;fill:#CAD3D7;" cx="51.757" cy="204.108" rx="4.212" ry="8.387"/>
			
				<ellipse transform="matrix(-0.9728 -0.2316 0.2316 -0.9728 23.7831 394.8052)" style="fill-rule:evenodd;clip-rule:evenodd;fill:#CAD3D7;" cx="35.064" cy="196.007" rx="4.213" ry="8.387"/>
			
				<ellipse transform="matrix(0.3027 -0.9531 0.9531 0.3027 -7.9468 91.4779)" style="fill-rule:evenodd;clip-rule:evenodd;fill:#FFF4C7;" cx="58.543" cy="51.17" rx="10.881" ry="19.509"/>
			
				<ellipse transform="matrix(0.3027 -0.9531 0.9531 0.3027 -1.5809 89.1797)" style="fill-rule:evenodd;clip-rule:evenodd;fill:#FFF4C7;" cx="60.156" cy="45.67" rx="12.464" ry="16.588"/>
			<g>
				<path style="fill-rule:evenodd;clip-rule:evenodd;fill:#FFFFFF;" d="M50.185,40.444c-0.043,0.026-0.088,0.049-0.133,0.067
					c0.043,0.12,0.059,0.25,0.04,0.384c-0.061,0.449-0.473,0.765-0.922,0.704c-0.05-0.006-0.099-0.018-0.145-0.032
					c-0.044,0.117-0.116,0.228-0.216,0.319c-0.335,0.306-0.854,0.281-1.159-0.054c-0.034-0.037-0.064-0.077-0.09-0.118
					c-0.11,0.063-0.236,0.101-0.371,0.106c-0.452,0.019-0.835-0.334-0.854-0.786c-0.002-0.05,0.001-0.1,0.007-0.149
					c-0.124-0.022-0.245-0.074-0.352-0.157c-0.359-0.276-0.426-0.791-0.148-1.15c0.03-0.04,0.064-0.076,0.101-0.108
					c-0.081-0.099-0.14-0.215-0.169-0.348c-0.097-0.442,0.183-0.88,0.625-0.977c0.05-0.011,0.1-0.017,0.149-0.019
					c0-0.126,0.03-0.255,0.093-0.374c0.21-0.401,0.706-0.557,1.108-0.347c0.044,0.023,0.086,0.051,0.125,0.08
					c0.082-0.096,0.188-0.175,0.312-0.226c0.419-0.172,0.898,0.027,1.071,0.447c0.018,0.047,0.034,0.094,0.044,0.142
					c0.125-0.021,0.256-0.014,0.385,0.027c0.432,0.137,0.671,0.598,0.533,1.029c-0.016,0.049-0.034,0.095-0.058,0.138
					c0.109,0.063,0.205,0.154,0.277,0.267C50.68,39.694,50.567,40.201,50.185,40.444z"/>
				<path style="fill-rule:evenodd;clip-rule:evenodd;fill:#FFFFFF;" d="M55.714,39.365c-0.042,0.026-0.087,0.05-0.132,0.067
					c0.042,0.12,0.058,0.25,0.04,0.385c-0.061,0.448-0.473,0.764-0.922,0.703c-0.05-0.006-0.099-0.018-0.144-0.032
					c-0.045,0.118-0.117,0.228-0.216,0.319c-0.335,0.306-0.854,0.281-1.159-0.053c-0.034-0.037-0.065-0.078-0.09-0.119
					c-0.11,0.063-0.236,0.1-0.371,0.106c-0.452,0.019-0.835-0.333-0.854-0.785c-0.002-0.051,0-0.1,0.007-0.148
					c-0.124-0.022-0.245-0.075-0.352-0.157c-0.358-0.276-0.426-0.792-0.149-1.15c0.031-0.04,0.065-0.077,0.101-0.109
					c-0.081-0.098-0.141-0.215-0.17-0.347c-0.096-0.442,0.184-0.88,0.626-0.978c0.05-0.01,0.099-0.017,0.147-0.018
					c0.001-0.127,0.031-0.255,0.094-0.375c0.21-0.401,0.706-0.557,1.107-0.346c0.044,0.023,0.086,0.05,0.125,0.08
					c0.082-0.096,0.188-0.176,0.312-0.227c0.419-0.173,0.898,0.027,1.071,0.446c0.02,0.047,0.033,0.095,0.044,0.142
					c0.124-0.021,0.256-0.014,0.385,0.027c0.432,0.138,0.671,0.598,0.533,1.03c-0.016,0.048-0.034,0.094-0.058,0.137
					c0.109,0.064,0.205,0.154,0.277,0.269C56.211,38.616,56.097,39.122,55.714,39.365z"/>
				<path style="fill-rule:evenodd;clip-rule:evenodd;fill:#FFFFFF;" d="M61.285,39.949c-0.043,0.026-0.087,0.05-0.133,0.067
					c0.043,0.12,0.059,0.25,0.041,0.385c-0.061,0.448-0.474,0.764-0.922,0.703c-0.051-0.006-0.099-0.018-0.146-0.032
					c-0.044,0.118-0.116,0.228-0.216,0.319c-0.335,0.306-0.853,0.281-1.159-0.053c-0.034-0.038-0.064-0.078-0.09-0.119
					c-0.11,0.063-0.235,0.101-0.371,0.107c-0.452,0.018-0.835-0.333-0.854-0.786c-0.002-0.05,0.001-0.1,0.007-0.147
					c-0.124-0.023-0.245-0.075-0.352-0.157c-0.358-0.277-0.426-0.792-0.148-1.15c0.03-0.041,0.064-0.077,0.101-0.109
					c-0.081-0.098-0.14-0.215-0.169-0.348c-0.097-0.442,0.183-0.879,0.625-0.977c0.05-0.011,0.1-0.017,0.148-0.019
					c0.001-0.126,0.03-0.254,0.093-0.374c0.21-0.401,0.706-0.557,1.108-0.346c0.044,0.022,0.087,0.049,0.125,0.08
					c0.082-0.097,0.187-0.176,0.311-0.227c0.42-0.173,0.898,0.027,1.071,0.446c0.02,0.047,0.034,0.095,0.044,0.142
					c0.125-0.021,0.256-0.014,0.385,0.027c0.432,0.137,0.671,0.599,0.533,1.03c-0.016,0.048-0.034,0.094-0.058,0.137
					c0.109,0.063,0.205,0.154,0.277,0.269C61.781,39.199,61.667,39.706,61.285,39.949z"/>
				<path style="fill-rule:evenodd;clip-rule:evenodd;fill:#FFFFFF;" d="M71.081,47.08c0.019,0.047,0.042,0.091,0.068,0.132
					c-0.103,0.073-0.191,0.171-0.254,0.291c-0.21,0.4-0.055,0.896,0.347,1.106c0.045,0.023,0.091,0.042,0.138,0.058
					c-0.033,0.121-0.037,0.253-0.009,0.385c0.098,0.442,0.535,0.723,0.978,0.625c0.049-0.01,0.097-0.025,0.142-0.044
					c0.054,0.114,0.135,0.218,0.242,0.3c0.358,0.276,0.873,0.211,1.149-0.148c0.031-0.04,0.058-0.082,0.08-0.126
					c0.114,0.054,0.243,0.081,0.378,0.075c0.453-0.02,0.805-0.4,0.786-0.854c-0.002-0.051-0.009-0.1-0.02-0.147
					c0.122-0.033,0.238-0.095,0.338-0.186c0.335-0.306,0.358-0.824,0.053-1.159c-0.034-0.037-0.07-0.07-0.109-0.1
					c0.072-0.104,0.121-0.227,0.14-0.36c0.059-0.448-0.256-0.861-0.704-0.922c-0.05-0.007-0.101-0.009-0.149-0.006
					c-0.012-0.126-0.052-0.251-0.124-0.365c-0.242-0.383-0.749-0.496-1.132-0.253c-0.043,0.026-0.082,0.057-0.118,0.09
					c-0.089-0.089-0.201-0.158-0.33-0.199c-0.432-0.138-0.893,0.101-1.029,0.533c-0.016,0.049-0.026,0.097-0.032,0.145
					c-0.126-0.011-0.256,0.008-0.381,0.06C71.107,46.182,70.908,46.661,71.081,47.08z"/>
				<path style="fill-rule:evenodd;clip-rule:evenodd;fill:#FFFFFF;" d="M67.186,43.009c0.02,0.047,0.042,0.091,0.068,0.132
					c-0.103,0.073-0.191,0.17-0.254,0.29c-0.21,0.401-0.055,0.897,0.347,1.107c0.045,0.023,0.091,0.042,0.138,0.057
					c-0.032,0.122-0.037,0.254-0.009,0.385c0.098,0.443,0.535,0.723,0.978,0.626c0.049-0.011,0.097-0.026,0.142-0.045
					c0.054,0.114,0.135,0.218,0.242,0.301c0.358,0.276,0.873,0.21,1.15-0.149c0.03-0.04,0.058-0.082,0.08-0.125
					c0.114,0.053,0.243,0.08,0.378,0.074c0.452-0.019,0.804-0.4,0.785-0.854c-0.002-0.05-0.009-0.1-0.02-0.147
					c0.122-0.032,0.238-0.095,0.338-0.186c0.335-0.306,0.358-0.824,0.054-1.159c-0.034-0.037-0.071-0.07-0.11-0.1
					c0.072-0.104,0.122-0.227,0.14-0.359c0.06-0.449-0.255-0.862-0.704-0.922c-0.051-0.008-0.1-0.009-0.148-0.007
					c-0.012-0.126-0.053-0.251-0.125-0.365c-0.242-0.382-0.749-0.496-1.132-0.253c-0.043,0.027-0.082,0.057-0.117,0.09
					c-0.09-0.089-0.202-0.158-0.33-0.199c-0.432-0.137-0.894,0.102-1.03,0.533c-0.015,0.049-0.026,0.097-0.032,0.146
					c-0.126-0.011-0.256,0.008-0.381,0.059C67.212,42.11,67.013,42.59,67.186,43.009z"/>
				<path style="fill-rule:evenodd;clip-rule:evenodd;fill:#FFFFFF;" d="M62.3,40.271c0.019,0.047,0.042,0.091,0.068,0.132
					c-0.103,0.073-0.191,0.17-0.254,0.29c-0.21,0.401-0.055,0.897,0.347,1.107c0.045,0.023,0.091,0.042,0.138,0.057
					c-0.033,0.122-0.037,0.254-0.008,0.386c0.097,0.442,0.534,0.723,0.977,0.625c0.049-0.011,0.097-0.025,0.142-0.045
					c0.054,0.115,0.135,0.219,0.242,0.301c0.358,0.276,0.874,0.21,1.15-0.148c0.03-0.04,0.058-0.082,0.079-0.126
					c0.115,0.053,0.244,0.081,0.379,0.075c0.452-0.02,0.805-0.401,0.785-0.854c-0.002-0.051-0.009-0.1-0.02-0.148
					c0.122-0.032,0.238-0.094,0.338-0.185c0.335-0.306,0.358-0.824,0.054-1.159c-0.034-0.037-0.071-0.07-0.11-0.101
					c0.072-0.104,0.121-0.226,0.14-0.359c0.06-0.449-0.255-0.862-0.704-0.922c-0.05-0.007-0.1-0.009-0.148-0.007
					c-0.012-0.125-0.053-0.25-0.125-0.364c-0.242-0.383-0.749-0.497-1.132-0.254c-0.042,0.027-0.082,0.058-0.118,0.091
					c-0.089-0.089-0.201-0.159-0.329-0.2c-0.433-0.137-0.894,0.103-1.03,0.534c-0.016,0.048-0.026,0.096-0.032,0.145
					c-0.126-0.011-0.256,0.008-0.381,0.06C62.328,39.374,62.128,39.852,62.3,40.271z"/>
			</g>
			
				<ellipse transform="matrix(0.3027 -0.9531 0.9531 0.3027 -21.2766 95.7945)" style="fill-rule:evenodd;clip-rule:evenodd;fill:#FFD8B8;" cx="54.831" cy="62.438" rx="19.555" ry="25.369"/>
			<path style="fill-rule:evenodd;clip-rule:evenodd;fill:#FFF4C7;" d="M33.06,50.12c23.231-10.59,42.429,3.713,46.666,15.052
				C82.992,42.283,48.114,26.722,33.06,50.12z"/>
			<path style="fill-rule:evenodd;clip-rule:evenodd;fill:#E7B791;" d="M61.055,72.156c-4.311,1.621-13.311-1.353-16.915-5.373
				C46.826,73.378,55.878,76.452,61.055,72.156z"/>
			<path style="fill-rule:evenodd;clip-rule:evenodd;fill:#F2F8FA;" d="M40.836,122.098l-3.263-21.567
				c-0.058-0.264-0.088-0.534-0.088-0.811c0-2.804,3.082-5.076,6.884-5.076c2.482,0,4.656,0.969,5.867,2.421
				c1.212-1.452,3.387-2.421,5.868-2.421c3.802,0,6.884,2.273,6.884,5.076c0,0.267-0.028,0.529-0.082,0.785l-3.19,21.593H40.836z"/>
			<g>
				<path style="fill-rule:evenodd;clip-rule:evenodd;fill:#F2F8FA;" d="M50.855,119.641c26.404,0.217,22.884,14.128,39.838-0.19
					c7.345-6.204,9.018,5.859,7.646,14.279c-1.71,10.492,24.791,51.141-47.483,50.716V119.641z"/>
				<path style="fill-rule:evenodd;clip-rule:evenodd;fill:#F2F8FA;" d="M50.855,119.653c10.729,0.518,16.299,14.258,20.85,9.559
					c5.527-5.709,2.437,17.84,21.239-7.476c4.981-6.707,5.851-0.225,3.997,7.996c-1.486,6.588-4.694,47.479-11.875,50.346
					c-8.792,3.509-21.777,4.571-34.211,4.398V119.653z"/>
				<path style="fill-rule:evenodd;clip-rule:evenodd;fill:#F2F8FA;" d="M50.855,119.68c8.928,1.122,12.967,26.021,17.771,17.827
					c7.03-11.989,0.063,19.418,24.234-12.766c1.305-1.737,4.078-8.657,2.575-0.438c-0.817,4.469-9.423,52.414-14.539,56.725
					c-3.436,2.894-17.063,3.336-30.042,2.723V119.68z"/>
				<path style="fill-rule:evenodd;clip-rule:evenodd;fill:#F2F8FA;" d="M50.855,119.655c8.81,0.473,5.561,11.119,9.147,20.648
					c2.526,6.713,7.593,8.309,10.311,3.977c3.477-5.538,6.44,15.763,21.098-18.914c2.777-6.57,5.235-6.894,4.57-5.062
					c-3.316,9.139-11.114,55.636-23.84,62.022c-1.898,0.952-11.911,1.134-21.287,0.623V119.655z"/>
				<path style="fill-rule:evenodd;clip-rule:evenodd;fill:#F2F8FA;" d="M50.855,119.678c4.49,0.616,1.557,8.252,3.144,18.912
					c2.194,14.751,9.636,20.813,15.02,12.11c2.668-4.311,8.893,12.91,19.808-16.711c-6.644,15.515-2.146,34.137-20.999,47.963
					c-1.187,0.869-9.786,1.143-16.973,0.581V119.678z"/>
			</g>
			
				<ellipse transform="matrix(0.0798 -0.9968 0.9968 0.0798 -26.3769 80.9469)" style="fill-rule:evenodd;clip-rule:evenodd;fill:#FFD8B8;" cx="30.652" cy="54.759" rx="5.761" ry="3.687"/>
			<path style="fill-rule:evenodd;clip-rule:evenodd;fill:#FFF4C7;" d="M28.21,80.449c-2.889-4.236-1.63-9.556,2.365-11.03
				c3.996-1.475,5.816-3.479,5.03-7.844c-0.785-4.365,0.252-6.86,4.466-7.095c4.213-0.233,5.765-0.899,7.604-5.145
				c1.84-4.245,7.037-3.138,11.888-1.397c-5.563-3.262-10.651-5.905-14.752-4.189c-4.101,1.716-5.904-0.386-9.438,3.408
				c-3.533,3.792-3.905,8.569-3.12,12.934c0.786,4.366,0.524,6.287-3.471,7.763C24.786,69.328,22.339,75.564,28.21,80.449z"/>
			
				<ellipse transform="matrix(0.51 -0.8602 0.8602 0.51 -21.8567 102.3757)" style="fill-rule:evenodd;clip-rule:evenodd;fill:#FFD8B8;" cx="78.927" cy="70.371" rx="5.761" ry="3.687"/>
			<g>
				<circle style="fill-rule:evenodd;clip-rule:evenodd;fill:#FFD8B8;" cx="44.128" cy="88.775" r="0.59"/>
				<circle style="fill-rule:evenodd;clip-rule:evenodd;fill:#FFD8B8;" cx="47.172" cy="88.775" r="0.59"/>
				<circle style="fill-rule:evenodd;clip-rule:evenodd;fill:#FFD8B8;" cx="50.216" cy="88.775" r="0.59"/>
				<circle style="fill-rule:evenodd;clip-rule:evenodd;fill:#FFD8B8;" cx="53.261" cy="88.775" r="0.59"/>
				<circle style="fill-rule:evenodd;clip-rule:evenodd;fill:#FFD8B8;" cx="56.305" cy="88.775" r="0.59"/>
				<circle style="fill-rule:evenodd;clip-rule:evenodd;fill:#FFD8B8;" cx="38.039" cy="88.775" r="0.59"/>
				<circle style="fill-rule:evenodd;clip-rule:evenodd;fill:#FFD8B8;" cx="41.084" cy="88.775" r="0.59"/>
				<circle style="fill-rule:evenodd;clip-rule:evenodd;fill:#FFD8B8;" cx="59.349" cy="88.775" r="0.59"/>
				<path style="fill-rule:evenodd;clip-rule:evenodd;fill:#FFD8B8;" d="M62.931,88.529c0.034,0.075,0.053,0.158,0.053,0.246
					c0,0.326-0.264,0.59-0.59,0.59c-0.326,0-0.59-0.264-0.59-0.59c0-0.315,0.247-0.573,0.558-0.59
					C62.559,88.297,62.749,88.411,62.931,88.529z"/>
				<circle style="fill-rule:evenodd;clip-rule:evenodd;fill:#FFD8B8;" cx="42.605" cy="90.945" r="0.59"/>
				<circle style="fill-rule:evenodd;clip-rule:evenodd;fill:#FFD8B8;" cx="45.65" cy="90.945" r="0.59"/>
				<circle style="fill-rule:evenodd;clip-rule:evenodd;fill:#FFD8B8;" cx="48.694" cy="90.945" r="0.59"/>
				<circle style="fill-rule:evenodd;clip-rule:evenodd;fill:#FFD8B8;" cx="51.739" cy="90.945" r="0.59"/>
				<circle style="fill-rule:evenodd;clip-rule:evenodd;fill:#FFD8B8;" cx="54.783" cy="90.945" r="0.59"/>
				<path style="fill-rule:evenodd;clip-rule:evenodd;fill:#FFD8B8;" d="M36.553,90.355c0.309,0.018,0.554,0.275,0.554,0.589
					c0,0.268-0.177,0.492-0.42,0.565C36.649,91.123,36.605,90.739,36.553,90.355z"/>
				<circle style="fill-rule:evenodd;clip-rule:evenodd;fill:#FFD8B8;" cx="39.561" cy="90.945" r="0.59"/>
				<circle style="fill-rule:evenodd;clip-rule:evenodd;fill:#FFD8B8;" cx="57.828" cy="90.945" r="0.59"/>
				<circle style="fill-rule:evenodd;clip-rule:evenodd;fill:#FFD8B8;" cx="60.872" cy="90.945" r="0.59"/>
				<path style="fill-rule:evenodd;clip-rule:evenodd;fill:#FFD8B8;" d="M63.917,90.354l0.052,0.002
					c-0.061,0.389-0.112,0.778-0.157,1.169c-0.275-0.05-0.485-0.29-0.485-0.581C63.326,90.618,63.59,90.354,63.917,90.354z"/>
				<path style="fill-rule:evenodd;clip-rule:evenodd;fill:#FFD8B8;" d="M42.814,86.042c0.223,0.084,0.382,0.3,0.382,0.553
					c0,0.325-0.265,0.59-0.591,0.59c-0.325,0-0.59-0.265-0.59-0.59c0-0.079,0.016-0.154,0.043-0.223L42.814,86.042z"/>
				<circle style="fill-rule:evenodd;clip-rule:evenodd;fill:#FFD8B8;" cx="45.65" cy="86.594" r="0.59"/>
				<circle style="fill-rule:evenodd;clip-rule:evenodd;fill:#FFD8B8;" cx="48.694" cy="86.594" r="0.59"/>
				<circle style="fill-rule:evenodd;clip-rule:evenodd;fill:#FFD8B8;" cx="51.739" cy="86.594" r="0.59"/>
				<circle style="fill-rule:evenodd;clip-rule:evenodd;fill:#FFD8B8;" cx="54.783" cy="86.594" r="0.59"/>
				<path style="fill-rule:evenodd;clip-rule:evenodd;fill:#FFD8B8;" d="M58.386,86.402c0.021,0.061,0.031,0.125,0.031,0.192
					c0,0.325-0.264,0.59-0.59,0.59c-0.326,0-0.591-0.265-0.591-0.59c0-0.234,0.137-0.437,0.335-0.533
					C57.84,86.177,58.113,86.29,58.386,86.402z"/>
				<path style="fill-rule:evenodd;clip-rule:evenodd;fill:#FFD8B8;" d="M44.128,92.683c0.326,0,0.591,0.265,0.591,0.591
					c0,0.231-0.135,0.434-0.33,0.529c-0.126-0.005-0.254-0.008-0.381-0.008l-0.152,0.002c-0.188-0.099-0.317-0.296-0.317-0.523
					C43.538,92.948,43.801,92.683,44.128,92.683z"/>
				<circle style="fill-rule:evenodd;clip-rule:evenodd;fill:#FFD8B8;" cx="47.172" cy="93.274" r="0.59"/>
				<circle style="fill-rule:evenodd;clip-rule:evenodd;fill:#FFD8B8;" cx="50.216" cy="93.274" r="0.59"/>
				<circle style="fill-rule:evenodd;clip-rule:evenodd;fill:#FFD8B8;" cx="53.261" cy="93.274" r="0.59"/>
				<path style="fill-rule:evenodd;clip-rule:evenodd;fill:#FFD8B8;" d="M56.305,92.683c0.326,0,0.59,0.265,0.59,0.591
					c0,0.227-0.128,0.424-0.317,0.523l-0.11-0.002c-0.141,0-0.281,0.004-0.419,0.01c-0.197-0.096-0.333-0.298-0.333-0.531
					C55.715,92.948,55.979,92.683,56.305,92.683z"/>
				<circle style="fill-rule:evenodd;clip-rule:evenodd;fill:#FFD8B8;" cx="38.039" cy="93.274" r="0.59"/>
				<circle style="fill-rule:evenodd;clip-rule:evenodd;fill:#FFD8B8;" cx="41.084" cy="93.274" r="0.59"/>
				<circle style="fill-rule:evenodd;clip-rule:evenodd;fill:#FFD8B8;" cx="59.349" cy="93.274" r="0.59"/>
				<circle style="fill-rule:evenodd;clip-rule:evenodd;fill:#FFD8B8;" cx="62.394" cy="93.274" r="0.59"/>
				<path style="fill-rule:evenodd;clip-rule:evenodd;fill:#FFD8B8;" d="M48.694,94.852c0.326,0,0.591,0.265,0.591,0.591v0.014
					c-0.259-0.199-0.538-0.384-0.835-0.551C48.524,94.872,48.607,94.852,48.694,94.852z"/>
				<path style="fill-rule:evenodd;clip-rule:evenodd;fill:#FFD8B8;" d="M51.739,94.852c0.096,0,0.187,0.023,0.267,0.064
					c-0.305,0.174-0.591,0.364-0.855,0.57l-0.002-0.044C51.148,95.117,51.413,94.852,51.739,94.852z"/>
				<path style="fill-rule:evenodd;clip-rule:evenodd;fill:#FFD8B8;" d="M36.945,95.037c0.101,0.106,0.162,0.249,0.162,0.406
					c0,0.128-0.041,0.246-0.109,0.343C36.979,95.536,36.961,95.287,36.945,95.037z"/>
				<path style="fill-rule:evenodd;clip-rule:evenodd;fill:#FFD8B8;" d="M39.561,94.852c0.029,0,0.058,0.003,0.087,0.007
					c-0.227,0.124-0.442,0.258-0.648,0.4C39.078,95.023,39.299,94.852,39.561,94.852z"/>
				<path style="fill-rule:evenodd;clip-rule:evenodd;fill:#FFD8B8;" d="M60.872,94.852c0.248,0,0.46,0.153,0.548,0.369
					c-0.191-0.13-0.392-0.252-0.601-0.366L60.872,94.852z"/>
				<path style="fill-rule:evenodd;clip-rule:evenodd;fill:#FFD8B8;" d="M63.472,95.832c-0.091-0.104-0.147-0.239-0.147-0.389
					c0-0.179,0.08-0.339,0.206-0.448C63.512,95.274,63.493,95.554,63.472,95.832z"/>
			</g>
			<path style="fill-rule:evenodd;clip-rule:evenodd;fill:#FFF4C7;" d="M66.41,92.582c4.805-1.793,6.846-6.863,4.434-10.374
				c-2.413-3.51-2.743-6.197,0.417-9.309c3.16-3.112,3.753-5.748,0.446-8.371c-3.306-2.622-4.188-4.061-3.241-8.589
				c0.946-4.528-3.937-6.623-8.903-8.001c6.427,0.546,12.108,1.323,14.467,5.091c2.358,3.768,5.045,3.093,5.741,8.229
				c0.698,5.137-1.755,9.253-4.915,12.364c-3.16,3.112-4.057,4.832-1.644,8.343C75.624,85.474,74.023,91.98,66.41,92.582z"/>
			<g>
				<path style="fill-rule:evenodd;clip-rule:evenodd;fill:#666666;" d="M43.638,58.837c1.432-2.105,6.12-0.572,5.861,1.889
					C48.33,59.034,45.115,58.41,43.638,58.837z"/>
				<path style="fill-rule:evenodd;clip-rule:evenodd;fill:#666666;" d="M66.05,65.954c0.046-2.545-4.668-3.997-5.877-1.838
					C62.105,63.41,65.091,64.755,66.05,65.954z"/>
			</g>
			<path style="fill-rule:evenodd;clip-rule:evenodd;fill:#FFD8B8;" d="M91.022,120.048c0.66,1.388,1.524,1.482,2.281,0.701
				c0.708,2.164,2.9,3.171,3.98,2.658c2.101-1,2.704-4.123,1.346-6.978c-1.356-2.854-4.16-4.358-6.261-3.36
				C90.267,114.069,89.665,117.193,91.022,120.048z"/>
			<g>
				<path style="fill-rule:evenodd;clip-rule:evenodd;fill:#F2F8FA;" d="M50.855,119.641c-26.405,0.217-22.885,14.128-39.838-0.19
					C3.672,113.247,2,125.31,3.372,133.73c1.71,10.492-24.791,51.141,47.483,50.716V119.641z"/>
				<path style="fill-rule:evenodd;clip-rule:evenodd;fill:#F2F8FA;" d="M50.855,119.653c-10.729,0.518-16.299,14.258-20.85,9.559
					c-5.528-5.709-2.437,17.84-21.24-7.476c-4.982-6.707-5.851-0.225-3.996,7.996c1.485,6.588,4.694,47.479,11.874,50.346
					c8.792,3.509,21.778,4.571,34.212,4.398V119.653z"/>
				<path style="fill-rule:evenodd;clip-rule:evenodd;fill:#F2F8FA;" d="M50.855,119.68c-8.928,1.122-12.967,26.021-17.771,17.827
					c-7.031-11.989-0.063,19.418-24.234-12.766c-1.305-1.737-4.079-8.657-2.576-0.438c0.817,4.469,9.423,52.414,14.54,56.725
					c3.436,2.894,17.063,3.336,30.042,2.723V119.68z"/>
				<path style="fill-rule:evenodd;clip-rule:evenodd;fill:#F2F8FA;" d="M50.855,119.655c-8.81,0.473-5.562,11.119-9.147,20.648
					c-2.526,6.713-7.593,8.309-10.313,3.977c-3.477-5.538-6.439,15.763-21.098-18.914c-2.777-6.57-5.235-6.894-4.569-5.062
					c3.315,9.139,11.113,55.636,23.84,62.022c1.898,0.952,11.91,1.134,21.287,0.623V119.655z"/>
				<path style="fill-rule:evenodd;clip-rule:evenodd;fill:#F2F8FA;" d="M50.855,119.678c-4.491,0.616-1.558,8.252-3.144,18.912
					c-2.195,14.751-9.636,20.813-15.021,12.11c-2.668-4.311-8.892,12.91-19.808-16.711c6.645,15.515,2.148,34.137,21,47.963
					c1.186,0.869,9.785,1.143,16.973,0.581V119.678z"/>
			</g>
			<path style="fill-rule:evenodd;clip-rule:evenodd;fill:#FFD8B8;" d="M10.688,120.048c-0.66,1.389-1.524,1.482-2.282,0.701
				c-0.708,2.165-2.9,3.172-3.981,2.658c-2.101-0.999-2.703-4.123-1.346-6.978c1.357-2.854,4.161-4.358,6.262-3.359
				C11.443,114.069,12.045,117.193,10.688,120.048z"/>
		</g>
	</g>
</g>
<g>
</g>
<g>
</g>
<g>
</g>
<g>
</g>
<g>
</g>
<g>
</g>
<g>
</g>
<g>
</g>
<g>
</g>
<g>
</g>
<g>
</g>
<g>
</g>
<g>
</g>
<g>
</g>
<g>
</g>
</svg>
