<?xml version="1.0" encoding="iso-8859-1"?>
<!-- Generator: Adobe Illustrator 18.0.0, SVG Export Plug-In . SVG Version: 6.00 Build 0)  -->
<!DOCTYPE svg PUBLIC "-//W3C//DTD SVG 1.1//EN" "http://www.w3.org/Graphics/SVG/1.1/DTD/svg11.dtd">
<svg version="1.1" id="Capa_1" xmlns="http://www.w3.org/2000/svg" xmlns:xlink="http://www.w3.org/1999/xlink" x="0px" y="0px"
	 viewBox="0 0 226.186 226.186" style="enable-background:new 0 0 226.186 226.186;" xml:space="preserve">
<g>
	<g>
		<g>
			<circle style="fill-rule:evenodd;clip-rule:evenodd;fill:#E6E6E6;" cx="165.85" cy="88.329" r="0.587"/>
			<circle style="fill-rule:evenodd;clip-rule:evenodd;fill:#E6E6E6;" cx="165.85" cy="95.747" r="0.587"/>
			<circle style="fill-rule:evenodd;clip-rule:evenodd;fill:#E6E6E6;" cx="165.85" cy="103.165" r="0.587"/>
			<circle style="fill-rule:evenodd;clip-rule:evenodd;fill:#E6E6E6;" cx="165.85" cy="110.584" r="0.588"/>
		</g>
		<g>
			<path style="fill-rule:evenodd;clip-rule:evenodd;fill:#D9E0E2;" d="M63.42,29.857c22.447,0,40.822,38.094,42.348,86.327
				c-11.621,12.63-26.338,20.181-42.348,20.181s-30.727-7.551-42.348-20.181C22.598,67.951,40.973,29.857,63.42,29.857z"/>
			<rect x="57.584" y="74.756" style="fill-rule:evenodd;clip-rule:evenodd;fill:#E7B791;" width="11.633" height="16.416"/>
			<path style="fill-rule:evenodd;clip-rule:evenodd;fill:#FFD8B8;" d="M77.207,88.484c8.898,9.437,14.508,24.999,29.697,35.082
				l-2.393,3.444c-12.924-6.296-24.939-16.338-30.547-24.021C71.082,99.037,74.185,85.281,77.207,88.484z"/>
			<path style="fill-rule:evenodd;clip-rule:evenodd;fill:#FFD8B8;" d="M63.394,92.899c-11.398,3.375-29.77,16.093-41.021,30.439
				l-3.244-2.657c7.297-12.386,21.465-27.316,29.566-32.299C52.865,85.819,61.785,88.799,63.394,92.899z"/>
			<g>
				<path style="fill-rule:evenodd;clip-rule:evenodd;fill:#E7B791;" d="M60.684,204.556c1.059-22.73,2.117-45.461,3.176-68.191
					c-4.896,0-9.793,0-14.688,0c1.02,22.73,2.041,45.461,3.063,68.191C55.051,204.556,57.867,204.556,60.684,204.556z"/>
				<path style="fill-rule:evenodd;clip-rule:evenodd;fill:#E7B791;" d="M74.453,204.556c1.061-22.73,2.117-45.461,3.176-68.191
					c-4.896,0-9.793,0-14.688,0c1.02,22.73,2.043,45.461,3.063,68.191C68.82,204.556,71.639,204.556,74.453,204.556z"/>
			</g>
			<path style="fill-rule:evenodd;clip-rule:evenodd;fill:#FFEDDE;" d="M56.162,121.197c-1.512-7.528-3.982-14.852-5.492-22.379
				c-0.713-3.543-0.465-7.293-1.178-10.837l8.092-3.535h11.633c2.695,1.382,6.357,2.317,8.09,4.144
				c-0.674,3.37-0.455,6.856-1.135,10.229c-1.51,7.494-3.926,14.879-5.445,22.379H56.162z"/>
			<path style="fill-rule:evenodd;clip-rule:evenodd;fill:#CAD3D7;" d="M74.391,208.768c4.621,0,8.389-1.893,8.389-4.213
				c0-2.32-3.768-4.213-8.389-4.213c-4.619,0-8.387,1.893-8.387,4.213C66.004,206.876,69.771,208.768,74.391,208.768z"/>
			<path style="fill-rule:evenodd;clip-rule:evenodd;fill:#CAD3D7;" d="M52.297,208.768c4.621,0,8.389-1.893,8.389-4.213
				c0-2.32-3.768-4.213-8.389-4.213c-4.619,0-8.387,1.893-8.387,4.213C43.91,206.876,47.678,208.768,52.297,208.768z"/>
			<path style="fill-rule:evenodd;clip-rule:evenodd;fill:#E7B791;" d="M15.176,120.826c-1.152,1.018-1.004,1.874-0.045,2.387
				c-1.887,1.277-2.25,3.662-1.459,4.559c1.541,1.744,4.709,1.463,7.078-0.629c2.371-2.092,3.043-5.201,1.504-6.945
				C20.715,118.453,17.545,118.734,15.176,120.826z"/>
			<path style="fill-rule:evenodd;clip-rule:evenodd;fill:#FFD8B8;" d="M109.873,123.26c1.152,1.018,1.006,1.874,0.045,2.386
				c1.887,1.277,2.25,3.663,1.459,4.56c-1.539,1.744-4.709,1.462-7.078-0.629c-2.369-2.092-3.043-5.201-1.504-6.945
				C104.334,120.887,107.504,121.168,109.873,123.26z"/>
			<path style="fill-rule:evenodd;clip-rule:evenodd;fill:#FFF4C7;" d="M63.42,61.722c10.746,0,19.51-4.888,19.51-10.881
				c0-5.992-8.764-10.88-19.51-10.88c-10.744,0-19.508,4.888-19.508,10.88C43.912,56.834,52.676,61.722,63.42,61.722z"/>
			<path style="fill-rule:evenodd;clip-rule:evenodd;fill:#FFF4C7;" d="M63.293,57.576c9.137,0,16.588-5.599,16.588-12.464
				S72.43,32.648,63.293,32.648c-9.137,0-16.588,5.599-16.588,12.464S54.156,57.576,63.293,57.576z"/>
			<g>
				<path style="fill-rule:evenodd;clip-rule:evenodd;fill:#FFFFFF;" d="M52.207,43.15c-0.033,0.038-0.068,0.073-0.105,0.104
					c0.076,0.101,0.131,0.22,0.154,0.354c0.078,0.446-0.219,0.872-0.666,0.95c-0.049,0.009-0.098,0.013-0.146,0.013
					c-0.008,0.126-0.043,0.253-0.109,0.37c-0.227,0.393-0.729,0.526-1.121,0.3c-0.043-0.025-0.084-0.055-0.121-0.086
					c-0.086,0.093-0.195,0.167-0.322,0.214c-0.426,0.154-0.896-0.064-1.051-0.49c-0.018-0.048-0.029-0.096-0.039-0.144
					c-0.125,0.016-0.256,0.003-0.383-0.044c-0.426-0.154-0.645-0.625-0.49-1.051c0.018-0.048,0.039-0.093,0.064-0.135
					c-0.107-0.068-0.199-0.162-0.268-0.279c-0.225-0.393-0.092-0.895,0.301-1.121c0.045-0.025,0.09-0.046,0.135-0.063
					c-0.037-0.12-0.047-0.252-0.023-0.385c0.078-0.445,0.504-0.744,0.951-0.665c0.049,0.009,0.098,0.021,0.143,0.039
					c0.049-0.116,0.125-0.224,0.229-0.311c0.348-0.291,0.865-0.246,1.156,0.102c0.033,0.038,0.061,0.079,0.084,0.122
					c0.113-0.059,0.24-0.091,0.375-0.091c0.453,0,0.82,0.367,0.82,0.819c0,0.051-0.004,0.102-0.014,0.148
					c0.125,0.028,0.242,0.085,0.346,0.172C52.453,42.285,52.498,42.802,52.207,43.15z"/>
				<path style="fill-rule:evenodd;clip-rule:evenodd;fill:#FFFFFF;" d="M57.152,40.448c-0.033,0.038-0.068,0.073-0.107,0.104
					c0.078,0.102,0.133,0.221,0.156,0.354c0.078,0.446-0.221,0.871-0.666,0.95c-0.051,0.009-0.1,0.013-0.148,0.013
					c-0.006,0.126-0.041,0.253-0.109,0.37c-0.227,0.392-0.729,0.526-1.121,0.3c-0.043-0.025-0.084-0.055-0.121-0.086
					c-0.086,0.093-0.193,0.167-0.32,0.214c-0.426,0.154-0.896-0.064-1.053-0.49c-0.018-0.048-0.029-0.096-0.037-0.144
					c-0.125,0.016-0.256,0.003-0.383-0.044c-0.426-0.154-0.646-0.625-0.49-1.051c0.016-0.048,0.037-0.093,0.063-0.135
					c-0.105-0.068-0.199-0.162-0.266-0.279c-0.227-0.393-0.092-0.893,0.301-1.121c0.043-0.024,0.088-0.046,0.135-0.062
					c-0.037-0.121-0.047-0.252-0.025-0.385c0.08-0.446,0.506-0.744,0.951-0.666c0.049,0.009,0.098,0.021,0.145,0.039
					c0.049-0.116,0.125-0.224,0.229-0.311c0.346-0.291,0.863-0.246,1.154,0.102c0.033,0.039,0.063,0.08,0.086,0.122
					c0.111-0.059,0.24-0.091,0.375-0.091c0.453,0,0.82,0.367,0.82,0.82c0,0.051-0.004,0.1-0.014,0.148
					c0.123,0.027,0.242,0.084,0.346,0.171C57.396,39.583,57.443,40.1,57.152,40.448z"/>
				<path style="fill-rule:evenodd;clip-rule:evenodd;fill:#FFFFFF;" d="M62.637,39.318c-0.033,0.039-0.068,0.074-0.105,0.104
					c0.076,0.102,0.131,0.221,0.154,0.354c0.078,0.446-0.219,0.872-0.666,0.95c-0.049,0.01-0.1,0.013-0.148,0.013
					c-0.006,0.126-0.041,0.253-0.107,0.37c-0.229,0.393-0.729,0.526-1.121,0.301c-0.045-0.025-0.086-0.055-0.121-0.086
					c-0.088,0.092-0.195,0.166-0.322,0.213c-0.426,0.155-0.896-0.064-1.051-0.49c-0.018-0.047-0.031-0.096-0.039-0.144
					c-0.125,0.017-0.256,0.003-0.383-0.043c-0.426-0.155-0.645-0.626-0.49-1.052c0.018-0.047,0.039-0.093,0.063-0.135
					c-0.105-0.068-0.197-0.162-0.266-0.279c-0.227-0.393-0.092-0.894,0.301-1.121c0.043-0.024,0.09-0.045,0.135-0.062
					c-0.037-0.121-0.047-0.252-0.023-0.385c0.078-0.446,0.504-0.744,0.949-0.665c0.051,0.008,0.098,0.021,0.145,0.038
					c0.049-0.116,0.125-0.224,0.229-0.311c0.348-0.291,0.865-0.245,1.156,0.102c0.031,0.039,0.061,0.08,0.084,0.122
					c0.113-0.059,0.24-0.091,0.375-0.091c0.453,0,0.82,0.367,0.82,0.82c0,0.051-0.004,0.101-0.014,0.148
					c0.123,0.027,0.242,0.085,0.346,0.171C62.883,38.453,62.928,38.97,62.637,39.318z"/>
				<path style="fill-rule:evenodd;clip-rule:evenodd;fill:#FFFFFF;" d="M74.131,43.15c0.033,0.038,0.068,0.073,0.105,0.104
					c-0.076,0.101-0.131,0.22-0.154,0.354c-0.078,0.446,0.221,0.871,0.666,0.95c0.051,0.009,0.1,0.013,0.149,0.012
					c0.006,0.127,0.041,0.254,0.109,0.371c0.227,0.392,0.727,0.526,1.119,0.3c0.045-0.025,0.086-0.054,0.123-0.086
					c0.086,0.093,0.193,0.167,0.32,0.214c0.426,0.154,0.896-0.064,1.051-0.49c0.018-0.048,0.031-0.096,0.039-0.144
					c0.125,0.017,0.256,0.004,0.383-0.043c0.426-0.154,0.645-0.625,0.49-1.051c-0.018-0.048-0.039-0.093-0.063-0.135
					c0.105-0.068,0.197-0.162,0.266-0.279c0.227-0.393,0.092-0.895-0.301-1.121c-0.043-0.025-0.088-0.046-0.135-0.063
					c0.037-0.12,0.047-0.252,0.023-0.385c-0.078-0.445-0.504-0.744-0.949-0.665c-0.051,0.009-0.098,0.022-0.145,0.039
					c-0.049-0.116-0.125-0.224-0.228-0.311c-0.348-0.291-0.863-0.246-1.156,0.102c-0.031,0.038-0.061,0.079-0.084,0.122
					c-0.111-0.059-0.24-0.091-0.375-0.091c-0.453,0-0.82,0.367-0.82,0.819c0,0.051,0.004,0.101,0.014,0.148
					c-0.123,0.028-0.242,0.085-0.346,0.172C73.885,42.285,73.84,42.802,74.131,43.15z"/>
				<path style="fill-rule:evenodd;clip-rule:evenodd;fill:#FFFFFF;" d="M69.187,40.448c0.033,0.038,0.068,0.073,0.105,0.104
					c-0.076,0.101-0.131,0.221-0.154,0.354c-0.078,0.446,0.219,0.871,0.666,0.95c0.049,0.009,0.098,0.013,0.146,0.013
					c0.006,0.126,0.043,0.253,0.109,0.369c0.227,0.393,0.729,0.527,1.121,0.301c0.043-0.025,0.084-0.054,0.121-0.086
					c0.086,0.093,0.195,0.168,0.322,0.214c0.426,0.154,0.896-0.064,1.051-0.49c0.018-0.048,0.029-0.096,0.039-0.144
					c0.125,0.016,0.256,0.003,0.383-0.044c0.426-0.154,0.645-0.625,0.49-1.051c-0.018-0.048-0.039-0.093-0.064-0.135
					c0.107-0.068,0.199-0.163,0.266-0.279c0.227-0.393,0.094-0.893-0.299-1.12c-0.045-0.025-0.09-0.047-0.135-0.063
					c0.037-0.121,0.047-0.252,0.023-0.385c-0.078-0.446-0.504-0.744-0.951-0.666c-0.049,0.009-0.098,0.022-0.143,0.039
					c-0.049-0.116-0.125-0.224-0.228-0.311c-0.348-0.291-0.865-0.246-1.156,0.102c-0.033,0.038-0.061,0.079-0.084,0.122
					c-0.113-0.058-0.24-0.091-0.375-0.091c-0.453,0-0.82,0.367-0.82,0.82c0,0.051,0.004,0.1,0.014,0.148
					c-0.125,0.027-0.242,0.084-0.346,0.171C68.941,39.583,68.896,40.1,69.187,40.448z"/>
				<path style="fill-rule:evenodd;clip-rule:evenodd;fill:#FFFFFF;" d="M63.703,39.318c0.031,0.039,0.066,0.074,0.106,0.104
					c-0.078,0.101-0.133,0.221-0.154,0.354c-0.08,0.446,0.219,0.872,0.664,0.95c0.051,0.009,0.1,0.013,0.148,0.013
					c0.006,0.126,0.041,0.253,0.109,0.37c0.227,0.393,0.729,0.526,1.121,0.3c0.043-0.024,0.084-0.054,0.121-0.085
					c0.086,0.092,0.193,0.167,0.32,0.213c0.426,0.155,0.896-0.064,1.053-0.49c0.016-0.047,0.029-0.096,0.037-0.144
					c0.125,0.016,0.256,0.003,0.383-0.043c0.426-0.155,0.646-0.626,0.49-1.052c-0.017-0.047-0.037-0.092-0.063-0.135
					c0.105-0.068,0.199-0.162,0.266-0.279c0.227-0.393,0.092-0.894-0.301-1.12c-0.043-0.025-0.088-0.046-0.135-0.063
					c0.037-0.121,0.049-0.252,0.025-0.385c-0.08-0.446-0.506-0.744-0.951-0.666c-0.049,0.009-0.098,0.022-0.143,0.039
					c-0.051-0.116-0.127-0.224-0.23-0.31c-0.346-0.291-0.863-0.246-1.154,0.101c-0.033,0.039-0.061,0.079-0.086,0.122
					c-0.111-0.058-0.24-0.091-0.375-0.091c-0.453,0-0.82,0.367-0.82,0.82c0,0.051,0.006,0.101,0.014,0.148
					c-0.123,0.027-0.242,0.085-0.346,0.171C63.457,38.454,63.41,38.971,63.703,39.318z"/>
			</g>
			<path style="fill-rule:evenodd;clip-rule:evenodd;fill:#FFD8B8;" d="M63.293,82.261c13.973,0,25.369-8.785,25.369-19.556
				c0-10.771-11.396-19.556-25.369-19.556c-13.973,0-25.369,8.785-25.369,19.556C37.924,73.476,49.32,82.261,63.293,82.261z"/>
			<path style="fill-rule:evenodd;clip-rule:evenodd;fill:#FFF4C7;" d="M38.814,57.556c18.938-17.126,41.563-9.306,49.033,0.219
				C84.031,34.971,46.08,30.699,38.814,57.556z"/>
			<g>
				<path style="fill-rule:evenodd;clip-rule:evenodd;fill:#666666;" d="M71.006,64.611c0.775,0,1.41-1.108,1.41-2.467
					c0-1.359-0.635-2.467-1.41-2.467c-0.777,0-1.41,1.107-1.41,2.467C69.596,63.502,70.228,64.611,71.006,64.611z"/>
				<path style="fill-rule:evenodd;clip-rule:evenodd;fill:#666666;" d="M55.582,64.611c0.775,0,1.408-1.108,1.408-2.467
					c0-1.359-0.633-2.467-1.408-2.467c-0.777,0-1.41,1.107-1.41,2.467C54.172,63.502,54.805,64.611,55.582,64.611z"/>
			</g>
			<path style="fill-rule:evenodd;clip-rule:evenodd;fill:#E7B791;" d="M72.168,70.084c-3.619,2.85-13.096,2.739-17.748,0
				C58.975,75.554,68.533,75.745,72.168,70.084z"/>
			<path style="fill-rule:evenodd;clip-rule:evenodd;fill:#F2F8FA;" d="M54.019,121.196l-3.262-21.567
				c-0.059-0.264-0.088-0.535-0.088-0.811c0-2.804,3.082-5.076,6.883-5.076c2.482,0,4.656,0.969,5.867,2.42
				c1.211-1.451,3.387-2.42,5.867-2.42c3.803,0,6.885,2.272,6.885,5.076c0,0.267-0.027,0.529-0.082,0.785l-3.191,21.593H54.019z"/>
			
				<ellipse transform="matrix(-0.2258 -0.9742 0.9742 -0.2258 -14.5996 113.8083)" style="fill-rule:evenodd;clip-rule:evenodd;fill:#FFD8B8;" cx="37.924" cy="62.706" rx="5.761" ry="3.687"/>
			<path style="fill-rule:evenodd;clip-rule:evenodd;fill:#FFF4C7;" d="M43.373,87.93c-4.035-3.163-4.445-8.614-1.084-11.229
				c3.361-2.615,4.49-5.076,2.42-8.998c-2.07-3.923-1.838-6.614,2.107-8.113c3.945-1.498,5.223-2.603,5.689-7.205
				c0.469-4.603,5.758-5.121,10.908-4.932c-6.291-1.424-11.939-2.402-15.328,0.474c-3.389,2.877-5.744,1.42-7.965,6.104
				c-2.219,4.685-1.127,9.35,0.943,13.272c2.07,3.923,2.402,5.833-0.959,8.448C36.744,78.367,36.299,85.051,43.373,87.93z"/>
			
				<ellipse transform="matrix(0.2258 -0.9742 0.9742 0.2258 7.2963 135.125)" style="fill-rule:evenodd;clip-rule:evenodd;fill:#FFD8B8;" cx="88.66" cy="62.972" rx="5.761" ry="3.687"/>
			<g>
				<path style="fill:#CAD3D7;" d="M11.344,130.28c-1.572,1.295-2.432,2.356-2.508,3.194v0.008c-0.057,0.625,0.512,1.33,1.758,2.145
					c2.965,1.938,3.133,4.141,2.098,6.26c-0.783,1.603-2.338,2.939-3.617,3.982c-0.264,0.215-0.283,0.471-0.141,0.746
					c0.445,0.857,1.523,1.854,2.908,2.895l-2.295,3.06c-1.818-1.366-3.287-2.777-4.018-4.186c-1.035-1.99-0.865-3.861,1.131-5.486
					c0.981-0.799,2.16-1.799,2.596-2.692c0.186-0.377,0.061-0.831-0.764-1.369c-2.543-1.663-3.66-3.544-3.467-5.699h0.002
					c0.178-1.94,1.506-3.852,3.887-5.811L11.344,130.28z"/>
				<path style="fill:#CAD3D7;" d="M17.045,130.284c-0.769,1.882-1.021,3.226-0.688,4.006c0.246,0.576,1.076,0.928,2.553,1.054
					c3.537,0.304,4.731,2.167,4.822,4.527c0.068,1.778-0.666,3.69-1.297,5.213c-0.133,0.318-0.031,0.554,0.225,0.729
					c0.785,0.535,2.209,0.9,3.932,1.163l-0.568,3.795c-2.238-0.341-4.197-0.891-5.523-1.794c-1.854-1.263-2.592-2.989-1.606-5.362
					c0.486-1.17,1.051-2.612,1.014-3.608c-0.018-0.415-0.34-0.753-1.313-0.837c-3.035-0.26-4.914-1.388-5.764-3.379
					c-0.764-1.786-0.498-4.101,0.674-6.962L17.045,130.284z"/>
			</g>
			<path style="fill-rule:evenodd;clip-rule:evenodd;fill:#F2F8FA;" d="M27.283,119.979c-0.188,0.225-0.393,0.427-0.609,0.607
				c0.443,0.582,0.758,1.276,0.893,2.047c0.455,2.583-1.269,5.045-3.852,5.501c-0.289,0.051-0.576,0.074-0.857,0.072
				c-0.035,0.732-0.24,1.465-0.633,2.143c-1.311,2.271-4.215,3.049-6.486,1.737c-0.254-0.145-0.488-0.313-0.703-0.495
				c-0.498,0.537-1.127,0.967-1.861,1.234c-2.465,0.897-5.189-0.373-6.086-2.838c-0.1-0.275-0.174-0.554-0.221-0.832
				c-0.727,0.092-1.484,0.018-2.219-0.25c-2.465-0.897-3.736-3.622-2.838-6.087c0.1-0.274,0.223-0.535,0.365-0.779
				c-0.615-0.396-1.149-0.94-1.539-1.618c-1.311-2.271-0.533-5.175,1.738-6.486c0.254-0.146,0.516-0.267,0.781-0.361
				c-0.217-0.699-0.275-1.459-0.139-2.229c0.455-2.584,2.918-4.308,5.5-3.853c0.289,0.051,0.566,0.127,0.832,0.226
				c0.283-0.675,0.726-1.294,1.326-1.797c2.008-1.686,5.004-1.424,6.689,0.585c0.188,0.225,0.352,0.461,0.492,0.707
				c0.65-0.335,1.389-0.524,2.17-0.524c2.623,0,4.748,2.126,4.748,4.749c0,0.292-0.025,0.579-0.076,0.857
				c0.713,0.161,1.4,0.491,2,0.994C28.707,114.975,28.969,117.97,27.283,119.979z"/>
			<path style="fill-rule:evenodd;clip-rule:evenodd;fill:#F2F8FA;" d="M63.42,118.734c27.086,0,12.801,23.426,27.602,27.846
				c9.926,2.965,12.15,10.473,9.644,21.549c-1.543,6.827,0.41,8.602,8.404,13.801c5.619,3.655,10.768,13.319,1.412,18.238
				c-9.357,4.921-85.781,4.193-94.123,0c-8.344-4.191-5.377-14.583,0.244-18.238c7.992-5.199,10.65-7.178,10.301-14.229
				c-0.498-10.007,2.094-18.156,9.645-21.549C50.81,139.747,36.336,118.734,63.42,118.734z"/>
			<path style="fill-rule:evenodd;clip-rule:evenodd;fill:#F2F8FA;" d="M63.418,118.734c20.047,0,9.475,23.426,20.43,27.846
				c7.346,2.965,8.992,10.473,7.137,21.549c-1.143,6.827,0.305,8.602,6.221,13.801c4.16,3.655,7.969,13.319,1.045,18.238
				c-6.926,4.921-63.488,4.193-69.664,0c-6.174-4.191-3.979-14.583,0.182-18.238c5.916-5.199,7.883-7.178,7.623-14.229
				c-0.367-10.007,1.549-18.156,7.139-21.549C54.086,139.747,43.371,118.734,63.418,118.734z"/>
			<path style="fill-rule:evenodd;clip-rule:evenodd;fill:#F2F8FA;" d="M63.416,118.734c16.254,0,7.682,23.426,16.564,27.846
				c5.955,2.965,7.291,10.473,5.787,21.549c-0.928,6.827,0.246,8.602,5.043,13.801c3.371,3.655,6.461,13.319,0.846,18.238
				c-5.613,4.921-51.475,4.193-56.48,0c-5.006-4.191-3.227-14.583,0.146-18.238c4.797-5.199,6.393-7.178,6.182-14.229
				c-0.299-10.007,1.256-18.156,5.787-21.549C55.85,139.747,47.164,118.734,63.416,118.734z"/>
			<path style="fill-rule:evenodd;clip-rule:evenodd;fill:#F2F8FA;" d="M63.414,118.734c9.59,0,4.531,23.426,9.771,27.846
				c3.514,2.965,4.303,10.473,3.416,21.549c-0.549,6.827,0.145,8.602,2.975,13.801c1.99,3.655,3.813,13.319,0.5,18.238
				c-3.312,4.921-30.369,4.193-33.322,0c-2.953-4.191-1.904-14.583,0.086-18.238c2.83-5.199,3.771-7.178,3.646-14.229
				c-0.176-10.007,0.742-18.156,3.414-21.549C58.951,139.747,53.826,118.734,63.414,118.734z"/>
			<path style="fill-rule:evenodd;clip-rule:evenodd;fill:#F2F8FA;" d="M63.414,118.734c5.379,0,2.541,23.426,5.483,27.846
				c1.971,2.965,2.412,10.473,1.914,21.549c-0.307,6.827,0.082,8.602,1.67,13.801c1.117,3.655,2.139,13.319,0.279,18.238
				c-1.857,4.921-17.037,4.193-18.695,0c-1.656-4.191-1.068-14.583,0.049-18.238c1.588-5.199,2.115-7.178,2.047-14.229
				c-0.1-10.007,0.416-18.156,1.916-21.549C60.908,139.747,58.033,118.734,63.414,118.734z"/>
			<g>
				<circle style="fill-rule:evenodd;clip-rule:evenodd;fill:#FFD8B8;" cx="57.31" cy="87.872" r="0.59"/>
				<circle style="fill-rule:evenodd;clip-rule:evenodd;fill:#FFD8B8;" cx="60.355" cy="87.872" r="0.59"/>
				<circle style="fill-rule:evenodd;clip-rule:evenodd;fill:#FFD8B8;" cx="63.4" cy="87.872" r="0.59"/>
				<circle style="fill-rule:evenodd;clip-rule:evenodd;fill:#FFD8B8;" cx="66.443" cy="87.872" r="0.59"/>
				<circle style="fill-rule:evenodd;clip-rule:evenodd;fill:#FFD8B8;" cx="69.488" cy="87.872" r="0.59"/>
				<circle style="fill-rule:evenodd;clip-rule:evenodd;fill:#FFD8B8;" cx="51.223" cy="87.872" r="0.59"/>
				<circle style="fill-rule:evenodd;clip-rule:evenodd;fill:#FFD8B8;" cx="54.266" cy="87.872" r="0.59"/>
				<circle style="fill-rule:evenodd;clip-rule:evenodd;fill:#FFD8B8;" cx="72.533" cy="87.872" r="0.59"/>
				<path style="fill-rule:evenodd;clip-rule:evenodd;fill:#FFD8B8;" d="M76.113,87.627c0.035,0.074,0.055,0.158,0.055,0.246
					c0,0.326-0.264,0.59-0.59,0.59c-0.326,0-0.592-0.264-0.592-0.59c0-0.315,0.248-0.573,0.559-0.59
					C75.742,87.394,75.932,87.508,76.113,87.627z"/>
				<circle style="fill-rule:evenodd;clip-rule:evenodd;fill:#FFD8B8;" cx="55.789" cy="90.042" r="0.59"/>
				<circle style="fill-rule:evenodd;clip-rule:evenodd;fill:#FFD8B8;" cx="58.834" cy="90.042" r="0.59"/>
				<circle style="fill-rule:evenodd;clip-rule:evenodd;fill:#FFD8B8;" cx="61.877" cy="90.042" r="0.59"/>
				<circle style="fill-rule:evenodd;clip-rule:evenodd;fill:#FFD8B8;" cx="64.922" cy="90.042" r="0.59"/>
				<circle style="fill-rule:evenodd;clip-rule:evenodd;fill:#FFD8B8;" cx="67.967" cy="90.042" r="0.59"/>
				<path style="fill-rule:evenodd;clip-rule:evenodd;fill:#FFD8B8;" d="M49.736,89.453c0.309,0.019,0.555,0.275,0.555,0.589
					c0,0.267-0.178,0.492-0.42,0.565C49.832,90.22,49.789,89.835,49.736,89.453z"/>
				<circle style="fill-rule:evenodd;clip-rule:evenodd;fill:#FFD8B8;" cx="52.744" cy="90.042" r="0.59"/>
				<circle style="fill-rule:evenodd;clip-rule:evenodd;fill:#FFD8B8;" cx="71.012" cy="90.042" r="0.59"/>
				<circle style="fill-rule:evenodd;clip-rule:evenodd;fill:#FFD8B8;" cx="74.055" cy="90.042" r="0.59"/>
				<path style="fill-rule:evenodd;clip-rule:evenodd;fill:#FFD8B8;" d="M77.1,89.452l0.053,0.002
					c-0.061,0.389-0.113,0.778-0.158,1.169c-0.275-0.05-0.484-0.291-0.484-0.581C76.51,89.715,76.773,89.452,77.1,89.452z"/>
				<path style="fill-rule:evenodd;clip-rule:evenodd;fill:#FFD8B8;" d="M55.998,85.138c0.223,0.085,0.381,0.301,0.381,0.553
					c0,0.326-0.264,0.59-0.59,0.59c-0.326,0-0.59-0.264-0.59-0.59c0-0.078,0.016-0.154,0.043-0.223L55.998,85.138z"/>
				<circle style="fill-rule:evenodd;clip-rule:evenodd;fill:#FFD8B8;" cx="58.834" cy="85.691" r="0.59"/>
				<circle style="fill-rule:evenodd;clip-rule:evenodd;fill:#FFD8B8;" cx="61.877" cy="85.691" r="0.59"/>
				<circle style="fill-rule:evenodd;clip-rule:evenodd;fill:#FFD8B8;" cx="64.922" cy="85.691" r="0.59"/>
				<circle style="fill-rule:evenodd;clip-rule:evenodd;fill:#FFD8B8;" cx="67.967" cy="85.691" r="0.59"/>
				<path style="fill-rule:evenodd;clip-rule:evenodd;fill:#FFD8B8;" d="M71.568,85.499c0.021,0.061,0.033,0.125,0.033,0.191
					c0,0.326-0.266,0.59-0.59,0.59c-0.326,0-0.592-0.264-0.592-0.59c0-0.234,0.137-0.437,0.336-0.532
					C71.023,85.274,71.295,85.387,71.568,85.499z"/>
				<path style="fill-rule:evenodd;clip-rule:evenodd;fill:#FFD8B8;" d="M57.31,91.781c0.326,0,0.59,0.264,0.59,0.59
					c0,0.232-0.133,0.434-0.328,0.53c-0.127-0.005-0.254-0.008-0.383-0.008l-0.15,0.001c-0.189-0.098-0.318-0.295-0.318-0.523
					C56.721,92.044,56.984,91.781,57.31,91.781z"/>
				<circle style="fill-rule:evenodd;clip-rule:evenodd;fill:#FFD8B8;" cx="60.355" cy="92.371" r="0.59"/>
				<circle style="fill-rule:evenodd;clip-rule:evenodd;fill:#FFD8B8;" cx="63.4" cy="92.371" r="0.59"/>
				<circle style="fill-rule:evenodd;clip-rule:evenodd;fill:#FFD8B8;" cx="66.443" cy="92.371" r="0.59"/>
				<path style="fill-rule:evenodd;clip-rule:evenodd;fill:#FFD8B8;" d="M69.488,91.781c0.326,0,0.59,0.264,0.59,0.59
					c0,0.227-0.129,0.425-0.316,0.523l-0.111-0.001c-0.141,0-0.281,0.003-0.42,0.009c-0.195-0.096-0.332-0.297-0.332-0.531
					C68.898,92.044,69.162,91.781,69.488,91.781z"/>
				<circle style="fill-rule:evenodd;clip-rule:evenodd;fill:#FFD8B8;" cx="51.223" cy="92.371" r="0.59"/>
				<circle style="fill-rule:evenodd;clip-rule:evenodd;fill:#FFD8B8;" cx="54.266" cy="92.371" r="0.59"/>
				<circle style="fill-rule:evenodd;clip-rule:evenodd;fill:#FFD8B8;" cx="72.533" cy="92.371" r="0.59"/>
				<circle style="fill-rule:evenodd;clip-rule:evenodd;fill:#FFD8B8;" cx="75.578" cy="92.371" r="0.59"/>
				<path style="fill-rule:evenodd;clip-rule:evenodd;fill:#FFD8B8;" d="M61.877,93.95c0.326,0,0.592,0.265,0.592,0.591
					l-0.002,0.014c-0.258-0.199-0.537-0.384-0.834-0.551C61.707,93.969,61.791,93.95,61.877,93.95z"/>
				<path style="fill-rule:evenodd;clip-rule:evenodd;fill:#FFD8B8;" d="M64.922,93.95c0.096,0,0.188,0.023,0.268,0.063
					c-0.305,0.174-0.592,0.365-0.855,0.572l-0.002-0.045C64.332,94.214,64.596,93.95,64.922,93.95z"/>
				<path style="fill-rule:evenodd;clip-rule:evenodd;fill:#FFD8B8;" d="M50.129,94.134c0.1,0.105,0.162,0.249,0.162,0.406
					c0,0.127-0.041,0.246-0.111,0.342C50.162,94.633,50.144,94.384,50.129,94.134z"/>
				<path style="fill-rule:evenodd;clip-rule:evenodd;fill:#FFD8B8;" d="M52.744,93.95c0.029,0,0.059,0.003,0.086,0.007
					c-0.227,0.124-0.441,0.258-0.646,0.4C52.26,94.121,52.482,93.95,52.744,93.95z"/>
				<path style="fill-rule:evenodd;clip-rule:evenodd;fill:#FFD8B8;" d="M74.055,93.95c0.248,0,0.461,0.153,0.547,0.369
					c-0.189-0.13-0.391-0.253-0.6-0.366L74.055,93.95z"/>
				<path style="fill-rule:evenodd;clip-rule:evenodd;fill:#FFD8B8;" d="M76.656,94.929c-0.092-0.104-0.146-0.24-0.146-0.389
					c0-0.18,0.078-0.34,0.205-0.448C76.695,94.372,76.676,94.65,76.656,94.929z"/>
			</g>
			<path style="fill-rule:evenodd;clip-rule:evenodd;fill:#FFF4C7;" d="M83.453,87.93c4.037-3.163,4.447-8.614,1.086-11.229
				c-3.363-2.615-4.49-5.076-2.42-8.998c2.07-3.923,1.836-6.614-2.109-8.113c-3.943-1.498-5.221-2.603-5.689-7.205
				c-0.469-4.603-5.756-5.121-10.906-4.932c6.289-1.424,11.939-2.402,15.328,0.474c3.389,2.877,5.744,1.42,7.963,6.104
				c2.221,4.685,1.127,9.35-0.941,13.272c-2.07,3.923-2.404,5.833,0.959,8.448C90.084,78.367,90.527,85.051,83.453,87.93z"/>
		</g>
		<path style="fill-rule:evenodd;clip-rule:evenodd;fill:#1A1A1A;" d="M144.01,82.441c-4.52,11.761-15.27,27.031-31.371,37.719
			l2.537,3.65c13.697-6.672,26.434-17.316,32.377-25.461C150.609,94.159,148.207,84.483,144.01,82.441z"/>
		<path style="fill-rule:evenodd;clip-rule:evenodd;fill:#1A1A1A;" d="M173.068,87.658c12.08,3.578,31.555,17.059,43.479,32.265
			l3.439-2.816c-7.732-13.128-22.752-28.954-31.338-34.234C184.228,80.154,174.773,83.313,173.068,87.658z"/>
		<g>
			<path style="fill-rule:evenodd;clip-rule:evenodd;fill:#323232;" d="M168.707,204.303c-1.121-24.093-2.242-48.186-3.365-72.278
				c5.189,0,10.381,0,15.57,0c-1.082,24.093-2.166,48.186-3.248,72.278C174.678,204.303,171.693,204.303,168.707,204.303z"/>
			<path style="fill-rule:evenodd;clip-rule:evenodd;fill:#323232;" d="M154.111,204.303c-1.121-24.093-2.242-48.186-3.363-72.278
				c5.188,0,10.379,0,15.568,0c-1.082,24.093-2.166,48.186-3.248,72.278C160.084,204.303,157.098,204.303,154.111,204.303z"/>
		</g>
		<rect x="149.432" y="132.936" style="fill-rule:evenodd;clip-rule:evenodd;fill:#1A1A1A;" width="32.598" height="3.379"/>
		<path style="fill-rule:evenodd;clip-rule:evenodd;fill:#323232;" d="M182.029,134.533l5.668-52.231l-12.723-5.559h-18.291
			c-4.242,1.853-10.141,3.374-12.723,5.559l5.471,52.231H182.029z"/>
		<g>
			<path style="fill-rule:evenodd;clip-rule:evenodd;fill:#FFFFFF;" d="M183.609,94.774c-0.035,0.052-0.074,0.1-0.115,0.143
				c0.084,0.136,0.143,0.299,0.168,0.479c0.086,0.606-0.238,1.184-0.723,1.291c-0.055,0.012-0.107,0.018-0.16,0.017
				c-0.008,0.171-0.047,0.344-0.119,0.503c-0.246,0.532-0.791,0.715-1.217,0.407c-0.047-0.034-0.092-0.073-0.133-0.116
				c-0.092,0.126-0.211,0.227-0.348,0.289c-0.463,0.211-0.975-0.088-1.143-0.665c-0.02-0.066-0.033-0.13-0.041-0.195
				c-0.137,0.021-0.279,0.004-0.416-0.059c-0.463-0.211-0.701-0.85-0.533-1.428c0.02-0.064,0.041-0.126,0.068-0.183
				c-0.115-0.094-0.215-0.221-0.289-0.38c-0.246-0.533-0.1-1.214,0.326-1.522c0.049-0.033,0.098-0.062,0.146-0.084
				c-0.039-0.164-0.051-0.342-0.025-0.523c0.086-0.605,0.547-1.01,1.031-0.902c0.055,0.012,0.107,0.029,0.156,0.052
				c0.053-0.158,0.137-0.304,0.25-0.421c0.377-0.395,0.938-0.334,1.254,0.137c0.035,0.053,0.066,0.108,0.092,0.166
				c0.123-0.078,0.262-0.123,0.408-0.123c0.492,0,0.891,0.499,0.891,1.114c0,0.068-0.006,0.136-0.014,0.201
				c0.133,0.038,0.262,0.115,0.375,0.233C183.877,93.6,183.926,94.302,183.609,94.774z"/>
			<rect x="177.943" y="94.535" style="fill-rule:evenodd;clip-rule:evenodd;fill:#323232;" width="6.42" height="3.703"/>
		</g>
		<polygon style="fill-rule:evenodd;clip-rule:evenodd;fill:#FFFFFF;" points="156.684,76.743 165.822,120.744 174.975,76.743 		"/>
		<rect x="164.205" y="80.376" style="fill-rule:evenodd;clip-rule:evenodd;fill:#E6E6E6;" width="0.52" height="36.505"/>
		<g>
			<polygon style="fill-rule:evenodd;clip-rule:evenodd;fill:#1A1A1A;" points="156.684,76.743 148.103,86.368 158.025,94.872 
				150.937,99.48 165.822,120.744 			"/>
			<polygon style="fill-rule:evenodd;clip-rule:evenodd;fill:#1A1A1A;" points="174.975,76.743 183.543,86.368 173.619,94.872 
				180.707,99.48 165.822,120.744 			"/>
		</g>
		<polygon style="fill-rule:evenodd;clip-rule:evenodd;fill:#1A1A1A;" points="164.701,134.533 167.182,134.533 167.182,118.802 
			165.822,120.091 164.701,119.029 		"/>
		<rect x="160.125" y="63.151" style="fill-rule:evenodd;clip-rule:evenodd;fill:#E7B791;" width="11.633" height="16.416"/>
		<polygon style="fill-rule:evenodd;clip-rule:evenodd;fill:#FFFFFF;" points="156.684,76.743 160.338,72.781 165.941,76.743 
			158.351,84.76 		"/>
		<polygon style="fill-rule:evenodd;clip-rule:evenodd;fill:#FFFFFF;" points="174.975,76.743 171.209,72.432 165.941,76.743 
			173.348,84.76 		"/>
		<polygon style="fill-rule:evenodd;clip-rule:evenodd;fill:#E6E6E6;" points="158.351,84.76 165.941,80.752 173.348,84.76 
			165.941,76.743 		"/>
		<g>
			<g>
				<path style="fill-rule:evenodd;clip-rule:evenodd;fill:#212E36;" d="M167.098,79.886c1.328-0.702,4.914-3.291,5.643-2.633
					c1.006,0.905,1.006,6.092,0,6.998c-0.729,0.657-4.314-1.931-5.643-2.633C166.717,81.16,166.717,80.345,167.098,79.886z"/>
				<path style="fill-rule:evenodd;clip-rule:evenodd;fill:#212E36;" d="M164.601,79.886c-1.328-0.702-4.914-3.291-5.645-2.633
					c-1.004,0.905-1.004,6.092,0,6.998c0.73,0.657,4.316-1.931,5.645-2.633C164.982,81.16,164.982,80.345,164.601,79.886z"/>
			</g>
			<path style="fill-rule:evenodd;clip-rule:evenodd;fill:#405059;" d="M164.871,79.48h1.957c0.338,0,0.615,0.276,0.615,0.614v1.316
				c0,0.338-0.277,0.614-0.615,0.614h-1.957c-0.338,0-0.615-0.276-0.615-0.614v-1.316C164.256,79.756,164.533,79.48,164.871,79.48z"
				/>
		</g>
		<path style="fill-rule:evenodd;clip-rule:evenodd;fill:#1A1A1A;" d="M154.18,208.768c4.895,0,8.889-2.006,8.889-4.466
			c0-2.459-3.994-4.465-8.889-4.465c-4.896,0-8.891,2.006-8.891,4.465C145.289,206.762,149.283,208.768,154.18,208.768z"/>
		<path style="fill-rule:evenodd;clip-rule:evenodd;fill:#1A1A1A;" d="M177.598,208.768c4.896,0,8.889-2.006,8.889-4.466
			c0-2.459-3.992-4.465-8.889-4.465c-4.897,0-8.891,2.006-8.891,4.465C168.707,206.762,172.701,208.768,177.598,208.768z"/>
		<path style="fill-rule:evenodd;clip-rule:evenodd;fill:#FFD8B8;" d="M224.176,117.259c1.223,1.078,1.066,1.986,0.049,2.529
			c1.998,1.353,2.385,3.883,1.545,4.832c-1.631,1.849-4.99,1.55-7.502-0.666c-2.512-2.218-3.225-5.514-1.594-7.361
			C218.307,114.744,221.664,115.042,224.176,117.259z"/>
		<path style="fill-rule:evenodd;clip-rule:evenodd;fill:#FFD8B8;" d="M107.166,120.863c-1.221,1.079-1.064,1.986-0.047,2.529
			c-2,1.355-2.385,3.883-1.547,4.832c1.633,1.85,4.992,1.551,7.504-0.666c2.512-2.217,3.225-5.513,1.594-7.361
			C113.037,118.347,109.678,118.646,107.166,120.863z"/>
		<path style="fill-rule:evenodd;clip-rule:evenodd;fill:#FFD8B8;" d="M165.941,74.02c14.811,0,26.891-9.311,26.891-20.727
			s-12.08-20.728-26.891-20.728c-14.811,0-26.889,9.312-26.889,20.728S151.131,74.02,165.941,74.02z"/>
		<g>
			<path style="fill-rule:evenodd;clip-rule:evenodd;fill:#666666;" d="M157.768,53.904c0.822,0,1.494-1.175,1.494-2.615
				c0-1.44-0.672-2.614-1.494-2.614c-0.822,0-1.494,1.175-1.494,2.614C156.273,52.729,156.945,53.904,157.768,53.904z"/>
			<path style="fill-rule:evenodd;clip-rule:evenodd;fill:#666666;" d="M174.115,53.904c0.824,0,1.496-1.175,1.496-2.615
				c0-1.44-0.672-2.614-1.496-2.614c-0.822,0-1.492,1.175-1.492,2.614C172.623,52.729,173.293,53.904,174.115,53.904z"/>
		</g>
		<path style="fill-rule:evenodd;clip-rule:evenodd;fill:#FFF4C7;" d="M183.123,38.439c-11.357-3.173-39.053-9.013-39.389,16.766
			c-0.012,0.998-3.566-6.317-4.26-5.502c2.314-12.27,17.516-19.155,30.439-17.371C174.684,32.991,179.041,34.246,183.123,38.439z"/>
		<path style="fill-rule:evenodd;clip-rule:evenodd;fill:#E7B791;" d="M174.816,60.997c-3.869,0.749-13.336,0.683-17.748,0
			C161.623,66.468,171.182,66.658,174.816,60.997z"/>
		<path style="fill-rule:evenodd;clip-rule:evenodd;fill:#FFF4C7;" d="M191.648,47.872c-15.965-17.737-43.85,3.829-45.348-24.455
			c6.896,6.9,9.334,8.833,19.1,8.544C172.416,31.752,187.705,32.676,191.648,47.872z"/>
		<path style="fill-rule:evenodd;clip-rule:evenodd;fill:#FFF4C7;" d="M191.648,51.089c-0.324-1.051-3.34,6.591-3.453,2.646
			c-0.748-25.93-40.725-7.845-34.131-36.317c4.83,8.476,5.771,11.89,15.371,13.849C179.215,33.262,191.225,36.339,191.648,51.089z"
			/>
		
			<ellipse transform="matrix(-0.2256 -0.9742 0.9742 -0.2256 122.6125 196.6846)" style="fill-rule:evenodd;clip-rule:evenodd;fill:#FFD8B8;" cx="139.476" cy="49.612" rx="5.761" ry="3.688"/>
		
			<ellipse transform="matrix(0.2258 -0.9742 0.9742 0.2258 98.9667 228.5958)" style="fill-rule:evenodd;clip-rule:evenodd;fill:#FFD8B8;" cx="193.303" cy="52.034" rx="5.761" ry="3.687"/>
	</g>
</g>
<g>
</g>
<g>
</g>
<g>
</g>
<g>
</g>
<g>
</g>
<g>
</g>
<g>
</g>
<g>
</g>
<g>
</g>
<g>
</g>
<g>
</g>
<g>
</g>
<g>
</g>
<g>
</g>
<g>
</g>
</svg>
