<?xml version="1.0" encoding="iso-8859-1"?>
<!-- Generator: Adobe Illustrator 18.0.0, SVG Export Plug-In . SVG Version: 6.00 Build 0)  -->
<!DOCTYPE svg PUBLIC "-//W3C//DTD SVG 1.1//EN" "http://www.w3.org/Graphics/SVG/1.1/DTD/svg11.dtd">
<svg version="1.1" id="Capa_1" xmlns="http://www.w3.org/2000/svg" xmlns:xlink="http://www.w3.org/1999/xlink" x="0px" y="0px"
	 viewBox="0 0 184.363 184.363" style="enable-background:new 0 0 184.363 184.363;" xml:space="preserve">
<g>
	<g>
		<g>
			<g>
				<path style="fill-rule:evenodd;clip-rule:evenodd;fill:#D9E0E2;" d="M61.962,5.869c21.717-5.68,49.133,26.525,62.812,72.803
					c-8.047,15.158-20.373,26.188-35.863,30.24c-15.489,4.051-31.638,0.468-46.076-8.811C32.107,53.052,40.245,11.549,61.962,5.869z
					"/>
				<path style="fill-rule:evenodd;clip-rule:evenodd;fill:#FFD8B8;" d="M77.065,61.473C68.641,69.858,58.521,89.78,55.44,107.75
					l-4.117-0.796c0.532-14.365,5.903-34.235,10.664-42.47C64.436,60.248,73.701,58.63,77.065,61.473z"/>
				
					<rect x="69.563" y="49.045" transform="matrix(-0.9675 0.253 -0.253 -0.9675 162.7929 93.5711)" style="fill-rule:evenodd;clip-rule:evenodd;fill:#E7B791;" width="11.633" height="16.417"/>
				<g>
					<path style="fill-rule:evenodd;clip-rule:evenodd;fill:#E7B791;" d="M74.81,180.151c1.059-22.73,2.116-45.46,3.175-68.19
						c-4.896,0-9.792,0-14.687,0c1.02,22.73,2.042,45.46,3.063,68.19C69.177,180.151,71.993,180.151,74.81,180.151z"/>
					<path style="fill-rule:evenodd;clip-rule:evenodd;fill:#E7B791;" d="M88.58,180.151c1.059-22.73,2.116-45.46,3.175-68.19
						c-4.896,0-9.793,0-14.688,0c1.021,22.73,2.043,45.46,3.063,68.19C82.946,180.151,85.764,180.151,88.58,180.151z"/>
				</g>
				<path style="fill-rule:evenodd;clip-rule:evenodd;fill:#FFFFFF;" d="M88.517,184.363c4.62,0,8.388-1.893,8.388-4.213
					s-3.768-4.212-8.388-4.212c-4.619,0-8.387,1.892-8.387,4.212S83.898,184.363,88.517,184.363z"/>
				<path style="fill-rule:evenodd;clip-rule:evenodd;fill:#FFFFFF;" d="M66.423,184.363c4.62,0,8.388-1.893,8.388-4.213
					s-3.768-4.212-8.388-4.212c-4.619,0-8.387,1.892-8.387,4.212S61.804,184.363,66.423,184.363z"/>
				
					<ellipse transform="matrix(-0.253 -0.9675 0.9675 -0.253 58.9741 97.8762)" style="fill-rule:evenodd;clip-rule:evenodd;fill:#FFF4C7;" cx="67.273" cy="26.171" rx="10.88" ry="19.508"/>
				
					<ellipse transform="matrix(-0.253 -0.9675 0.9675 -0.253 62.334 89.4485)" style="fill-rule:evenodd;clip-rule:evenodd;fill:#FFF4C7;" cx="65.699" cy="20.66" rx="12.464" ry="16.588"/>
				<g>
					<path style="fill-rule:evenodd;clip-rule:evenodd;fill:#FFFFFF;" d="M54.478,21.566c-0.021,0.045-0.047,0.088-0.076,0.128
						c0.1,0.078,0.184,0.18,0.239,0.303c0.188,0.412,0.009,0.898-0.403,1.088c-0.046,0.021-0.093,0.037-0.141,0.05
						c0.026,0.123,0.024,0.255-0.012,0.385c-0.119,0.438-0.571,0.693-1.008,0.574c-0.049-0.014-0.096-0.031-0.139-0.052
						c-0.061,0.111-0.147,0.211-0.258,0.287c-0.372,0.258-0.883,0.165-1.141-0.208c-0.028-0.042-0.054-0.085-0.073-0.13
						c-0.117,0.048-0.247,0.068-0.382,0.056c-0.451-0.042-0.782-0.441-0.74-0.894c0.005-0.05,0.014-0.099,0.027-0.145
						c-0.12-0.039-0.233-0.108-0.328-0.203c-0.318-0.322-0.315-0.842,0.007-1.16c0.036-0.035,0.074-0.066,0.114-0.095
						c-0.066-0.106-0.109-0.231-0.12-0.366c-0.037-0.451,0.3-0.848,0.751-0.885c0.05-0.004,0.1-0.003,0.148,0.002
						c0.019-0.125,0.065-0.248,0.144-0.357c0.262-0.37,0.773-0.457,1.144-0.195c0.041,0.029,0.079,0.061,0.112,0.097
						c0.095-0.085,0.21-0.149,0.34-0.183c0.438-0.114,0.887,0.147,1.001,0.586c0.014,0.049,0.021,0.098,0.025,0.146
						c0.126-0.004,0.255,0.021,0.377,0.079C54.497,20.668,54.671,21.156,54.478,21.566z"/>
					<path style="fill-rule:evenodd;clip-rule:evenodd;fill:#FFFFFF;" d="M58.577,17.701c-0.021,0.045-0.047,0.088-0.075,0.128
						c0.099,0.078,0.182,0.18,0.238,0.303c0.189,0.412,0.009,0.898-0.403,1.088c-0.046,0.02-0.093,0.037-0.141,0.05
						c0.026,0.123,0.024,0.255-0.012,0.385c-0.12,0.438-0.57,0.694-1.008,0.574c-0.049-0.014-0.096-0.031-0.14-0.052
						c-0.06,0.111-0.146,0.211-0.257,0.288c-0.372,0.257-0.883,0.164-1.141-0.209c-0.029-0.041-0.053-0.085-0.073-0.129
						c-0.117,0.047-0.247,0.067-0.382,0.055c-0.451-0.042-0.782-0.441-0.74-0.893c0.005-0.051,0.014-0.1,0.027-0.146
						c-0.12-0.039-0.233-0.107-0.328-0.203c-0.318-0.322-0.315-0.842,0.007-1.16c0.036-0.035,0.074-0.066,0.115-0.094
						c-0.067-0.107-0.11-0.232-0.121-0.367c-0.036-0.451,0.3-0.848,0.751-0.884c0.051-0.004,0.1-0.004,0.148,0.001
						c0.019-0.125,0.065-0.248,0.144-0.357c0.262-0.37,0.773-0.457,1.144-0.195c0.041,0.029,0.079,0.062,0.113,0.097
						c0.094-0.084,0.209-0.147,0.34-0.183c0.438-0.114,0.886,0.148,1,0.586c0.014,0.049,0.021,0.099,0.025,0.146
						c0.126-0.004,0.255,0.022,0.377,0.079C58.597,16.803,58.771,17.291,58.577,17.701z"/>
					<path style="fill-rule:evenodd;clip-rule:evenodd;fill:#FFFFFF;" d="M63.598,15.221c-0.021,0.045-0.047,0.088-0.075,0.128
						c0.1,0.077,0.182,0.18,0.238,0.303c0.189,0.411,0.009,0.898-0.403,1.087c-0.046,0.022-0.093,0.038-0.14,0.05
						c0.025,0.124,0.023,0.256-0.012,0.386c-0.12,0.438-0.571,0.694-1.009,0.574c-0.048-0.014-0.095-0.031-0.139-0.053
						c-0.06,0.111-0.146,0.212-0.257,0.289c-0.373,0.257-0.884,0.164-1.142-0.209c-0.028-0.041-0.053-0.085-0.073-0.129
						c-0.117,0.047-0.247,0.067-0.382,0.055c-0.45-0.043-0.782-0.441-0.74-0.894c0.005-0.05,0.014-0.099,0.027-0.146
						c-0.12-0.039-0.233-0.108-0.328-0.203c-0.318-0.322-0.315-0.842,0.007-1.16c0.036-0.035,0.074-0.066,0.115-0.095
						c-0.067-0.107-0.109-0.231-0.121-0.366c-0.036-0.451,0.3-0.848,0.751-0.884c0.051-0.005,0.101-0.004,0.15,0.001
						c0.017-0.125,0.064-0.248,0.142-0.358c0.262-0.369,0.774-0.456,1.144-0.194c0.041,0.029,0.079,0.061,0.113,0.097
						c0.094-0.085,0.209-0.149,0.34-0.183c0.438-0.114,0.886,0.148,1.001,0.586c0.013,0.049,0.021,0.098,0.024,0.146
						c0.126-0.004,0.256,0.021,0.377,0.079C63.617,14.322,63.792,14.811,63.598,15.221z"/>
					<path style="fill-rule:evenodd;clip-rule:evenodd;fill:#FFFFFF;" d="M75.689,16.019c0.041,0.029,0.084,0.054,0.128,0.075
						c-0.048,0.116-0.07,0.246-0.059,0.381c0.037,0.451,0.433,0.787,0.884,0.751c0.051-0.005,0.1-0.013,0.147-0.025
						c0.037,0.12,0.104,0.234,0.198,0.33c0.319,0.322,0.838,0.325,1.16,0.007c0.036-0.035,0.068-0.073,0.097-0.113
						c0.106,0.067,0.229,0.112,0.364,0.125c0.451,0.042,0.851-0.289,0.893-0.74c0.005-0.051,0.005-0.101,0.001-0.149
						c0.125-0.016,0.249-0.061,0.36-0.139c0.372-0.257,0.466-0.769,0.208-1.141c-0.029-0.042-0.061-0.079-0.096-0.114
						c0.086-0.094,0.151-0.207,0.187-0.338c0.12-0.437-0.137-0.888-0.573-1.008c-0.05-0.014-0.098-0.022-0.146-0.026
						c0.006-0.126-0.019-0.256-0.074-0.378c-0.189-0.412-0.676-0.593-1.088-0.404c-0.046,0.021-0.089,0.047-0.129,0.074
						c-0.077-0.1-0.179-0.185-0.301-0.242c-0.409-0.193-0.897-0.019-1.092,0.391c-0.021,0.045-0.039,0.092-0.052,0.14
						c-0.123-0.028-0.255-0.026-0.385,0.007c-0.438,0.115-0.701,0.563-0.587,1.001c0.014,0.049,0.03,0.096,0.051,0.14
						c-0.112,0.059-0.213,0.144-0.291,0.254C75.232,15.244,75.318,15.757,75.689,16.019z"/>
					<path style="fill-rule:evenodd;clip-rule:evenodd;fill:#FFFFFF;" d="M70.221,14.655c0.042,0.029,0.085,0.055,0.129,0.075
						c-0.048,0.116-0.07,0.246-0.06,0.381c0.037,0.451,0.433,0.787,0.884,0.751c0.051-0.004,0.1-0.013,0.146-0.025
						c0.038,0.12,0.105,0.234,0.199,0.33c0.319,0.322,0.838,0.325,1.16,0.007c0.036-0.035,0.067-0.073,0.096-0.113
						c0.107,0.068,0.23,0.112,0.365,0.125c0.451,0.042,0.851-0.289,0.893-0.74c0.005-0.05,0.005-0.1,0.001-0.148
						c0.125-0.017,0.249-0.063,0.359-0.139c0.373-0.258,0.466-0.768,0.209-1.142c-0.029-0.041-0.062-0.079-0.096-0.114
						c0.086-0.093,0.15-0.207,0.186-0.337c0.12-0.438-0.137-0.889-0.573-1.009c-0.05-0.014-0.099-0.021-0.147-0.025
						c0.006-0.127-0.018-0.257-0.073-0.379c-0.189-0.412-0.677-0.593-1.088-0.403c-0.046,0.021-0.089,0.046-0.129,0.074
						c-0.077-0.101-0.179-0.185-0.301-0.243c-0.409-0.193-0.899-0.019-1.092,0.391c-0.021,0.046-0.039,0.092-0.052,0.14
						c-0.123-0.028-0.255-0.026-0.386,0.007c-0.438,0.115-0.7,0.563-0.586,1.002c0.014,0.049,0.03,0.095,0.051,0.14
						c-0.112,0.058-0.213,0.144-0.291,0.253C69.765,13.882,69.852,14.394,70.221,14.655z"/>
					<path style="fill-rule:evenodd;clip-rule:evenodd;fill:#FFFFFF;" d="M64.629,14.95c0.041,0.029,0.084,0.055,0.128,0.075
						c-0.048,0.117-0.07,0.246-0.06,0.381c0.037,0.452,0.433,0.788,0.885,0.751c0.05-0.004,0.099-0.013,0.146-0.025
						c0.037,0.12,0.104,0.234,0.198,0.33c0.319,0.322,0.838,0.325,1.16,0.007c0.036-0.035,0.068-0.073,0.097-0.113
						c0.106,0.068,0.23,0.112,0.364,0.125c0.451,0.042,0.852-0.289,0.894-0.74c0.005-0.051,0.005-0.1,0-0.148
						c0.125-0.017,0.249-0.063,0.36-0.139c0.372-0.258,0.466-0.769,0.208-1.142c-0.028-0.041-0.061-0.079-0.096-0.114
						c0.086-0.093,0.151-0.207,0.187-0.338c0.12-0.437-0.137-0.888-0.573-1.008c-0.049-0.013-0.098-0.021-0.147-0.025
						c0.006-0.127-0.019-0.256-0.074-0.379c-0.189-0.412-0.676-0.592-1.088-0.403c-0.046,0.021-0.089,0.046-0.129,0.074
						c-0.077-0.101-0.178-0.185-0.3-0.242c-0.409-0.194-0.898-0.021-1.093,0.39c-0.021,0.046-0.038,0.093-0.051,0.14
						c-0.123-0.027-0.255-0.026-0.386,0.007c-0.438,0.115-0.701,0.563-0.586,1.002c0.013,0.049,0.029,0.096,0.05,0.14
						c-0.112,0.058-0.212,0.143-0.29,0.253C64.173,14.177,64.259,14.688,64.629,14.95z"/>
				</g>
				
					<ellipse transform="matrix(-0.253 -0.9675 0.9675 -0.253 51.4455 115.083)" style="fill-rule:evenodd;clip-rule:evenodd;fill:#FFD8B8;" cx="70.151" cy="37.681" rx="19.555" ry="25.369"/>
				<path style="fill-rule:evenodd;clip-rule:evenodd;fill:#FFF4C7;" d="M46.891,46.727c0.949-2.023,3.511,5.104,2.563-3.698
					c-0.951-8.835,3.262-20.71,15.749-21.608c13.923-6.464,23.532,4.433,25.771,11.075c1.422,4.221,2.761-0.13,3.739,0.813
					c-1.128-14.386-15.866-21.293-30.929-17.029C51.518,19.75,40.663,29.195,46.891,46.727z"/>
				<path style="fill-rule:evenodd;clip-rule:evenodd;fill:#E7B791;" d="M80.603,42.572c-2.778,3.673-11.976,5.965-17.17,4.491
					C69.225,51.204,78.52,48.971,80.603,42.572z"/>
				<path style="fill-rule:evenodd;clip-rule:evenodd;fill:#FFEDDE;" d="M70.19,96.792c-1.512-7.528-3.983-14.853-5.493-22.379
					c-0.711-3.542,1.906-8.665,0.196-12.708c1.158-0.99,3.396-1.922,5.22-1.914c3.637,2.06,8.08,2.184,13.38,0.25
					c4.201,0.629,7.891,1.613,8.465,4.02c-0.674,3.369-1.079,6.98-1.759,10.353c-1.509,7.494-3.926,14.88-5.445,22.379H70.19z"/>
				<g>
					<path style="fill-rule:evenodd;clip-rule:evenodd;fill:#F2F8FA;" d="M77.884,95.621c27.085,0,12.801,23.426,27.602,27.847
						c9.926,2.964,12.151,10.473,9.645,21.549c-1.544,6.826,0.41,8.601,8.404,13.8c5.62,3.655,10.768,13.319,1.411,18.239
						c-9.356,4.92-85.78,4.192-94.122,0c-8.344-4.192-5.377-14.584,0.243-18.239c7.994-5.199,10.652-7.178,10.302-14.227
						c-0.498-10.008,2.093-18.157,9.645-21.549C65.274,116.635,50.799,95.621,77.884,95.621z"/>
					<path style="fill-rule:evenodd;clip-rule:evenodd;fill:#F2F8FA;" d="M77.882,95.621c20.046,0,9.474,23.426,20.429,27.847
						c7.346,2.964,8.993,10.473,7.139,21.549c-1.144,6.826,0.303,8.601,6.22,13.8c4.159,3.655,7.97,13.319,1.045,18.239
						c-6.926,4.92-63.489,4.192-69.664,0c-6.174-4.192-3.979-14.584,0.181-18.239c5.917-5.199,7.884-7.178,7.624-14.227
						c-0.368-10.008,1.55-18.157,7.139-21.549C68.549,116.635,57.835,95.621,77.882,95.621z"/>
					<path style="fill-rule:evenodd;clip-rule:evenodd;fill:#FFFFFF;" d="M77.88,95.621c16.254,0,7.682,23.426,16.563,27.847
						c5.956,2.964,7.291,10.473,5.788,21.549c-0.927,6.826,0.245,8.601,5.042,13.8c3.373,3.655,6.462,13.319,0.847,18.239
						c-5.614,4.92-51.474,4.192-56.479,0c-5.007-4.192-3.227-14.584,0.146-18.239c4.797-5.199,6.392-7.178,6.182-14.227
						c-0.298-10.008,1.256-18.157,5.788-21.549C70.314,116.635,61.627,95.621,77.88,95.621z"/>
					<path style="fill-rule:evenodd;clip-rule:evenodd;fill:#F2F8FA;" d="M77.878,95.621c9.589,0,4.532,23.426,9.771,27.847
						c3.515,2.964,4.302,10.473,3.415,21.549c-0.547,6.826,0.145,8.601,2.976,13.8c1.989,3.655,3.812,13.319,0.499,18.239
						s-30.368,4.192-33.322,0c-2.953-4.192-1.903-14.584,0.087-18.239c2.83-5.199,3.771-7.178,3.647-14.227
						c-0.176-10.008,0.741-18.157,3.415-21.549C73.414,116.635,68.289,95.621,77.878,95.621z"/>
					<path style="fill-rule:evenodd;clip-rule:evenodd;fill:#FFFFFF;" d="M77.877,95.621c5.38,0,2.542,23.426,5.482,27.847
						c1.972,2.964,2.413,10.473,1.916,21.549c-0.307,6.826,0.081,8.601,1.669,13.8c1.116,3.655,2.139,13.319,0.28,18.239
						s-17.038,4.192-18.696,0c-1.656-4.192-1.067-14.584,0.049-18.239c1.588-5.199,2.116-7.178,2.046-14.227
						c-0.099-10.008,0.416-18.157,1.916-21.549C75.372,116.635,72.497,95.621,77.877,95.621z"/>
				</g>
				<path style="fill-rule:evenodd;clip-rule:evenodd;fill:#F2F8FA;" d="M68.146,96.791l-3.263-21.566
					c-0.058-0.265-0.088-0.535-0.088-0.812c0-2.804,3.082-5.076,6.884-5.076c2.481,0,4.656,0.969,5.867,2.421
					c1.212-1.452,3.387-2.421,5.867-2.421c3.803,0,6.885,2.272,6.885,5.076c0,0.267-0.028,0.529-0.082,0.785l-3.191,21.593H68.146z"
					/>
				<g>
					<path style="fill-rule:evenodd;clip-rule:evenodd;fill:#FFD8B8;" d="M85.953,64.828C79.813,83.383,75.86,89.713,59.61,98.947
						l2.71,3.199c15.38-4.711,26.9-22.185,30.391-34.607C94.212,62.195,87.834,60.213,85.953,64.828z"/>
					<path style="fill-rule:evenodd;clip-rule:evenodd;fill:#FFD8B8;" d="M56.625,98.926c-1.051,1.122-0.821,1.961,0.182,2.379
						c-1.755,1.452-1.889,3.861-1.016,4.678c1.698,1.59,4.826,1.007,6.985-1.301c2.159-2.309,2.533-5.468,0.834-7.057
						C61.911,96.035,58.784,96.617,56.625,98.926z"/>
				</g>
				
					<ellipse transform="matrix(-0.4649 -0.8854 0.8854 -0.4649 27.7667 104.9811)" style="fill-rule:evenodd;clip-rule:evenodd;fill:#FFD8B8;" cx="45.608" cy="44.1" rx="5.761" ry="3.687"/>
				
					<ellipse transform="matrix(-0.0281 -0.9996 0.9996 -0.0281 65.918 127.1298)" style="fill-rule:evenodd;clip-rule:evenodd;fill:#FFD8B8;" cx="94.76" cy="31.521" rx="5.761" ry="3.687"/>
				<g>
					<path style="fill:#D9E0E2;" d="M56.413,111.927c-1.898,0.736-3.048,1.475-3.383,2.247l-0.002,0.007
						c-0.249,0.575,0.068,1.423,0.996,2.587c2.207,2.772,1.676,4.915,0.029,6.602c-1.247,1.277-3.142,2.06-4.684,2.647
						c-0.32,0.122-0.418,0.358-0.369,0.664c0.155,0.954,0.865,2.239,1.854,3.662l-3.14,2.186c-1.298-1.868-2.248-3.669-2.501-5.235
						c-0.358-2.215,0.389-3.938,2.795-4.854c1.182-0.45,2.615-1.03,3.31-1.741c0.294-0.301,0.317-0.771-0.295-1.54
						c-1.894-2.376-2.366-4.515-1.505-6.5l0.001,0.001c0.777-1.786,2.639-3.186,5.514-4.299L56.413,111.927z"/>
					<path style="fill:#D9E0E2;" d="M61.827,113.719c-1.322,1.545-1.982,2.742-1.911,3.588c0.053,0.624,0.732,1.219,2.095,1.802
						c3.263,1.397,3.812,3.541,3.158,5.811c-0.492,1.711-1.789,3.296-2.867,4.543c-0.226,0.262-0.202,0.517-0.014,0.763
						c0.578,0.754,1.814,1.549,3.368,2.338l-1.732,3.425c-2.019-1.025-3.706-2.162-4.681-3.434
						c-1.365-1.782-1.523-3.652,0.157-5.597c0.828-0.958,1.817-2.15,2.094-3.108c0.114-0.4-0.086-0.821-0.983-1.206
						c-2.8-1.198-4.23-2.859-4.413-5.017c-0.164-1.935,0.814-4.05,2.823-6.398L61.827,113.719z"/>
				</g>
				<path style="fill-rule:evenodd;clip-rule:evenodd;fill:#F2F8FA;" d="M70.398,97.822c-0.059,0.287-0.143,0.563-0.248,0.824
					c0.666,0.302,1.272,0.764,1.758,1.377c1.629,2.056,1.281,5.042-0.775,6.67c-0.229,0.182-0.471,0.339-0.72,0.472
					c0.316,0.66,0.484,1.403,0.462,2.185c-0.075,2.622-2.26,4.686-4.882,4.612c-0.292-0.009-0.578-0.043-0.854-0.102
					c-0.183,0.709-0.53,1.386-1.05,1.971c-1.742,1.961-4.744,2.138-6.704,0.396c-0.219-0.194-0.416-0.404-0.59-0.627
					c-0.595,0.426-1.297,0.721-2.071,0.834c-2.595,0.382-5.008-1.412-5.39-4.006c-0.042-0.29-0.058-0.577-0.048-0.86
					c-0.73-0.056-1.458-0.281-2.124-0.691c-2.232-1.376-2.929-4.3-1.553-6.533c0.153-0.249,0.326-0.479,0.516-0.69
					c-0.523-0.512-0.935-1.152-1.183-1.895c-0.826-2.488,0.521-5.176,3.01-6.003c0.278-0.093,0.559-0.158,0.839-0.197
					c-0.071-0.729,0.025-1.484,0.313-2.211c0.967-2.438,3.727-3.631,6.164-2.664c0.272,0.107,0.529,0.237,0.769,0.388
					c0.414-0.604,0.974-1.121,1.661-1.493c2.308-1.246,5.188-0.386,6.435,1.921c0.14,0.258,0.252,0.523,0.34,0.792
					c0.705-0.196,1.466-0.233,2.232-0.076C69.273,92.742,70.926,95.253,70.398,97.822z"/>
				<path style="fill-rule:evenodd;clip-rule:evenodd;fill:#FFF4C7;" d="M89.564,58.945c3.66-3.591,3.463-9.054-0.168-11.279
					c-3.631-2.226-5.025-4.547-3.403-8.675c1.622-4.128,1.092-6.777-2.995-7.829c-4.087-1.052-5.479-2.007-6.454-6.529
					c-0.976-4.523-6.289-4.451-11.387-3.691c6.093-2.113,11.6-3.713,15.286-1.229c3.688,2.483,5.867,0.773,8.592,5.183
					c2.726,4.409,2.157,9.167,0.535,13.295c-1.621,4.128-1.74,6.063,1.891,8.29C95.092,48.707,96.274,55.3,89.564,58.945z"/>
				<path style="fill-rule:evenodd;clip-rule:evenodd;fill:#FFF4C7;" d="M62.48,66.029c-4.949-1.34-7.452-6.199-5.376-9.918
					c2.077-3.719,2.156-6.425-1.279-9.23c-3.435-2.805-4.269-5.375-1.221-8.293c3.049-2.918,3.794-4.432,2.431-8.852
					c-1.363-4.421,3.305-6.96,8.122-8.793c-6.348,1.141-11.933,2.441-13.932,6.411c-1.999,3.971-4.736,3.547-4.954,8.726
					c-0.217,5.179,2.607,9.049,6.042,11.854c3.436,2.806,4.487,4.435,2.41,8.153C52.647,59.808,54.844,66.136,62.48,66.029z"/>
				<g>
					<path style="fill-rule:evenodd;clip-rule:evenodd;fill:#666666;" d="M58.337,38.977c1.32,2.176,6.082,0.887,5.951-1.584
						C63.031,39.021,59.788,39.479,58.337,38.977z"/>
					<path style="fill-rule:evenodd;clip-rule:evenodd;fill:#666666;" d="M81.087,33.026c-0.086,2.544-4.869,3.751-5.965,1.532
						C77.016,35.363,80.066,34.175,81.087,33.026z"/>
				</g>
			</g>
			<g>
				<path style="fill-rule:evenodd;clip-rule:evenodd;fill:#FFF4C7;" d="M131.601,26.674c-14.636-10.602-45.267,0.761-43.711-20.61
					c6.754,6.455,8.917,3.839,18.263,3.026C115.579,8.271,127.493,12.211,131.601,26.674z"/>
				<path style="fill-rule:evenodd;clip-rule:evenodd;fill:#FFF4C7;" d="M132.284,27.598C119.616,14.708,87.522,20.814,92.612,0
					c5.586,7.49,8.154,5.27,17.506,6.023C119.549,6.784,130.641,12.653,132.284,27.598z"/>
				<g>
					<polygon style="fill-rule:evenodd;clip-rule:evenodd;fill:#323232;" points="125.681,144.176 124.63,123.967 124.22,111.104 
						123.765,97.527 140.255,96.58 138.356,141.99 					"/>
					<polygon style="fill-rule:evenodd;clip-rule:evenodd;fill:#323232;" points="124.076,106.816 124.282,106.811 124.221,111.105 
						124.22,111.104 					"/>
				</g>
				<path style="fill-rule:evenodd;clip-rule:evenodd;fill:#323232;" d="M128.512,178.947l-2.877-38.613l12.722,1.717l-0.891,36.711
					C134.482,178.823,131.496,178.885,128.512,178.947z"/>
				
					<ellipse transform="matrix(-0.0402 -0.9992 0.9992 -0.0402 -46.1457 315.1371)" style="fill-rule:evenodd;clip-rule:evenodd;fill:#1A1A1A;" cx="128.288" cy="179.732" rx="4.619" ry="9.197"/>
				
					<rect x="110.651" y="48.14" transform="matrix(-0.9732 0.2301 -0.2301 -0.9732 240.612 73.8765)" style="fill-rule:evenodd;clip-rule:evenodd;fill:#FFFFFF;" width="10.695" height="5.655"/>
				<polygon style="fill-rule:evenodd;clip-rule:evenodd;fill:#1A1A1A;" points="118.378,99.823 141.81,91.729 143.753,96.361 
					120.031,104.557 				"/>
				<path style="fill-rule:evenodd;clip-rule:evenodd;fill:#FFFFFF;" d="M114.901,50.759c8.508,17.407,10.938,29.108,6.807,39.299
					l-4.888-9.223l-3.718-22.653l-2.896-6.867L114.901,50.759z"/>
				<g>
					<path style="fill-rule:evenodd;clip-rule:evenodd;fill:#212E36;" d="M109.554,53.186c0.243-0.819,0.682-3.69,1.144-3.15
						c0.634,0.745,2.262,5.67,2.195,6.646c-0.048,0.709-2.111-1.336-2.794-1.851C109.82,54.439,109.566,53.666,109.554,53.186z"/>
					<path style="fill-rule:evenodd;clip-rule:evenodd;fill:#405059;" d="M109.258,52.82l0.601-0.08
						c0.154-0.02,0.297,0.088,0.317,0.242l0.261,1.963c0.021,0.154-0.088,0.297-0.242,0.316l-0.601,0.08
						c-0.154,0.021-0.297-0.088-0.317-0.242l-0.261-1.963C108.995,52.983,109.104,52.841,109.258,52.82z"/>
				</g>
				<polygon style="fill-rule:evenodd;clip-rule:evenodd;fill:#323232;" points="143.11,94.819 122.132,48.729 115.082,53.055 
					113.962,85.936 119.423,102.881 				"/>
				<path style="fill-rule:evenodd;clip-rule:evenodd;fill:#1A1A1A;" d="M118.637,63.899c10.172,8.837,22.833,24.014,29.602,39.356
					l4.168-1.945c-4.398-15.137-15.64-34.624-22.671-42.327C121.339,49.781,108.375,54.985,118.637,63.899z"/>
				
					<ellipse transform="matrix(0.0503 -0.9987 0.9987 0.0503 79.2996 140.9019)" style="fill-rule:evenodd;clip-rule:evenodd;fill:#FFD8B8;" cx="113.742" cy="28.752" rx="21.443" ry="22.153"/>
				<path style="fill-rule:evenodd;clip-rule:evenodd;fill:#FFF4C7;" d="M98.213,13.411c4.794,15.104,31.912,22.186,26.996,33.728
					c6.083-3.552,10.284-9.875,10.657-17.271c0.597-11.827-8.825-21.914-21.045-22.531C108.392,7.012,102.47,9.375,98.213,13.411z"
					/>
				
					<ellipse transform="matrix(0.2745 -0.9616 0.9616 0.2745 54.7699 138.519)" style="fill-rule:evenodd;clip-rule:evenodd;fill:#FFD8B8;" cx="119.179" cy="32.964" rx="6.317" ry="4.043"/>
				<path style="fill-rule:evenodd;clip-rule:evenodd;fill:#FFF4C7;" d="M94.149,18.115c4.721,1.668,9.091,3.688,14.242,8.204
					c5.663,4.965,19.978-15.921,11.084-18.41C110.581,5.422,99.913,4.455,94.149,18.115z"/>
				<path style="fill-rule:evenodd;clip-rule:evenodd;fill:#1A1A1A;" d="M157.869,115.336c-7.392,0.107-19.094-9.168-23.86-15.758
					l3.64-14.579C137.649,84.999,152.867,105.373,157.869,115.336z"/>
				<path style="fill-rule:evenodd;clip-rule:evenodd;fill:#323232;" d="M134.57,97.326l3.078-12.327c0,0,13.085,17.3,18.81,27.714
					C150.044,113.068,139.307,102.973,134.57,97.326z"/>
			</g>
			<path style="fill-rule:evenodd;clip-rule:evenodd;fill:#E7B791;" d="M93.822,38.179c-0.672-0.327-0.477,1.574,0.404,2.459
				c0.142,1.062,0.574,1.605,0.986,1.698C96.429,42.61,97.453,40.396,93.822,38.179z"/>
			<path style="fill-rule:evenodd;clip-rule:evenodd;fill:#FFD8B8;" d="M156.442,97.495c1.299,1.073,1.167,2.017,0.134,2.613
				c2.111,1.334,2.594,3.935,1.759,4.945c-1.626,1.966-5.108,1.769-7.779-0.439c-2.672-2.209-3.52-5.593-1.894-7.559
				C150.288,95.089,153.771,95.286,156.442,97.495z"/>
			<path style="fill-rule:evenodd;clip-rule:evenodd;fill:#666666;" d="M101.225,28.717c0.033,2.546-4.688,3.977-5.887,1.812
				C97.267,31.243,100.259,29.912,101.225,28.717z"/>
		</g>
		<g>
			<circle style="fill-rule:evenodd;clip-rule:evenodd;fill:#FFD8B8;" cx="72.708" cy="64.442" r="0.499"/>
			<circle style="fill-rule:evenodd;clip-rule:evenodd;fill:#FFD8B8;" cx="75.279" cy="64.442" r="0.499"/>
			<circle style="fill-rule:evenodd;clip-rule:evenodd;fill:#FFD8B8;" cx="77.851" cy="64.442" r="0.499"/>
			<circle style="fill-rule:evenodd;clip-rule:evenodd;fill:#FFD8B8;" cx="80.422" cy="64.442" r="0.499"/>
			<circle style="fill-rule:evenodd;clip-rule:evenodd;fill:#FFD8B8;" cx="82.993" cy="64.442" r="0.499"/>
			<circle style="fill-rule:evenodd;clip-rule:evenodd;fill:#FFD8B8;" cx="67.566" cy="64.442" r="0.499"/>
			<circle style="fill-rule:evenodd;clip-rule:evenodd;fill:#FFD8B8;" cx="70.137" cy="64.442" r="0.499"/>
			<circle style="fill-rule:evenodd;clip-rule:evenodd;fill:#FFD8B8;" cx="85.564" cy="64.442" r="0.499"/>
			<path style="fill-rule:evenodd;clip-rule:evenodd;fill:#FFD8B8;" d="M88.588,64.234c0.029,0.063,0.046,0.134,0.046,0.208
				c0,0.275-0.224,0.498-0.498,0.498c-0.276,0-0.499-0.223-0.499-0.498c0-0.267,0.209-0.483,0.471-0.498
				C88.274,64.038,88.435,64.135,88.588,64.234z"/>
			<circle style="fill-rule:evenodd;clip-rule:evenodd;fill:#FFD8B8;" cx="71.423" cy="66.274" r="0.499"/>
			<circle style="fill-rule:evenodd;clip-rule:evenodd;fill:#FFD8B8;" cx="73.994" cy="66.274" r="0.499"/>
			<circle style="fill-rule:evenodd;clip-rule:evenodd;fill:#FFD8B8;" cx="76.566" cy="66.274" r="0.499"/>
			<circle style="fill-rule:evenodd;clip-rule:evenodd;fill:#FFD8B8;" cx="79.136" cy="66.274" r="0.499"/>
			<circle style="fill-rule:evenodd;clip-rule:evenodd;fill:#FFD8B8;" cx="81.707" cy="66.274" r="0.499"/>
			<path style="fill-rule:evenodd;clip-rule:evenodd;fill:#FFD8B8;" d="M66.312,65.777c0.261,0.016,0.467,0.232,0.467,0.497
				c0,0.226-0.149,0.415-0.353,0.477C66.393,66.426,66.355,66.101,66.312,65.777z"/>
			<circle style="fill-rule:evenodd;clip-rule:evenodd;fill:#FFD8B8;" cx="68.852" cy="66.274" r="0.499"/>
			<circle style="fill-rule:evenodd;clip-rule:evenodd;fill:#FFD8B8;" cx="84.278" cy="66.274" r="0.499"/>
			<circle style="fill-rule:evenodd;clip-rule:evenodd;fill:#FFD8B8;" cx="86.85" cy="66.274" r="0.499"/>
			<path style="fill-rule:evenodd;clip-rule:evenodd;fill:#FFD8B8;" d="M89.421,65.775l0.044,0.002
				c-0.052,0.328-0.095,0.658-0.133,0.987c-0.233-0.041-0.41-0.245-0.41-0.49C88.922,65.999,89.146,65.775,89.421,65.775z"/>
			<path style="fill-rule:evenodd;clip-rule:evenodd;fill:#FFD8B8;" d="M71.599,62.134c0.188,0.071,0.322,0.253,0.322,0.467
				c0,0.275-0.223,0.498-0.498,0.498c-0.275,0-0.499-0.223-0.499-0.498c0-0.067,0.014-0.13,0.037-0.188L71.599,62.134z"/>
			<circle style="fill-rule:evenodd;clip-rule:evenodd;fill:#FFD8B8;" cx="73.994" cy="62.6" r="0.499"/>
			<circle style="fill-rule:evenodd;clip-rule:evenodd;fill:#FFD8B8;" cx="76.566" cy="62.6" r="0.499"/>
			<circle style="fill-rule:evenodd;clip-rule:evenodd;fill:#FFD8B8;" cx="79.136" cy="62.6" r="0.499"/>
			<circle style="fill-rule:evenodd;clip-rule:evenodd;fill:#FFD8B8;" cx="81.707" cy="62.6" r="0.499"/>
			<path style="fill-rule:evenodd;clip-rule:evenodd;fill:#FFD8B8;" d="M84.75,62.438c0.017,0.051,0.026,0.104,0.026,0.162
				c0,0.275-0.223,0.498-0.498,0.498c-0.275,0-0.498-0.223-0.498-0.498c0-0.198,0.115-0.369,0.282-0.45
				C84.289,62.248,84.52,62.344,84.75,62.438z"/>
			<path style="fill-rule:evenodd;clip-rule:evenodd;fill:#FFD8B8;" d="M72.708,67.743c0.275,0,0.499,0.224,0.499,0.498
				c0,0.196-0.114,0.366-0.278,0.448c-0.107-0.004-0.215-0.007-0.322-0.007l-0.128,0.001c-0.16-0.083-0.269-0.25-0.269-0.442
				C72.21,67.967,72.433,67.743,72.708,67.743z"/>
			<circle style="fill-rule:evenodd;clip-rule:evenodd;fill:#FFD8B8;" cx="75.279" cy="68.242" r="0.499"/>
			<circle style="fill-rule:evenodd;clip-rule:evenodd;fill:#FFD8B8;" cx="77.851" cy="68.242" r="0.499"/>
			<circle style="fill-rule:evenodd;clip-rule:evenodd;fill:#FFD8B8;" cx="80.422" cy="68.242" r="0.499"/>
			<path style="fill-rule:evenodd;clip-rule:evenodd;fill:#FFD8B8;" d="M82.993,67.743c0.275,0,0.498,0.224,0.498,0.498
				c0,0.192-0.108,0.359-0.268,0.442l-0.095-0.001c-0.118,0-0.236,0.003-0.354,0.008c-0.167-0.081-0.281-0.251-0.281-0.449
				C82.494,67.967,82.718,67.743,82.993,67.743z"/>
			<circle style="fill-rule:evenodd;clip-rule:evenodd;fill:#FFD8B8;" cx="67.566" cy="68.242" r="0.499"/>
			<circle style="fill-rule:evenodd;clip-rule:evenodd;fill:#FFD8B8;" cx="70.137" cy="68.242" r="0.499"/>
			<circle style="fill-rule:evenodd;clip-rule:evenodd;fill:#FFD8B8;" cx="85.564" cy="68.242" r="0.499"/>
			<circle style="fill-rule:evenodd;clip-rule:evenodd;fill:#FFD8B8;" cx="88.136" cy="68.242" r="0.499"/>
			<path style="fill-rule:evenodd;clip-rule:evenodd;fill:#FFD8B8;" d="M76.566,69.575c0.274,0,0.498,0.224,0.498,0.498
				l-0.001,0.013c-0.218-0.169-0.453-0.324-0.704-0.466C76.421,69.592,76.491,69.575,76.566,69.575z"/>
			<path style="fill-rule:evenodd;clip-rule:evenodd;fill:#FFD8B8;" d="M79.136,69.575c0.081,0,0.158,0.02,0.226,0.054
				c-0.257,0.146-0.499,0.309-0.722,0.482l-0.002-0.038C78.638,69.799,78.86,69.575,79.136,69.575z"/>
			<path style="fill-rule:evenodd;clip-rule:evenodd;fill:#FFD8B8;" d="M66.642,69.73c0.085,0.09,0.137,0.211,0.137,0.343
				c0,0.108-0.034,0.208-0.092,0.29C66.671,70.152,66.656,69.941,66.642,69.73z"/>
			<path style="fill-rule:evenodd;clip-rule:evenodd;fill:#FFD8B8;" d="M68.852,69.575c0.024,0,0.049,0.002,0.073,0.005
				c-0.191,0.105-0.374,0.219-0.547,0.338C68.442,69.72,68.63,69.575,68.852,69.575z"/>
			<path style="fill-rule:evenodd;clip-rule:evenodd;fill:#FFD8B8;" d="M86.85,69.575c0.209,0,0.388,0.129,0.462,0.312
				c-0.162-0.109-0.33-0.213-0.507-0.31L86.85,69.575z"/>
			<path style="fill-rule:evenodd;clip-rule:evenodd;fill:#FFD8B8;" d="M89.046,70.402c-0.077-0.088-0.124-0.203-0.124-0.329
				c0-0.151,0.067-0.286,0.174-0.378C89.08,69.932,89.064,70.167,89.046,70.402z"/>
			<circle style="fill-rule:evenodd;clip-rule:evenodd;fill:#FFD8B8;" cx="71.423" cy="62.617" r="0.499"/>
			<circle style="fill-rule:evenodd;clip-rule:evenodd;fill:#FFD8B8;" cx="68.925" cy="62.515" r="0.499"/>
			<circle style="fill-rule:evenodd;clip-rule:evenodd;fill:#FFD8B8;" cx="84.278" cy="62.625" r="0.499"/>
		</g>
		<path style="fill-rule:evenodd;clip-rule:evenodd;fill:#F2F8FA;" d="M77.897,95.62c16.253,0,7.682,23.427,16.562,27.847
			c5.956,2.965,7.292,10.473,5.788,21.549c-0.927,6.826,0.246,8.601,5.043,13.8c3.372,3.655,6.461,13.319,0.847,18.239
			c-5.614,4.92-51.474,4.192-56.48,0c-5.006-4.191-3.227-14.584,0.147-18.239c4.797-5.198,6.392-7.178,6.182-14.228
			c-0.299-10.008,1.256-18.156,5.788-21.549C70.33,116.634,61.644,95.62,77.897,95.62z"/>
		
			<ellipse transform="matrix(0.2745 -0.9616 0.9616 0.2745 54.783 138.5338)" style="fill-rule:evenodd;clip-rule:evenodd;fill:#FFD8B8;" cx="119.195" cy="32.963" rx="6.317" ry="4.042"/>
	</g>
</g>
<g>
</g>
<g>
</g>
<g>
</g>
<g>
</g>
<g>
</g>
<g>
</g>
<g>
</g>
<g>
</g>
<g>
</g>
<g>
</g>
<g>
</g>
<g>
</g>
<g>
</g>
<g>
</g>
<g>
</g>
</svg>
