<?xml version="1.0" encoding="iso-8859-1"?>
<!-- Generator: Adobe Illustrator 18.0.0, SVG Export Plug-In . SVG Version: 6.00 Build 0)  -->
<!DOCTYPE svg PUBLIC "-//W3C//DTD SVG 1.1//EN" "http://www.w3.org/Graphics/SVG/1.1/DTD/svg11.dtd">
<svg version="1.1" id="Capa_1" xmlns="http://www.w3.org/2000/svg" xmlns:xlink="http://www.w3.org/1999/xlink" x="0px" y="0px"
	 viewBox="0 0 191.939 191.939" style="enable-background:new 0 0 191.939 191.939;" xml:space="preserve">
<g>
	<g>
		<path style="fill-rule:evenodd;clip-rule:evenodd;fill:#F9EDF2;" d="M72.933,14.459c22.12-3.816,46.703,30.6,56.407,77.871
			c-9.305,14.422-22.523,24.365-38.3,27.086c-15.777,2.723-31.564-2.217-45.162-12.688C39.181,58.938,50.813,18.275,72.933,14.459z"
			/>
		<path style="fill-rule:evenodd;clip-rule:evenodd;fill:#FFD8B8;" d="M81.96,69.613c-6.876,9.697-13.463,31.049-13.443,49.281
			l-4.192-0.084c-1.917-14.246-0.004-34.74,3.289-43.664C69.307,70.555,78.162,67.385,81.96,69.613z"/>
		
			<rect x="76.125" y="58.588" transform="matrix(-0.9855 0.1699 -0.1699 -0.9855 174.0402 118.6977)" style="fill-rule:evenodd;clip-rule:evenodd;fill:#E7B791;" width="11.633" height="16.417"/>
		<path style="fill-rule:evenodd;clip-rule:evenodd;fill:#E7B791;" d="M85.517,187.727c1.059-22.729,2.116-45.459,3.175-68.189
			c-4.896,0-9.793,0-14.688,0c1.021,22.73,2.042,45.461,3.063,68.189C79.883,187.727,82.7,187.727,85.517,187.727z"/>
		<path style="fill-rule:evenodd;clip-rule:evenodd;fill:#E7B791;" d="M99.286,187.727c1.06-22.729,2.116-45.459,3.175-68.189
			c-4.896,0-9.792,0-14.688,0c1.021,22.73,2.043,45.461,3.063,68.189C93.653,187.727,96.471,187.727,99.286,187.727z"/>
		<path style="fill-rule:evenodd;clip-rule:evenodd;fill:#FFFFFF;" d="M99.224,191.939c4.62,0,8.388-1.893,8.388-4.213
			s-3.768-4.213-8.388-4.213c-4.619,0-8.387,1.893-8.387,4.213S94.605,191.939,99.224,191.939z"/>
		<path style="fill-rule:evenodd;clip-rule:evenodd;fill:#FFFFFF;" d="M77.13,191.939c4.619,0,8.388-1.893,8.388-4.213
			s-3.769-4.213-8.388-4.213c-4.619,0-8.387,1.893-8.387,4.213S72.511,191.939,77.13,191.939z"/>
		<g>
			<g>
				<polygon style="fill-rule:evenodd;clip-rule:evenodd;fill:#1A1A1A;" points="112.151,147.922 111.208,131.551 110.846,118.686 
					110.441,105.107 126.935,104.221 124.866,149.625 				"/>
				<polygon style="fill-rule:evenodd;clip-rule:evenodd;fill:#1A1A1A;" points="110.718,114.396 110.924,114.393 110.846,118.686 
					110.846,118.686 				"/>
			</g>
			<g>
				<path style="fill-rule:evenodd;clip-rule:evenodd;fill:#1A1A1A;" d="M114.885,186.545l-2.732-38.623l12.784,0.16l-1.184,40.613
					C120.768,188.746,117.869,186.494,114.885,186.545z"/>
				
					<ellipse transform="matrix(0.1485 -0.9889 0.9889 0.1485 -87.6471 267.2652)" style="fill-rule:evenodd;clip-rule:evenodd;fill:#1A1A1A;" cx="111.381" cy="184.53" rx="4.619" ry="9.197"/>
			</g>
		</g>
		<path style="fill-rule:evenodd;clip-rule:evenodd;fill:#FCF7F9;" d="M98.015,102.451c0.457,1.328,1.004,2.994,3.56,6.805
			c4.646,6.93,7.232,20.519,10.851,29.853c3.618,9.334,10.747,33.498,16.996,39.436c6.249,5.939,0.244,9.146-6.249,8.203
			c-6.109-0.887-9.987-0.744-13.323,1.193c-4.771,2.77-7.638,2.373-13.877,1.477c-5.808-0.836-9.754-1.162-17.638,0.301
			c-6.183,1.148-9.5,0.131-12.471-1.576c-4.284-2.461-6.628-1.98-12.62-1.395c-5.992,0.584-12.498-2.264-6.25-8.203
			c6.249-5.938,12.935-30.102,16.553-39.436c3.618-9.334,6.194-22.926,10.831-29.853c2.471-3.695,3.82-5.484,4.398-6.805H98.015z"/>
		<path style="fill-rule:evenodd;clip-rule:evenodd;fill:#FFE0E9;" d="M67.21,188.848c-0.462-0.217-0.908-0.453-1.348-0.705
			c-4.034-2.318-6.349-2.025-11.609-1.496c5.617-8.77,16.821-37.23,19.202-50.041C74.837,151.246,69.82,179.383,67.21,188.848z"/>
		<path style="fill-rule:evenodd;clip-rule:evenodd;fill:#FFE0E9;" d="M122.234,186.617c-5.574-0.736-9.224-0.512-12.386,1.324
			c-0.235,0.137-0.467,0.266-0.693,0.387c-2.646-9.879-7.462-37.342-6.104-51.723C105.43,149.4,116.61,177.816,122.234,186.617z"/>
		<path style="fill-rule:evenodd;clip-rule:evenodd;fill:#FFE0E9;" d="M95.285,189.32c-4.699-0.658-8.279-0.93-14.043-0.086
			c3.734-15.014,6.795-45.141,7.011-52.939C88.469,144.109,91.541,174.332,95.285,189.32z"/>
		
			<ellipse transform="matrix(-0.17 -0.9854 0.9854 -0.17 54.8809 116.5001)" style="fill-rule:evenodd;clip-rule:evenodd;fill:#FFF4C7;" cx="76.501" cy="35.139" rx="10.881" ry="19.508"/>
		
			<ellipse transform="matrix(-0.17 -0.9854 0.9854 -0.17 59.135 108.8332)" style="fill-rule:evenodd;clip-rule:evenodd;fill:#91613A;" cx="75.401" cy="29.513" rx="12.464" ry="16.588"/>
		<path style="fill-rule:evenodd;clip-rule:evenodd;fill:#FFFFFF;" d="M64.143,29.465c-0.025,0.043-0.055,0.084-0.086,0.121
			c0.093,0.086,0.166,0.195,0.212,0.322c0.153,0.426-0.067,0.895-0.494,1.049c-0.048,0.017-0.096,0.029-0.144,0.037
			c0.016,0.125,0.002,0.256-0.045,0.383c-0.156,0.426-0.628,0.645-1.053,0.486c-0.048-0.018-0.093-0.037-0.135-0.063
			c-0.069,0.106-0.163,0.197-0.28,0.264c-0.393,0.227-0.895,0.09-1.119-0.303c-0.025-0.045-0.046-0.09-0.063-0.137
			c-0.12,0.037-0.252,0.047-0.385,0.023c-0.446-0.08-0.742-0.508-0.662-0.953c0.01-0.049,0.022-0.098,0.04-0.142
			c-0.117-0.051-0.224-0.127-0.31-0.23c-0.29-0.348-0.243-0.865,0.105-1.156c0.038-0.031,0.08-0.059,0.122-0.084
			c-0.058-0.111-0.09-0.24-0.089-0.375c0.001-0.453,0.37-0.818,0.823-0.818c0.051,0.002,0.1,0.006,0.147,0.016
			c0.029-0.123,0.086-0.242,0.174-0.346c0.292-0.346,0.81-0.389,1.155-0.096c0.039,0.031,0.073,0.066,0.104,0.105
			c0.101-0.076,0.221-0.131,0.354-0.152c0.446-0.078,0.87,0.221,0.947,0.668c0.009,0.051,0.013,0.1,0.012,0.149
			c0.127,0.006,0.253,0.043,0.37,0.109C64.238,28.57,64.37,29.072,64.143,29.465z"/>
		<path style="fill-rule:evenodd;clip-rule:evenodd;fill:#FFFFFF;" d="M68.556,25.961c-0.026,0.043-0.055,0.084-0.086,0.121
			c0.093,0.086,0.166,0.195,0.212,0.322c0.153,0.426-0.068,0.896-0.494,1.049c-0.048,0.017-0.096,0.031-0.145,0.039
			c0.016,0.125,0.003,0.256-0.044,0.383c-0.157,0.424-0.628,0.643-1.054,0.486c-0.047-0.018-0.092-0.039-0.134-0.064
			c-0.069,0.105-0.163,0.197-0.28,0.266c-0.394,0.225-0.895,0.088-1.119-0.305c-0.025-0.045-0.046-0.09-0.063-0.135
			c-0.121,0.037-0.252,0.045-0.385,0.021c-0.446-0.08-0.742-0.506-0.662-0.953c0.009-0.049,0.022-0.098,0.04-0.142
			c-0.116-0.049-0.224-0.127-0.31-0.23c-0.29-0.348-0.243-0.865,0.104-1.154c0.039-0.033,0.081-0.061,0.123-0.084
			c-0.058-0.113-0.09-0.24-0.09-0.375c0.002-0.453,0.371-0.82,0.824-0.818c0.05,0,0.1,0.006,0.147,0.014
			c0.028-0.123,0.086-0.242,0.173-0.344c0.293-0.346,0.811-0.391,1.156-0.098c0.038,0.033,0.073,0.068,0.104,0.105
			c0.101-0.076,0.221-0.129,0.354-0.152c0.446-0.078,0.87,0.223,0.947,0.668c0.009,0.051,0.013,0.1,0.012,0.148
			c0.126,0.008,0.253,0.043,0.37,0.111C68.651,25.068,68.783,25.57,68.556,25.961z"/>
		<path style="fill-rule:evenodd;clip-rule:evenodd;fill:#FFFFFF;" d="M73.769,23.916c-0.025,0.043-0.055,0.084-0.086,0.121
			c0.093,0.086,0.167,0.193,0.212,0.322c0.153,0.426-0.068,0.894-0.494,1.049c-0.048,0.018-0.096,0.029-0.144,0.037
			c0.016,0.125,0.002,0.256-0.045,0.383c-0.156,0.426-0.628,0.642-1.053,0.486c-0.048-0.018-0.093-0.037-0.135-0.063
			c-0.068,0.106-0.163,0.197-0.28,0.264c-0.393,0.226-0.895,0.09-1.119-0.305c-0.025-0.043-0.046-0.088-0.063-0.135
			c-0.12,0.037-0.252,0.047-0.385,0.023c-0.445-0.08-0.742-0.508-0.662-0.953c0.01-0.049,0.022-0.098,0.04-0.143
			c-0.116-0.051-0.224-0.127-0.309-0.23c-0.29-0.348-0.243-0.865,0.105-1.156c0.039-0.031,0.08-0.059,0.122-0.084
			c-0.058-0.111-0.09-0.24-0.089-0.375c0.002-0.453,0.37-0.818,0.823-0.816c0.05,0,0.1,0.004,0.147,0.014
			c0.029-0.123,0.086-0.242,0.174-0.346c0.292-0.346,0.81-0.389,1.155-0.096c0.039,0.031,0.074,0.066,0.104,0.105
			c0.101-0.076,0.221-0.131,0.354-0.152c0.446-0.078,0.87,0.221,0.947,0.668c0.009,0.049,0.013,0.1,0.012,0.148
			c0.127,0.006,0.253,0.043,0.37,0.109C73.864,23.021,73.996,23.523,73.769,23.916z"/>
		<path style="fill-rule:evenodd;clip-rule:evenodd;fill:#FFFFFF;" d="M85.748,25.736c0.038,0.033,0.079,0.063,0.121,0.086
			c-0.058,0.111-0.092,0.238-0.092,0.375c-0.002,0.453,0.364,0.82,0.817,0.822c0.051,0,0.1-0.004,0.148-0.012
			c0.027,0.123,0.084,0.242,0.17,0.346c0.29,0.348,0.808,0.395,1.155,0.105c0.039-0.033,0.074-0.068,0.106-0.105
			c0.101,0.076,0.22,0.133,0.352,0.156c0.446,0.08,0.873-0.217,0.953-0.662c0.009-0.051,0.013-0.1,0.013-0.148
			c0.126-0.006,0.254-0.041,0.37-0.108c0.394-0.225,0.529-0.726,0.305-1.119c-0.025-0.045-0.054-0.086-0.085-0.123
			c0.093-0.084,0.168-0.193,0.215-0.32c0.156-0.424-0.062-0.896-0.486-1.053c-0.048-0.018-0.096-0.029-0.144-0.039
			c0.016-0.125,0.003-0.256-0.042-0.383c-0.153-0.426-0.624-0.648-1.05-0.494c-0.048,0.018-0.093,0.039-0.135,0.063
			c-0.068-0.106-0.162-0.199-0.278-0.268c-0.392-0.227-0.894-0.094-1.121,0.297c-0.026,0.045-0.047,0.09-0.063,0.135
			c-0.121-0.037-0.252-0.049-0.385-0.025c-0.447,0.078-0.746,0.502-0.669,0.947c0.009,0.051,0.021,0.098,0.038,0.145
			c-0.117,0.049-0.224,0.125-0.311,0.227C85.359,24.928,85.402,25.445,85.748,25.736z"/>
		<path style="fill-rule:evenodd;clip-rule:evenodd;fill:#FFFFFF;" d="M80.416,23.914c0.039,0.033,0.079,0.062,0.122,0.086
			c-0.059,0.113-0.092,0.24-0.092,0.375c-0.002,0.453,0.363,0.82,0.817,0.822c0.05,0,0.1-0.004,0.147-0.012
			c0.027,0.123,0.084,0.242,0.17,0.346c0.291,0.348,0.808,0.394,1.156,0.105c0.038-0.033,0.073-0.068,0.105-0.105
			c0.1,0.076,0.221,0.133,0.353,0.156c0.445,0.08,0.872-0.217,0.952-0.662c0.009-0.049,0.014-0.1,0.014-0.148
			c0.126-0.006,0.253-0.041,0.37-0.107c0.393-0.225,0.529-0.727,0.305-1.119c-0.025-0.043-0.055-0.086-0.086-0.123
			c0.094-0.084,0.168-0.193,0.215-0.32c0.156-0.424-0.062-0.897-0.486-1.053c-0.048-0.017-0.096-0.029-0.144-0.039
			c0.017-0.125,0.004-0.256-0.042-0.383c-0.153-0.426-0.623-0.647-1.049-0.494c-0.048,0.018-0.093,0.039-0.135,0.063
			c-0.068-0.106-0.162-0.199-0.279-0.266c-0.392-0.229-0.894-0.096-1.121,0.295c-0.025,0.043-0.047,0.09-0.063,0.135
			c-0.12-0.037-0.251-0.049-0.385-0.025c-0.446,0.078-0.746,0.502-0.669,0.947c0.009,0.051,0.021,0.098,0.038,0.145
			c-0.116,0.049-0.224,0.125-0.311,0.229C80.026,23.105,80.07,23.623,80.416,23.914z"/>
		<path style="fill-rule:evenodd;clip-rule:evenodd;fill:#FFFFFF;" d="M74.819,23.734c0.038,0.033,0.079,0.061,0.121,0.086
			c-0.058,0.111-0.092,0.238-0.092,0.373c-0.002,0.453,0.364,0.822,0.817,0.824c0.051,0,0.1-0.004,0.148-0.014
			c0.027,0.123,0.084,0.242,0.17,0.348c0.29,0.348,0.808,0.395,1.155,0.104c0.039-0.031,0.074-0.066,0.106-0.104
			c0.1,0.076,0.22,0.131,0.352,0.154c0.445,0.08,0.873-0.215,0.952-0.662c0.01-0.049,0.014-0.1,0.014-0.146
			c0.126-0.006,0.253-0.041,0.37-0.109c0.393-0.225,0.529-0.725,0.305-1.119c-0.025-0.043-0.054-0.084-0.085-0.121
			c0.093-0.086,0.168-0.193,0.214-0.32c0.156-0.426-0.061-0.896-0.486-1.053c-0.047-0.017-0.095-0.031-0.143-0.039
			c0.016-0.125,0.003-0.256-0.042-0.383c-0.154-0.428-0.624-0.649-1.05-0.496c-0.048,0.018-0.093,0.039-0.135,0.064
			c-0.068-0.107-0.162-0.199-0.278-0.268c-0.392-0.229-0.894-0.096-1.122,0.297c-0.025,0.043-0.046,0.088-0.062,0.135
			c-0.121-0.039-0.252-0.049-0.385-0.025c-0.447,0.076-0.746,0.5-0.669,0.947c0.009,0.049,0.021,0.098,0.038,0.142
			c-0.117,0.049-0.224,0.125-0.311,0.229C74.43,22.924,74.473,23.441,74.819,23.734z"/>
		
			<ellipse transform="matrix(-0.17 -0.9854 0.9854 -0.17 45.5519 132.067)" style="fill-rule:evenodd;clip-rule:evenodd;fill:#FFD8B8;" cx="78.392" cy="46.851" rx="19.555" ry="25.369"/>
		<path style="fill-rule:evenodd;clip-rule:evenodd;fill:#91613A;" d="M54.447,53.889c1.118-1.934,3.065,5.385,2.868-3.467
			c-0.197-8.883,5.008-20.357,17.527-20.191c14.42-5.26,23.07,6.414,24.736,13.221c1.059,4.326,2.763,0.105,3.657,1.127
			c0.098-14.428-14.002-22.561-29.371-19.592C61.348,27.404,49.732,35.893,54.447,53.889z"/>
		
			<ellipse transform="matrix(-0.17 -0.9854 0.9854 -0.17 56.1668 137.2804)" style="fill-rule:evenodd;clip-rule:evenodd;fill:#666666;" cx="85.897" cy="44.986" rx="2.468" ry="1.41"/>
		
			<ellipse transform="matrix(-0.17 -0.9854 0.9854 -0.17 35.7978 125.3704)" style="fill-rule:evenodd;clip-rule:evenodd;fill:#666666;" cx="70.697" cy="47.609" rx="2.468" ry="1.409"/>
		<path style="fill-rule:evenodd;clip-rule:evenodd;fill:#91613A;" d="M97.725,69.008c0.633-25.738-14.758-39.314-22.229-38.949
			C85.193,25.219,101.99,39.631,97.725,69.008z"/>
		<path style="fill-rule:evenodd;clip-rule:evenodd;fill:#91613A;" d="M67.602,74.205c-9.221-24.039,0.73-41.988,7.894-44.147
			C64.736,28.748,53.74,47.957,67.602,74.205z"/>
		<path style="fill-rule:evenodd;clip-rule:evenodd;fill:#E7B791;" d="M88.391,52.611c-3.08,3.424-12.439,4.928-17.489,3.018
			C76.32,60.248,85.773,58.811,88.391,52.611z"/>
		<path style="fill-rule:evenodd;clip-rule:evenodd;fill:#FFD8B8;" d="M81.212,105.719c-2.77-7.16-6.449-13.957-9.219-21.119
			c-1.303-3.369-1.697-7.107-3.001-10.478l7.371-4.859l11.464-1.977c2.893,0.902,6.658,1.201,8.677,2.709
			c-0.091,3.434,0.717,6.832,0.621,10.269c-0.214,7.643-1.34,15.332-1.563,22.98L81.212,105.719z"/>
		<path style="fill-rule:evenodd;clip-rule:evenodd;fill:#FCF7F9;" d="M79.197,106.066l-6.882-20.699
			c-0.102-0.25-0.178-0.512-0.225-0.783c-0.477-2.764,2.174-5.527,5.921-6.172c2.445-0.424,4.753,0.162,6.193,1.387
			c0.946-1.637,2.926-2.961,5.371-3.383c3.746-0.647,7.17,1.068,7.646,3.832c0.045,0.264,0.063,0.525,0.053,0.787l0.526,21.82
			L79.197,106.066z"/>
		
			<ellipse transform="matrix(-0.388 -0.9217 0.9217 -0.388 26.9556 120.2249)" style="fill-rule:evenodd;clip-rule:evenodd;fill:#FFD8B8;" cx="53.393" cy="51.163" rx="5.761" ry="3.687"/>
		
			<ellipse transform="matrix(0.0568 -0.9984 0.9984 0.0568 54.8294 143.6382)" style="fill-rule:evenodd;clip-rule:evenodd;fill:#FFD8B8;" cx="103.435" cy="42.801" rx="5.761" ry="3.687"/>
		<path style="fill:#FFE0E9;" d="M50.455,129.098c-1.747,1.049-2.754,1.973-2.952,2.789l-0.001,0.008
			c-0.147,0.609,0.31,1.391,1.421,2.381c2.645,2.355,2.488,4.559,1.151,6.5c-1.012,1.471-2.746,2.563-4.165,3.404
			c-0.294,0.176-0.351,0.424-0.25,0.719c0.314,0.912,1.232,2.059,2.448,3.293l-2.722,2.688c-1.597-1.619-2.84-3.232-3.355-4.734
			c-0.729-2.121-0.286-3.945,1.929-5.258c1.089-0.646,2.402-1.461,2.966-2.279c0.238-0.346,0.182-0.814-0.553-1.467
			c-2.269-2.021-3.099-4.047-2.588-6.15h0.001c0.463-1.891,2.059-3.586,4.703-5.174L50.455,129.098z"/>
		<path style="fill:#FFE0E9;" d="M56.094,129.943c-1.04,1.748-1.487,3.039-1.272,3.861c0.157,0.605,0.928,1.076,2.369,1.42
			c3.454,0.822,4.359,2.84,4.101,5.188c-0.193,1.77-1.202,3.553-2.053,4.965c-0.178,0.297-0.11,0.545,0.116,0.754
			c0.698,0.645,2.052,1.219,3.717,1.73l-1.124,3.67c-2.164-0.668-4.02-1.5-5.196-2.588c-1.647-1.525-2.122-3.342-0.797-5.543
			c0.653-1.084,1.426-2.428,1.534-3.42c0.046-0.412-0.223-0.793-1.174-1.02c-2.962-0.705-4.654-2.1-5.201-4.193
			c-0.491-1.879,0.113-4.129,1.694-6.785L56.094,129.943z"/>
		<path style="fill-rule:evenodd;clip-rule:evenodd;fill:#FFD8B8;" d="M93.823,68.885c-2.213,11.68-13.022,31.236-26.167,43.871
			l2.97,2.961c11.59-8.504,25.023-24.1,29.167-32.662C101.925,78.65,100.183,68.279,93.823,68.885z"/>
		<path style="fill-rule:evenodd;clip-rule:evenodd;fill:#FFFFFF;" d="M70.11,112.109c-0.01,0.293-0.045,0.578-0.105,0.854
			c0.709,0.186,1.385,0.535,1.968,1.059c1.953,1.748,2.119,4.75,0.37,6.705c-0.195,0.217-0.406,0.414-0.63,0.588
			c0.425,0.596,0.717,1.299,0.828,2.074c0.371,2.596-1.431,5.002-4.027,5.375c-0.289,0.041-0.577,0.055-0.859,0.045
			c-0.059,0.729-0.287,1.455-0.7,2.119c-1.383,2.229-4.311,2.912-6.538,1.529c-0.249-0.154-0.479-0.328-0.688-0.518
			c-0.514,0.521-1.155,0.932-1.899,1.174c-2.491,0.818-5.175-0.539-5.992-3.031c-0.091-0.277-0.155-0.559-0.193-0.838
			c-0.729,0.068-1.484-0.031-2.21-0.32c-2.435-0.977-3.617-3.74-2.642-6.176c0.108-0.272,0.24-0.527,0.391-0.768
			c-0.603-0.414-1.117-0.977-1.486-1.666c-1.238-2.313-0.367-5.189,1.944-6.428c0.259-0.139,0.524-0.25,0.793-0.336
			c-0.193-0.705-0.228-1.467-0.067-2.232c0.538-2.566,3.055-4.211,5.622-3.674c0.286,0.061,0.562,0.145,0.823,0.252
			c0.305-0.666,0.768-1.27,1.383-1.754c2.062-1.619,5.047-1.262,6.667,0.801c0.182,0.23,0.338,0.471,0.47,0.721
			c0.661-0.313,1.404-0.479,2.187-0.453C68.138,107.295,70.194,109.488,70.11,112.109z"/>
		<g>
			<path style="fill-rule:evenodd;clip-rule:evenodd;fill:#FFD8B8;" d="M118.982,13.709c14.756-1.676,27.765,6.186,29.057,17.559
				c1.292,11.375-9.622,21.955-24.378,23.631c-14.756,1.676-27.278-6.492-28.57-17.867C93.798,25.658,104.225,15.385,118.982,13.709
				z"/>
			<path style="fill-rule:evenodd;clip-rule:evenodd;fill:#91613A;" d="M123.743,55.627c-0.522,0.059-1.036,0.104-1.543,0.143
				v-7.838c0.114-0.039,0.235-0.066,0.365-0.08c2.194-0.25,2.859,3.584,6.029,3.147c3.169-0.438,2.77-7.701,2.428-10.037
				c-0.27-1.846-4.53-2.281-8.822-1.813v-1.551c5.07-0.4,10.208,0.975,10.285,4.424c0.075,3.332,2.951,8.252,6.842,5.078
				c3.376-2.756,4.355-10.392,4.351-15.019c0-0.703,5.402-2.504,5.177,0.301C147.808,37.104,143.744,53.354,123.743,55.627z
				 M122.2,55.77c-18.913,1.41-27.312-11.898-27.532-22.598c-0.85-2.684,4.673,2.627,4.654,3.33
				c-0.149,5.584,3.413,12.383,7.32,14.311c4.504,2.221,6.428-3.104,5.754-6.369c-0.831-4.025,4.449-6.426,9.804-6.846v1.551
				c-4.583,0.5-9.203,2.033-9.045,3.982c0.19,2.354,1.205,9.408,4.392,9.123c2.998-0.27,2.854-3.707,4.653-4.322V55.77z"/>
			
				<ellipse transform="matrix(-0.1129 -0.9936 0.9936 -0.1129 92.7097 149.2386)" style="fill-rule:evenodd;clip-rule:evenodd;fill:#666666;" cx="112.972" cy="33.235" rx="2.615" ry="1.494"/>
			
				<ellipse transform="matrix(-0.113 -0.9936 0.9936 -0.113 112.627 163.3265)" style="fill-rule:evenodd;clip-rule:evenodd;fill:#666666;" cx="129.216" cy="31.391" rx="2.614" ry="1.494"/>
			<path style="fill-rule:evenodd;clip-rule:evenodd;fill:#91613A;" d="M136.716,17.605c-11.644-1.871-39.821-4.547-37.245,21.105
				c0.1,0.992-4.256-5.875-4.853-4.986c0.915-12.453,15.239-21.01,28.283-20.695C127.716,13.145,132.186,13.9,136.716,17.605z"/>
			<path style="fill-rule:evenodd;clip-rule:evenodd;fill:#E7B791;" d="M131.007,40.957c-3.758,1.18-13.173,2.184-17.634,2.002
				C118.517,47.883,128.035,46.992,131.007,40.957z"/>
			<path style="fill-rule:evenodd;clip-rule:evenodd;fill:#91613A;" d="M146.25,26.016c-17.863-15.822-43.137,8.754-47.817-19.18
				C117.332,21.889,137.216,2.51,146.25,26.016z"/>
			<path style="fill-rule:evenodd;clip-rule:evenodd;fill:#91613A;" d="M146.613,29.213c-0.439-1.008-2.574,6.926-3.132,3.02
				C139.813,6.553,102.131,29.035,105.47,0c5.756,7.875,7.076,11.162,16.836,12.025C132.248,12.902,144.527,14.605,146.613,29.213z"
				/>
			<path style="fill-rule:evenodd;clip-rule:evenodd;fill:#FFD8B8;" d="M147.981,24.746c-1.487-0.232-2.91,2.141-3.178,5.303
				c-0.268,3.16,0.722,5.91,2.209,6.144c1.487,0.232,2.91-2.141,3.178-5.303C150.457,27.73,149.468,24.979,147.981,24.746z"/>
			<path style="fill-rule:evenodd;clip-rule:evenodd;fill:#FFD8B8;" d="M94.986,28.947c1.228-0.309,2.564,1.986,2.982,5.127
				c0.42,3.141-0.235,5.938-1.463,6.248c-1.229,0.309-2.564-1.986-2.983-5.127C93.104,32.055,93.759,29.256,94.986,28.947z"/>
		</g>
		<g>
			<g>
				<polygon style="fill-rule:evenodd;clip-rule:evenodd;fill:#323232;" points="118.523,147.164 115.043,131.137 112.685,118.486 
					110.173,105.137 126.328,101.695 131.347,146.869 				"/>
				<polygon style="fill-rule:evenodd;clip-rule:evenodd;fill:#323232;" points="111.892,114.27 112.095,114.232 112.686,118.486 
					112.685,118.486 				"/>
			</g>
			<g>
				<path style="fill-rule:evenodd;clip-rule:evenodd;fill:#323232;" d="M127.23,184.891l-8.707-37.729l12.654-1.83l5.147,40.305
					C133.384,186.15,130.17,184.377,127.23,184.891z"/>
				
					<ellipse transform="matrix(-0.0071 -1 1 -0.0071 -57.6698 314.1414)" style="fill-rule:evenodd;clip-rule:evenodd;fill:#1A1A1A;" cx="127.128" cy="185.702" rx="4.618" ry="9.197"/>
			</g>
		</g>
		
			<rect x="119.983" y="53.686" transform="matrix(-0.9962 -0.0871 0.0871 -0.9962 245.2639 123.727)" style="fill-rule:evenodd;clip-rule:evenodd;fill:#FFFFFF;" width="10.696" height="5.654"/>
		<polygon style="fill-rule:evenodd;clip-rule:evenodd;fill:#1A1A1A;" points="106.494,101.451 131.19,103.613 131.075,108.635 
			106.073,106.447 		"/>
		<path style="fill-rule:evenodd;clip-rule:evenodd;fill:#FFFFFF;" d="M124.424,55.451c-2.937,19.15-7.612,30.148-16.817,36.164
			l1.243-10.363l9.864-20.729l1.536-7.293L124.424,55.451z"/>
		<g>
			<path style="fill-rule:evenodd;clip-rule:evenodd;fill:#212E36;" d="M119.357,57.648c0.571-0.635,2.202-3.037,2.387-2.352
				c0.253,0.945-0.396,6.092-0.876,6.943c-0.349,0.619-1.332-2.113-1.728-2.871C119.058,58.896,119.159,58.088,119.357,57.648z"/>
			<path style="fill-rule:evenodd;clip-rule:evenodd;fill:#405059;" d="M118.651,57.152l0.601,0.076
				c0.154,0.018,0.265,0.16,0.245,0.314l-0.248,1.965c-0.02,0.154-0.161,0.264-0.315,0.244l-0.601-0.076
				c-0.154-0.02-0.265-0.16-0.245-0.314l0.248-1.965C118.355,57.242,118.497,57.133,118.651,57.152z"/>
		</g>
		<polygon style="fill-rule:evenodd;clip-rule:evenodd;fill:#323232;" points="131.117,106.965 130.753,56.326 122.552,57.402 
			108.123,86.969 106.201,104.668 		"/>
		<path style="fill-rule:evenodd;clip-rule:evenodd;fill:#1A1A1A;" d="M119.415,64.6c-5.453,12.322-16.232,28.889-28.904,39.873
			l3.085,3.41c13.173-8.658,28.489-25.135,33.783-34.123C133.703,63.027,124.914,52.17,119.415,64.6z"/>
		<path style="fill-rule:evenodd;clip-rule:evenodd;fill:#FFD8B8;" d="M86.576,103.135c-1.453,0.854-1.472,1.809-0.545,2.559
			c-2.297,0.982-3.186,3.475-2.521,4.605c1.295,2.197,4.765,2.555,7.751,0.797c2.987-1.758,4.36-4.965,3.066-7.162
			C93.033,101.734,89.564,101.377,86.576,103.135z"/>
		<path style="fill-rule:evenodd;clip-rule:evenodd;fill:#1A1A1A;" d="M136.23,131.717c-6.793-2.916-13.697-16.156-15.363-24.117
			l9.268-11.828C130.134,95.771,135.725,120.58,136.23,131.717z"/>
		<path style="fill-rule:evenodd;clip-rule:evenodd;fill:#323232;" d="M122.298,105.771l7.836-10c0,0,4.894,21.131,5.877,32.975
			C130.008,126.455,124.32,112.859,122.298,105.771z"/>
	</g>
</g>
<g>
</g>
<g>
</g>
<g>
</g>
<g>
</g>
<g>
</g>
<g>
</g>
<g>
</g>
<g>
</g>
<g>
</g>
<g>
</g>
<g>
</g>
<g>
</g>
<g>
</g>
<g>
</g>
<g>
</g>
</svg>
