<?xml version="1.0" encoding="iso-8859-1"?>
<!-- Generator: Adobe Illustrator 18.0.0, SVG Export Plug-In . SVG Version: 6.00 Build 0)  -->
<!DOCTYPE svg PUBLIC "-//W3C//DTD SVG 1.1//EN" "http://www.w3.org/Graphics/SVG/1.1/DTD/svg11.dtd">
<svg version="1.1" id="Capa_1" xmlns="http://www.w3.org/2000/svg" xmlns:xlink="http://www.w3.org/1999/xlink" x="0px" y="0px"
	 viewBox="0 0 191.35 191.35" style="enable-background:new 0 0 191.35 191.35;" xml:space="preserve">
<g>
	<g>
		<path style="fill-rule:evenodd;clip-rule:evenodd;fill:#1A1A1A;" d="M147.252,118.734c-0.681,8.828-7.372,21.412-16.239,27.803
			c-8.867-6.391-15.373-19.315-16.215-27.66c-0.841-8.344,13.902-8.855,13.902-8.855S146.429,114.441,147.252,118.734z"/>
		<path style="fill-rule:evenodd;clip-rule:evenodd;fill:#F9EDF2;" d="M81.839,12.438c22.447,0,40.822,38.094,42.348,86.327
			c-11.62,12.631-26.337,20.182-42.348,20.182c-16.01,0-30.727-7.551-42.347-20.182C41.017,50.532,59.392,12.438,81.839,12.438z"/>
		<g>
			<circle style="fill-rule:evenodd;clip-rule:evenodd;fill:#E6E6E6;" cx="131.161" cy="70.911" r="0.587"/>
			<circle style="fill-rule:evenodd;clip-rule:evenodd;fill:#E6E6E6;" cx="131.161" cy="78.329" r="0.587"/>
			<circle style="fill-rule:evenodd;clip-rule:evenodd;fill:#E6E6E6;" cx="131.161" cy="85.747" r="0.588"/>
			<circle style="fill-rule:evenodd;clip-rule:evenodd;fill:#E6E6E6;" cx="131.161" cy="93.165" r="0.588"/>
		</g>
		<path style="fill-rule:evenodd;clip-rule:evenodd;fill:#1A1A1A;" d="M109.321,65.022c-5.867,11.15-18.334,25.055-35.576,33.782
			l2.09,3.922c14.386-5.02,28.282-14.099,35.139-21.49C114.502,77.433,113.25,67.543,109.321,65.022z"/>
		<path style="fill-rule:evenodd;clip-rule:evenodd;fill:#1A1A1A;" d="M141.925,62.391c6.506,10.79,11.788,33.878,10.333,53.148
			l4.438,0.24c3.148-14.908,0.878-36.374-0.041-46.413C156.265,65.093,147.103,61.012,141.925,62.391z"/>
		<g>
			<path style="fill-rule:evenodd;clip-rule:evenodd;fill:#323232;" d="M134.019,186.885c-1.122-24.092-2.242-48.184-3.364-72.277
				c5.189,0,10.379,0,15.568,0c-1.082,24.094-2.166,48.186-3.247,72.277C139.99,186.885,137.004,186.885,134.019,186.885z"/>
			<path style="fill-rule:evenodd;clip-rule:evenodd;fill:#323232;" d="M119.424,186.885c-1.122-24.092-2.243-48.184-3.365-72.277
				c5.189,0,10.38,0,15.568,0c-1.082,24.094-2.165,48.186-3.247,72.277C125.394,186.885,122.408,186.885,119.424,186.885z"/>
		</g>
		<rect x="114.742" y="115.52" style="fill-rule:evenodd;clip-rule:evenodd;fill:#1A1A1A;" width="32.598" height="3.379"/>
		<path style="fill-rule:evenodd;clip-rule:evenodd;fill:#323232;" d="M147.34,117.115l5.669-52.232l-12.722-5.559h-18.293
			c-4.24,1.852-10.139,3.375-12.722,5.559l5.47,52.232H147.34z"/>
		<g>
			<path style="fill-rule:evenodd;clip-rule:evenodd;fill:#FFFFFF;" d="M148.921,77.355c-0.036,0.053-0.074,0.101-0.115,0.143
				c0.083,0.136,0.143,0.299,0.168,0.479c0.085,0.606-0.238,1.184-0.723,1.291c-0.054,0.012-0.108,0.018-0.161,0.017
				c-0.007,0.172-0.045,0.344-0.118,0.503c-0.246,0.532-0.791,0.715-1.217,0.407c-0.048-0.034-0.092-0.073-0.133-0.116
				c-0.093,0.126-0.211,0.228-0.349,0.29c-0.462,0.21-0.974-0.088-1.142-0.666c-0.019-0.065-0.032-0.13-0.042-0.195
				c-0.136,0.021-0.277,0.004-0.416-0.059c-0.462-0.21-0.7-0.85-0.532-1.428c0.019-0.064,0.042-0.126,0.068-0.183
				c-0.115-0.094-0.215-0.221-0.288-0.38c-0.246-0.532-0.101-1.214,0.326-1.521c0.047-0.034,0.096-0.063,0.146-0.085
				c-0.041-0.164-0.052-0.342-0.026-0.522c0.085-0.606,0.547-1.011,1.032-0.903c0.054,0.012,0.105,0.029,0.155,0.053
				c0.054-0.158,0.137-0.304,0.249-0.422c0.377-0.396,0.938-0.334,1.255,0.137c0.035,0.053,0.066,0.108,0.093,0.166
				c0.122-0.078,0.26-0.123,0.407-0.123c0.491,0,0.891,0.499,0.891,1.114c0,0.069-0.005,0.136-0.015,0.201
				c0.134,0.038,0.263,0.115,0.375,0.233C149.187,76.182,149.236,76.884,148.921,77.355z"/>
			<rect x="143.256" y="77.116" style="fill-rule:evenodd;clip-rule:evenodd;fill:#323232;" width="6.42" height="3.703"/>
		</g>
		<polygon style="fill-rule:evenodd;clip-rule:evenodd;fill:#FFFFFF;" points="121.994,59.324 131.134,103.326 140.287,59.324 		"/>
		<rect x="129.518" y="62.959" style="fill-rule:evenodd;clip-rule:evenodd;fill:#E6E6E6;" width="0.518" height="36.503"/>
		<g>
			<polygon style="fill-rule:evenodd;clip-rule:evenodd;fill:#1A1A1A;" points="121.994,59.324 113.414,68.95 123.337,77.455 
				116.249,82.062 131.134,103.326 			"/>
			<polygon style="fill-rule:evenodd;clip-rule:evenodd;fill:#1A1A1A;" points="140.287,59.324 148.853,68.95 138.931,77.455 
				146.019,82.062 131.134,103.326 			"/>
		</g>
		<polygon style="fill-rule:evenodd;clip-rule:evenodd;fill:#1A1A1A;" points="130.013,117.115 132.494,117.115 132.494,101.385 
			131.134,102.674 130.013,101.611 		"/>
		<rect x="125.436" y="45.732" style="fill-rule:evenodd;clip-rule:evenodd;fill:#E7B791;" width="11.634" height="16.417"/>
		<polygon style="fill-rule:evenodd;clip-rule:evenodd;fill:#FFFFFF;" points="121.994,59.324 125.648,55.362 131.254,59.324 
			123.662,67.342 		"/>
		<polygon style="fill-rule:evenodd;clip-rule:evenodd;fill:#FFFFFF;" points="140.287,59.324 136.52,55.014 131.254,59.324 
			138.659,67.342 		"/>
		<polygon style="fill-rule:evenodd;clip-rule:evenodd;fill:#E6E6E6;" points="123.662,67.342 131.254,63.333 138.659,67.342 
			131.254,59.324 		"/>
		<g>
			<g>
				<path style="fill-rule:evenodd;clip-rule:evenodd;fill:#212E36;" d="M132.409,62.468c1.328-0.702,4.913-3.291,5.644-2.633
					c1.005,0.906,1.005,6.092,0,6.998c-0.73,0.658-4.315-1.931-5.644-2.633C132.028,63.741,132.028,62.927,132.409,62.468z"/>
				<path style="fill-rule:evenodd;clip-rule:evenodd;fill:#212E36;" d="M129.912,62.468c-1.328-0.702-4.912-3.291-5.643-2.633
					c-1.005,0.906-1.005,6.092,0,6.998c0.73,0.658,4.314-1.931,5.643-2.633C130.294,63.741,130.294,62.927,129.912,62.468z"/>
			</g>
			<path style="fill-rule:evenodd;clip-rule:evenodd;fill:#405059;" d="M130.182,62.062h1.958c0.338,0,0.614,0.276,0.614,0.614
				v1.316c0,0.338-0.276,0.614-0.614,0.614h-1.958c-0.338,0-0.614-0.276-0.614-0.614v-1.316
				C129.567,62.338,129.844,62.062,130.182,62.062z"/>
		</g>
		<path style="fill-rule:evenodd;clip-rule:evenodd;fill:#1A1A1A;" d="M119.49,191.35c4.896,0,8.89-2.006,8.89-4.465
			s-3.993-4.465-8.89-4.465c-4.896,0-8.89,2.006-8.89,4.465S114.594,191.35,119.49,191.35z"/>
		<path style="fill-rule:evenodd;clip-rule:evenodd;fill:#1A1A1A;" d="M142.908,191.35c4.896,0,8.89-2.006,8.89-4.465
			s-3.993-4.465-8.89-4.465c-4.896,0-8.89,2.006-8.89,4.465S138.013,191.35,142.908,191.35z"/>
		<path style="fill-rule:evenodd;clip-rule:evenodd;fill:#FFD8B8;" d="M149.331,118.012c-0.474,1.559,0.137,2.25,1.287,2.178
			c-0.99,2.201,0.009,4.555,1.221,4.924c2.359,0.717,5.061-1.299,6.036-4.506c0.974-3.205-0.148-6.385-2.508-7.102
			S150.306,114.807,149.331,118.012z"/>
		<path style="fill-rule:evenodd;clip-rule:evenodd;fill:#FFD8B8;" d="M131.254,56.602c14.811,0,26.89-9.311,26.89-20.727
			s-12.079-20.728-26.89-20.728c-14.811,0-26.89,9.312-26.89,20.728S116.443,56.602,131.254,56.602z"/>
		<path style="fill-rule:evenodd;clip-rule:evenodd;fill:#91613A;" d="M131.254,57.334l-0.113-0.001v-7.849
			c2.044,0.205,2.347,3.873,5.456,3.799c3.198-0.076,3.621-7.339,3.545-9.7c-0.063-1.926-4.531-2.838-9.001-2.794v-1.556
			c5.291,0.034,10.66,1.994,10.335,5.568c-0.301,3.319,2.001,8.534,6.226,5.818c3.665-2.356,5.499-9.833,6.018-14.431
			c0.079-0.7,5.65-1.88,5.109,0.883C157.255,41.646,151.384,57.334,131.254,57.334z M131.141,57.333
			c-20.039-0.053-26.002-13.875-27.462-20.261c-0.541-2.763,5.031-1.583,5.109-0.883c0.519,4.598,2.353,12.074,6.018,14.431
			c4.225,2.716,6.737-2.358,6.437-5.678c-0.358-3.938,4.732-5.742,9.898-5.709v1.556c-4.468,0.043-8.936,1.041-8.997,2.935
			c-0.076,2.36,0.136,9.483,3.335,9.56c3.198,0.076,3.274-3.808,5.482-3.808c0.062,0,0.121,0.004,0.18,0.009V57.333z"/>
		<g>
			<path style="fill-rule:evenodd;clip-rule:evenodd;fill:#666666;" d="M123.079,36.485c0.822,0,1.494-1.174,1.494-2.614
				c0-1.44-0.672-2.615-1.494-2.615c-0.823,0-1.494,1.175-1.494,2.615C121.585,35.312,122.256,36.485,123.079,36.485z"/>
			<path style="fill-rule:evenodd;clip-rule:evenodd;fill:#666666;" d="M139.428,36.485c0.823,0,1.494-1.174,1.494-2.614
				c0-1.44-0.671-2.615-1.494-2.615c-0.823,0-1.494,1.175-1.494,2.615C137.934,35.312,138.604,36.485,139.428,36.485z"/>
		</g>
		<path style="fill-rule:evenodd;clip-rule:evenodd;fill:#91613A;" d="M148.435,21.021c-11.357-3.173-39.053-9.012-39.389,16.766
			c-0.013,0.998-3.566-6.317-4.259-5.502c2.314-12.268,17.514-19.155,30.438-17.37C139.996,15.572,144.353,16.827,148.435,21.021z"
			/>
		<path style="fill-rule:evenodd;clip-rule:evenodd;fill:#E7B791;" d="M140.127,43.578c-3.867,0.749-13.336,0.683-17.747,0
			C126.935,49.05,136.493,49.24,140.127,43.578z"/>
		<path style="fill-rule:evenodd;clip-rule:evenodd;fill:#91613A;" d="M156.959,30.454c-15.963-17.738-43.849,3.828-45.347-24.456
			C128.691,23.089,150.636,6.078,156.959,30.454z"/>
		<path style="fill-rule:evenodd;clip-rule:evenodd;fill:#91613A;" d="M156.959,33.671c-0.323-1.051-3.339,6.592-3.453,2.646
			c-0.747-25.93-40.725-7.844-34.13-36.317c4.83,8.476,5.771,11.891,15.37,13.849C144.526,15.844,156.535,18.921,156.959,33.671z"/>
		
			<ellipse transform="matrix(-0.2257 -0.9742 0.9742 -0.2257 97.0752 141.5423)" style="fill-rule:evenodd;clip-rule:evenodd;fill:#FFD8B8;" cx="104.787" cy="32.193" rx="5.761" ry="3.687"/>
		
			<ellipse transform="matrix(0.2258 -0.9742 0.9742 0.2258 89.0792 181.3176)" style="fill-rule:evenodd;clip-rule:evenodd;fill:#FFD8B8;" cx="158.614" cy="34.615" rx="5.761" ry="3.687"/>
		<path style="fill-rule:evenodd;clip-rule:evenodd;fill:#FFD8B8;" d="M81.358,68.458c-8.424,8.387-18.544,28.309-21.625,46.278
			l-4.117-0.795c0.533-14.366,5.903-34.236,10.664-42.471C68.729,67.233,77.995,65.616,81.358,68.458z"/>
		<rect x="76.002" y="57.338" style="fill-rule:evenodd;clip-rule:evenodd;fill:#E7B791;" width="11.633" height="16.417"/>
		<path style="fill-rule:evenodd;clip-rule:evenodd;fill:#FFD8B8;" d="M95.626,71.065c5.777,6.128,10.17,14.838,16.698,22.955
			l1.066,10.177c-9.05-5.829-16.816-12.887-21.005-18.626C89.5,81.618,92.604,67.862,95.626,71.065z"/>
		<g>
			<path style="fill-rule:evenodd;clip-rule:evenodd;fill:#E7B791;" d="M79.103,187.139c1.059-22.73,2.116-45.461,3.175-68.191
				c-4.896,0-9.792,0-14.688,0c1.021,22.73,2.043,45.461,3.064,68.191C73.47,187.139,76.287,187.139,79.103,187.139z"/>
			<path style="fill-rule:evenodd;clip-rule:evenodd;fill:#E7B791;" d="M92.873,187.139c1.059-22.73,2.116-45.461,3.175-68.191
				c-4.896,0-9.792,0-14.688,0c1.021,22.73,2.042,45.461,3.063,68.191C87.24,187.139,90.057,187.139,92.873,187.139z"/>
		</g>
		<path style="fill-rule:evenodd;clip-rule:evenodd;fill:#FFFFFF;" d="M92.811,191.35c4.619,0,8.387-1.893,8.387-4.213
			c0-2.318-3.768-4.211-8.387-4.211c-4.62,0-8.387,1.893-8.387,4.211C84.423,189.457,88.191,191.35,92.811,191.35z"/>
		<path style="fill-rule:evenodd;clip-rule:evenodd;fill:#FFFFFF;" d="M70.717,191.35c4.62,0,8.387-1.893,8.387-4.213
			c0-2.318-3.767-4.211-8.387-4.211c-4.619,0-8.387,1.893-8.387,4.211C62.33,189.457,66.098,191.35,70.717,191.35z"/>
		<g>
			<path style="fill-rule:evenodd;clip-rule:evenodd;fill:#FCF7F9;" d="M91.601,101.861c0.458,1.33,1.005,2.994,3.56,6.805
				c4.647,6.93,7.233,20.521,10.851,29.853c3.618,9.334,10.747,33.498,16.996,39.438c6.248,5.939,0.244,9.145-6.249,8.201
				c-6.109-0.887-9.988-0.744-13.323,1.193c-4.771,2.771-7.639,2.373-13.877,1.477c-5.808-0.836-9.755-1.162-17.638,0.303
				c-6.184,1.146-9.5,0.129-12.472-1.578c-4.283-2.461-6.627-1.978-12.62-1.394c-5.992,0.586-12.498-2.264-6.25-8.201
				c6.249-5.939,12.934-30.104,16.552-39.438c3.618-9.332,6.195-22.926,10.831-29.853c2.472-3.693,3.821-5.483,4.399-6.805H91.601z"
				/>
			<path style="fill-rule:evenodd;clip-rule:evenodd;fill:#FFE0E9;" d="M60.796,188.26c-0.462-0.219-0.908-0.455-1.347-0.707
				c-4.034-2.316-6.349-2.025-11.61-1.494c5.618-8.771,16.822-37.232,19.202-50.043C68.423,150.658,63.407,178.793,60.796,188.26z"
				/>
			<path style="fill-rule:evenodd;clip-rule:evenodd;fill:#FFE0E9;" d="M115.821,186.029c-5.574-0.738-9.224-0.514-12.386,1.322
				c-0.236,0.137-0.467,0.266-0.694,0.389c-2.646-9.881-7.461-37.342-6.104-51.725C99.017,148.813,110.197,177.229,115.821,186.029z
				"/>
			<path style="fill-rule:evenodd;clip-rule:evenodd;fill:#FFE0E9;" d="M88.872,188.73c-4.7-0.656-8.28-0.93-14.044-0.086
				c3.735-15.012,6.795-45.141,7.011-52.939C82.055,143.52,85.127,173.742,88.872,188.73z"/>
		</g>
		<path style="fill-rule:evenodd;clip-rule:evenodd;fill:#FFF4C7;" d="M81.84,44.304c10.745,0,19.508-4.888,19.508-10.88
			c0-5.993-8.763-10.881-19.508-10.881c-10.745,0-19.508,4.888-19.508,10.881C62.332,39.416,71.095,44.304,81.84,44.304z"/>
		<path style="fill-rule:evenodd;clip-rule:evenodd;fill:#91613A;" d="M81.712,40.157c9.137,0,16.588-5.599,16.588-12.464
			c0-6.864-7.452-12.464-16.588-12.464s-16.588,5.6-16.588,12.464C65.124,34.559,72.576,40.157,81.712,40.157z"/>
		<g>
			<path style="fill-rule:evenodd;clip-rule:evenodd;fill:#FFFFFF;" d="M70.626,25.731c-0.032,0.038-0.067,0.073-0.105,0.104
				c0.077,0.101,0.131,0.221,0.154,0.354c0.079,0.446-0.219,0.871-0.665,0.95c-0.05,0.009-0.099,0.013-0.149,0.013
				c-0.006,0.126-0.041,0.253-0.109,0.37c-0.227,0.392-0.728,0.526-1.121,0.3c-0.043-0.025-0.084-0.054-0.122-0.086
				c-0.086,0.093-0.194,0.167-0.321,0.214c-0.425,0.154-0.896-0.064-1.051-0.49c-0.017-0.048-0.03-0.096-0.038-0.144
				c-0.126,0.017-0.256,0.004-0.383-0.043c-0.425-0.154-0.645-0.625-0.49-1.051c0.018-0.048,0.039-0.093,0.064-0.135
				c-0.107-0.068-0.199-0.162-0.266-0.279c-0.226-0.393-0.092-0.895,0.3-1.121c0.044-0.024,0.089-0.045,0.135-0.062
				c-0.038-0.121-0.048-0.252-0.024-0.386c0.079-0.445,0.504-0.744,0.95-0.665c0.05,0.009,0.098,0.022,0.143,0.039
				c0.049-0.116,0.126-0.224,0.229-0.311c0.347-0.291,0.865-0.246,1.156,0.102c0.032,0.038,0.061,0.079,0.085,0.122
				c0.112-0.059,0.24-0.091,0.375-0.091c0.453,0,0.82,0.367,0.82,0.82c0,0.051-0.004,0.1-0.013,0.148
				c0.123,0.027,0.242,0.085,0.345,0.171C70.872,24.866,70.917,25.384,70.626,25.731z"/>
			<path style="fill-rule:evenodd;clip-rule:evenodd;fill:#FFFFFF;" d="M75.57,23.029c-0.032,0.038-0.068,0.073-0.105,0.104
				c0.077,0.101,0.131,0.221,0.154,0.354c0.079,0.446-0.219,0.871-0.666,0.95c-0.05,0.009-0.099,0.013-0.148,0.013
				c-0.006,0.126-0.042,0.253-0.109,0.37c-0.227,0.392-0.728,0.526-1.121,0.3c-0.044-0.025-0.085-0.054-0.122-0.086
				c-0.086,0.094-0.194,0.168-0.321,0.214c-0.426,0.155-0.896-0.065-1.051-0.49c-0.017-0.048-0.03-0.096-0.038-0.144
				c-0.125,0.016-0.256,0.003-0.383-0.043c-0.425-0.155-0.645-0.626-0.49-1.052c0.017-0.048,0.039-0.093,0.063-0.135
				c-0.106-0.068-0.198-0.162-0.266-0.279c-0.227-0.392-0.092-0.893,0.3-1.12c0.044-0.025,0.089-0.046,0.135-0.063
				c-0.038-0.121-0.047-0.252-0.024-0.385c0.079-0.446,0.504-0.744,0.95-0.666c0.05,0.009,0.098,0.023,0.144,0.039
				c0.049-0.116,0.125-0.224,0.229-0.311c0.347-0.291,0.864-0.246,1.155,0.102c0.033,0.039,0.061,0.079,0.085,0.122
				c0.112-0.058,0.24-0.091,0.375-0.091c0.453,0,0.82,0.367,0.82,0.82c0,0.051-0.004,0.1-0.013,0.148
				c0.123,0.027,0.242,0.084,0.345,0.172C75.816,22.165,75.861,22.683,75.57,23.029z"/>
			<path style="fill-rule:evenodd;clip-rule:evenodd;fill:#FFFFFF;" d="M81.056,21.899c-0.033,0.039-0.068,0.074-0.106,0.105
				c0.077,0.1,0.131,0.22,0.155,0.354c0.079,0.445-0.219,0.871-0.665,0.949c-0.05,0.01-0.099,0.014-0.149,0.013
				c-0.006,0.126-0.041,0.253-0.109,0.37c-0.227,0.393-0.728,0.526-1.121,0.301c-0.043-0.025-0.084-0.055-0.121-0.086
				c-0.086,0.093-0.194,0.167-0.321,0.213c-0.425,0.155-0.896-0.064-1.051-0.49c-0.018-0.047-0.03-0.096-0.039-0.144
				c-0.126,0.016-0.256,0.003-0.383-0.043c-0.425-0.155-0.645-0.626-0.49-1.052c0.017-0.047,0.038-0.092,0.063-0.135
				c-0.107-0.068-0.199-0.162-0.266-0.279c-0.226-0.392-0.092-0.893,0.3-1.12c0.044-0.025,0.089-0.046,0.135-0.063
				c-0.037-0.12-0.047-0.252-0.024-0.385c0.079-0.446,0.504-0.744,0.95-0.665c0.05,0.008,0.098,0.021,0.143,0.039
				c0.049-0.117,0.126-0.225,0.229-0.311c0.347-0.291,0.864-0.246,1.156,0.101c0.032,0.039,0.061,0.08,0.085,0.122
				c0.112-0.058,0.24-0.09,0.375-0.09c0.453,0,0.82,0.367,0.82,0.819c0,0.051-0.005,0.101-0.014,0.148
				c0.123,0.028,0.242,0.085,0.345,0.172C81.301,21.035,81.347,21.553,81.056,21.899z"/>
			<path style="fill-rule:evenodd;clip-rule:evenodd;fill:#FFFFFF;" d="M92.551,25.731c0.032,0.038,0.067,0.073,0.105,0.104
				c-0.076,0.101-0.131,0.221-0.154,0.354c-0.079,0.446,0.219,0.871,0.665,0.95c0.05,0.009,0.099,0.013,0.148,0.013
				c0.006,0.126,0.041,0.253,0.109,0.37c0.227,0.392,0.728,0.526,1.12,0.3c0.044-0.025,0.084-0.054,0.122-0.086
				c0.086,0.093,0.195,0.167,0.322,0.214c0.425,0.154,0.896-0.064,1.051-0.49c0.017-0.048,0.03-0.096,0.038-0.144
				c0.125,0.017,0.256,0.004,0.383-0.043c0.426-0.154,0.646-0.625,0.49-1.051c-0.017-0.048-0.038-0.093-0.063-0.135
				c0.105-0.068,0.198-0.162,0.266-0.279c0.227-0.393,0.092-0.895-0.301-1.121c-0.044-0.024-0.089-0.045-0.135-0.062
				c0.038-0.121,0.048-0.252,0.024-0.386c-0.079-0.445-0.504-0.744-0.95-0.665c-0.05,0.009-0.098,0.022-0.144,0.039
				c-0.05-0.116-0.126-0.224-0.229-0.311c-0.347-0.291-0.864-0.246-1.155,0.102c-0.033,0.038-0.061,0.079-0.085,0.122
				c-0.112-0.059-0.24-0.091-0.375-0.091c-0.453,0-0.82,0.367-0.82,0.82c0,0.051,0.005,0.1,0.014,0.148
				c-0.124,0.027-0.242,0.085-0.345,0.171C92.305,24.866,92.259,25.384,92.551,25.731z"/>
			<path style="fill-rule:evenodd;clip-rule:evenodd;fill:#FFFFFF;" d="M87.606,23.029c0.033,0.038,0.067,0.073,0.105,0.104
				c-0.077,0.101-0.131,0.221-0.154,0.354c-0.079,0.446,0.219,0.871,0.665,0.95c0.05,0.009,0.1,0.013,0.148,0.013
				c0.006,0.126,0.041,0.253,0.109,0.37c0.227,0.392,0.728,0.526,1.121,0.3c0.043-0.025,0.084-0.054,0.122-0.086
				c0.086,0.094,0.194,0.168,0.321,0.214c0.426,0.155,0.896-0.065,1.051-0.49c0.017-0.048,0.03-0.096,0.038-0.144
				c0.125,0.016,0.256,0.003,0.383-0.043c0.425-0.155,0.645-0.626,0.49-1.052c-0.018-0.048-0.039-0.093-0.063-0.135
				c0.106-0.068,0.199-0.162,0.266-0.279c0.227-0.392,0.092-0.893-0.3-1.12c-0.044-0.025-0.089-0.046-0.135-0.063
				c0.037-0.121,0.047-0.252,0.024-0.385c-0.079-0.446-0.504-0.744-0.95-0.666c-0.05,0.009-0.098,0.023-0.144,0.039
				c-0.049-0.116-0.126-0.224-0.229-0.311c-0.347-0.291-0.864-0.246-1.156,0.102c-0.032,0.039-0.06,0.079-0.085,0.122
				c-0.112-0.058-0.24-0.091-0.375-0.091c-0.453,0-0.82,0.367-0.82,0.82c0,0.051,0.004,0.1,0.013,0.148
				c-0.123,0.027-0.242,0.084-0.345,0.172C87.36,22.165,87.315,22.683,87.606,23.029z"/>
			<path style="fill-rule:evenodd;clip-rule:evenodd;fill:#FFFFFF;" d="M82.121,21.899c0.033,0.039,0.068,0.074,0.105,0.105
				c-0.076,0.1-0.131,0.22-0.154,0.354c-0.079,0.445,0.219,0.871,0.665,0.949c0.05,0.01,0.099,0.014,0.148,0.013
				c0.006,0.126,0.041,0.253,0.109,0.37c0.227,0.393,0.728,0.526,1.12,0.301c0.044-0.025,0.084-0.055,0.122-0.086
				c0.086,0.093,0.195,0.167,0.322,0.213c0.425,0.155,0.896-0.064,1.051-0.49c0.018-0.047,0.03-0.096,0.039-0.144
				c0.125,0.016,0.256,0.003,0.383-0.043c0.425-0.155,0.645-0.626,0.49-1.052c-0.018-0.047-0.039-0.092-0.063-0.135
				c0.106-0.068,0.198-0.162,0.266-0.279c0.227-0.392,0.092-0.893-0.3-1.12c-0.044-0.025-0.089-0.046-0.135-0.063
				c0.038-0.12,0.047-0.252,0.024-0.385c-0.079-0.446-0.504-0.744-0.95-0.665c-0.05,0.008-0.098,0.021-0.144,0.039
				c-0.049-0.117-0.126-0.225-0.229-0.311c-0.347-0.291-0.864-0.246-1.155,0.101c-0.033,0.039-0.061,0.08-0.085,0.122
				c-0.112-0.058-0.24-0.09-0.375-0.09c-0.453,0-0.82,0.367-0.82,0.819c0,0.051,0.004,0.101,0.013,0.148
				c-0.124,0.028-0.242,0.085-0.345,0.172C81.875,21.035,81.83,21.553,82.121,21.899z"/>
		</g>
		<path style="fill-rule:evenodd;clip-rule:evenodd;fill:#FFD8B8;" d="M81.712,64.843c13.972,0,25.369-8.785,25.369-19.556
			S95.685,25.731,81.712,25.731c-13.973,0-25.369,8.785-25.369,19.556S67.74,64.843,81.712,64.843z"/>
		<path style="fill-rule:evenodd;clip-rule:evenodd;fill:#91613A;" d="M56.92,48.152c1.431-1.717,2.105,5.827,3.416-2.929
			c1.315-8.787,8.396-19.211,20.705-16.919c15.104-2.731,21.645,10.243,22.129,17.235c0.308,4.442,2.704,0.572,3.412,1.732
			c2.549-14.203-9.962-24.614-25.613-24.302C68.222,23.226,55.332,29.616,56.92,48.152z"/>
		<g>
			<path style="fill-rule:evenodd;clip-rule:evenodd;fill:#666666;" d="M89.425,47.192c0.777,0,1.41-1.107,1.41-2.467
				c0-1.359-0.633-2.467-1.41-2.467c-0.776,0-1.41,1.108-1.41,2.467C88.015,46.085,88.648,47.192,89.425,47.192z"/>
			<path style="fill-rule:evenodd;clip-rule:evenodd;fill:#666666;" d="M74.001,47.192c0.776,0,1.41-1.107,1.41-2.467
				c0-1.359-0.633-2.467-1.41-2.467s-1.41,1.108-1.41,2.467C72.591,46.085,73.225,47.192,74.001,47.192z"/>
		</g>
		<g>
			<path style="fill-rule:evenodd;clip-rule:evenodd;fill:#91613A;" d="M96.997,70.408c4.999-25.257-7.859-41.252-15.285-42.161
				C92.092,25.127,106.194,42.185,96.997,70.408z"/>
			<path style="fill-rule:evenodd;clip-rule:evenodd;fill:#91613A;" d="M66.428,70.408c-4.999-25.257,7.859-41.252,15.284-42.161
				C71.332,25.127,57.231,42.185,66.428,70.408z"/>
		</g>
		<path style="fill-rule:evenodd;clip-rule:evenodd;fill:#E7B791;" d="M90.586,52.665c-3.617,2.85-13.095,2.74-17.747,0
			C77.394,58.137,86.952,58.327,90.586,52.665z"/>
		<path style="fill-rule:evenodd;clip-rule:evenodd;fill:#FFD8B8;" d="M74.483,103.779c-1.512-7.53-3.983-14.853-5.494-22.38
			c-0.711-3.543-0.465-7.293-1.176-10.837l8.09-3.535h11.633c2.697,1.382,6.357,2.317,8.09,4.145
			c-0.673,3.369-0.455,6.855-1.134,10.228c-1.509,7.494-3.926,14.879-5.446,22.38H74.483z"/>
		<path style="fill-rule:evenodd;clip-rule:evenodd;fill:#FCF7F9;" d="M72.439,103.777L69.176,82.21
			c-0.057-0.264-0.088-0.535-0.088-0.811c0-2.804,3.082-5.076,6.884-5.076c2.481,0,4.657,0.969,5.868,2.42
			c1.211-1.451,3.386-2.42,5.868-2.42c3.802,0,6.884,2.272,6.884,5.076c0,0.267-0.028,0.529-0.082,0.785l-3.19,21.593H72.439z"/>
		<path style="fill-rule:evenodd;clip-rule:evenodd;fill:#FFD8B8;" d="M72.201,106.051c1.635,0,2.969-1.728,2.969-3.848
			c0-2.12-1.334-3.848-2.969-3.848c-1.635,0-2.969,1.729-2.969,3.848C69.232,104.322,70.566,106.051,72.201,106.051z"/>
		
			<ellipse transform="matrix(-0.2257 -0.9742 0.9742 -0.2257 24.9449 110.3998)" style="fill-rule:evenodd;clip-rule:evenodd;fill:#FFD8B8;" cx="56.344" cy="45.287" rx="5.761" ry="3.687"/>
		
			<ellipse transform="matrix(0.2257 -0.9742 0.9742 0.2257 38.5329 139.5888)" style="fill-rule:evenodd;clip-rule:evenodd;fill:#FFD8B8;" cx="107.079" cy="45.554" rx="5.761" ry="3.687"/>
		<g>
			<path style="fill:#FFE0E9;" d="M40.199,121.588c-1.899,0.736-3.048,1.475-3.383,2.248l-0.002,0.006
				c-0.249,0.576,0.068,1.424,0.996,2.588c2.207,2.772,1.677,4.914,0.029,6.602c-1.247,1.277-3.142,2.059-4.684,2.646
				c-0.319,0.123-0.417,0.359-0.368,0.664c0.154,0.955,0.864,2.24,1.853,3.662l-3.139,2.186c-1.298-1.867-2.249-3.668-2.502-5.234
				c-0.358-2.215,0.389-3.938,2.795-4.855c1.182-0.451,2.616-1.029,3.31-1.74c0.294-0.301,0.318-0.771-0.295-1.541
				c-1.893-2.375-2.365-4.514-1.504-6.5l0,0.002c0.777-1.787,2.639-3.186,5.514-4.299L40.199,121.588z"/>
			<path style="fill:#FFE0E9;" d="M45.612,123.381c-1.322,1.545-1.982,2.742-1.911,3.588c0.053,0.623,0.731,1.219,2.094,1.801
				c3.263,1.398,3.812,3.541,3.159,5.811c-0.493,1.711-1.789,3.297-2.868,4.543c-0.226,0.262-0.202,0.518-0.014,0.762
				c0.578,0.756,1.815,1.551,3.369,2.34l-1.731,3.424c-2.019-1.025-3.706-2.162-4.681-3.436c-1.364-1.781-1.523-3.65,0.158-5.596
				c0.829-0.957,1.818-2.15,2.093-3.107c0.115-0.4-0.085-0.822-0.983-1.207c-2.799-1.197-4.23-2.859-4.413-5.016
				c-0.164-1.936,0.814-4.051,2.823-6.398L45.612,123.381z"/>
		</g>
		<path style="fill-rule:evenodd;clip-rule:evenodd;fill:#FFE0E9;" d="M62.457,108.188c-0.059,0.287-0.143,0.563-0.249,0.824
			c0.667,0.303,1.273,0.764,1.759,1.377c1.628,2.057,1.281,5.043-0.775,6.67c-0.23,0.182-0.471,0.34-0.72,0.473
			c0.316,0.66,0.484,1.402,0.462,2.184c-0.075,2.623-2.26,4.688-4.881,4.613c-0.292-0.01-0.579-0.043-0.855-0.102
			c-0.182,0.709-0.53,1.385-1.05,1.971c-1.742,1.961-4.743,2.137-6.704,0.394c-0.219-0.193-0.416-0.404-0.59-0.627
			c-0.595,0.426-1.297,0.721-2.071,0.834c-2.595,0.383-5.007-1.41-5.39-4.006c-0.042-0.289-0.058-0.576-0.048-0.859
			c-0.73-0.057-1.457-0.281-2.123-0.691c-2.233-1.377-2.929-4.301-1.554-6.533c0.153-0.25,0.326-0.48,0.516-0.691
			c-0.523-0.512-0.935-1.152-1.182-1.894c-0.826-2.488,0.521-5.176,3.01-6.002c0.278-0.094,0.559-0.158,0.839-0.197
			c-0.072-0.729,0.024-1.484,0.313-2.211c0.966-2.439,3.726-3.631,6.164-2.664c0.272,0.107,0.529,0.236,0.769,0.387
			c0.413-0.604,0.973-1.121,1.661-1.493c2.308-1.246,5.188-0.387,6.434,1.922c0.139,0.256,0.252,0.521,0.34,0.791
			c0.705-0.197,1.466-0.234,2.232-0.076C61.331,103.107,62.985,105.619,62.457,108.188z"/>
	</g>
</g>
<g>
</g>
<g>
</g>
<g>
</g>
<g>
</g>
<g>
</g>
<g>
</g>
<g>
</g>
<g>
</g>
<g>
</g>
<g>
</g>
<g>
</g>
<g>
</g>
<g>
</g>
<g>
</g>
<g>
</g>
</svg>
