<?xml version="1.0" encoding="iso-8859-1"?>
<!-- Generator: Adobe Illustrator 18.0.0, SVG Export Plug-In . SVG Version: 6.00 Build 0)  -->
<!DOCTYPE svg PUBLIC "-//W3C//DTD SVG 1.1//EN" "http://www.w3.org/Graphics/SVG/1.1/DTD/svg11.dtd">
<svg version="1.1" id="Capa_1" xmlns="http://www.w3.org/2000/svg" xmlns:xlink="http://www.w3.org/1999/xlink" x="0px" y="0px"
	 viewBox="0 0 254.152 254.152" style="enable-background:new 0 0 254.152 254.152;" xml:space="preserve">
<g>
	<g>
		<g>
			<path style="fill-rule:evenodd;clip-rule:evenodd;fill:#1A1A1A;" d="M205.205,150.298c-0.681,8.829-7.373,21.413-16.239,27.803
				c-8.867-6.39-15.517-19.457-16.358-27.803c-0.841-8.345,14.046-8.712,14.046-8.712S204.382,146.004,205.205,150.298z"/>
			<path style="fill-rule:evenodd;clip-rule:evenodd;fill:#1A1A1A;" d="M205.908,90.016c12.081-3.577,26.904-13.542,38.829-28.748
				l3.439,2.815c-7.732,13.129-26.958,33.418-35.545,38.698C208.213,105.499,207.612,94.362,205.908,90.016z"/>
			<path style="fill-rule:evenodd;clip-rule:evenodd;fill:#FFD8B8;" d="M245.419,56.288c0.895-1.362,1.816-1.335,2.497-0.404
				c1.06-2.169,3.508-2.907,4.566-2.212c2.061,1.355,2.238,4.723,0.398,7.521c-1.84,2.8-5.003,3.971-7.063,2.616
				C243.757,62.455,243.578,59.088,245.419,56.288z"/>
			<g>
				<circle style="fill-rule:evenodd;clip-rule:evenodd;fill:#E6E6E6;" cx="189.025" cy="102.311" r="0.587"/>
				<circle style="fill-rule:evenodd;clip-rule:evenodd;fill:#E6E6E6;" cx="189.025" cy="109.73" r="0.587"/>
				<circle style="fill-rule:evenodd;clip-rule:evenodd;fill:#E6E6E6;" cx="189.025" cy="117.148" r="0.587"/>
				<circle style="fill-rule:evenodd;clip-rule:evenodd;fill:#E6E6E6;" cx="189.025" cy="124.566" r="0.588"/>
			</g>
			<path style="fill-rule:evenodd;clip-rule:evenodd;fill:#1A1A1A;" d="M167.186,96.424c-4.52,11.761-15.27,27.031-31.371,37.719
				l2.536,3.65c13.697-6.672,26.434-17.316,32.377-25.461C173.786,108.141,171.384,98.466,167.186,96.424z"/>
			<g>
				<path style="fill-rule:evenodd;clip-rule:evenodd;fill:#323232;" d="M191.884,218.286c-1.122-24.093-2.243-48.186-3.365-72.278
					c5.189,0,10.38,0,15.569,0c-1.082,24.093-2.166,48.186-3.248,72.278C197.854,218.286,194.869,218.286,191.884,218.286z"/>
				<path style="fill-rule:evenodd;clip-rule:evenodd;fill:#323232;" d="M177.288,218.286c-1.122-24.093-2.242-48.186-3.364-72.278
					c5.188,0,10.379,0,15.568,0c-1.082,24.093-2.165,48.186-3.247,72.278C183.26,218.286,180.273,218.286,177.288,218.286z"/>
			</g>
			<rect x="172.607" y="146.919" style="fill-rule:evenodd;clip-rule:evenodd;fill:#1A1A1A;" width="32.598" height="3.379"/>
			<path style="fill-rule:evenodd;clip-rule:evenodd;fill:#323232;" d="M205.205,148.515l7.426-45.733l-5.375-12.889
				c-3.515-0.202-6.251,0.459-9.104,0.832h-18.292c-4.241,1.853-10.14,3.374-12.722,5.559l5.47,52.231H205.205z"/>
			<g>
				<path style="fill-rule:evenodd;clip-rule:evenodd;fill:#FFFFFF;" d="M206.785,108.757c-0.035,0.052-0.073,0.1-0.114,0.143
					c0.083,0.136,0.142,0.299,0.168,0.479c0.085,0.605-0.238,1.184-0.723,1.291c-0.055,0.012-0.108,0.018-0.161,0.017
					c-0.007,0.171-0.046,0.344-0.119,0.503c-0.246,0.532-0.79,0.715-1.217,0.407c-0.047-0.034-0.091-0.073-0.132-0.116
					c-0.093,0.126-0.211,0.227-0.349,0.289c-0.463,0.211-0.974-0.088-1.142-0.665c-0.02-0.065-0.033-0.13-0.042-0.195
					c-0.136,0.021-0.278,0.004-0.416-0.059c-0.463-0.211-0.701-0.85-0.532-1.428c0.019-0.064,0.041-0.126,0.068-0.183
					c-0.115-0.094-0.216-0.221-0.289-0.38c-0.246-0.533-0.1-1.214,0.326-1.522c0.048-0.033,0.097-0.061,0.146-0.084
					c-0.04-0.164-0.052-0.342-0.025-0.523c0.085-0.605,0.547-1.01,1.031-0.902c0.055,0.012,0.107,0.029,0.156,0.052
					c0.053-0.158,0.137-0.304,0.249-0.421c0.377-0.396,0.939-0.334,1.255,0.137c0.035,0.053,0.065,0.108,0.092,0.166
					c0.122-0.078,0.261-0.123,0.407-0.123c0.492,0,0.892,0.499,0.892,1.114c0,0.068-0.006,0.136-0.015,0.201
					c0.134,0.038,0.263,0.115,0.375,0.233C207.053,107.583,207.102,108.285,206.785,108.757z"/>
				<rect x="201.12" y="108.517" style="fill-rule:evenodd;clip-rule:evenodd;fill:#323232;" width="6.42" height="3.703"/>
			</g>
			<polygon style="fill-rule:evenodd;clip-rule:evenodd;fill:#FFFFFF;" points="179.859,90.725 188.999,134.726 198.151,90.725 			
				"/>
			<rect x="187.382" y="94.359" style="fill-rule:evenodd;clip-rule:evenodd;fill:#E6E6E6;" width="0.52" height="36.505"/>
			<g>
				<polygon style="fill-rule:evenodd;clip-rule:evenodd;fill:#1A1A1A;" points="179.859,90.725 171.279,100.35 181.201,108.855 
					174.114,113.463 188.999,134.726 				"/>
				<polygon style="fill-rule:evenodd;clip-rule:evenodd;fill:#1A1A1A;" points="198.151,90.725 206.719,100.35 196.796,108.855 
					203.884,113.463 188.999,134.726 				"/>
			</g>
			<polygon style="fill-rule:evenodd;clip-rule:evenodd;fill:#1A1A1A;" points="187.878,148.515 190.358,148.515 190.358,132.785 
				188.999,134.074 187.878,133.012 			"/>
			<rect x="183.302" y="77.134" style="fill-rule:evenodd;clip-rule:evenodd;fill:#E7B791;" width="11.633" height="16.416"/>
			<polygon style="fill-rule:evenodd;clip-rule:evenodd;fill:#FFFFFF;" points="179.859,90.725 183.514,86.764 189.118,90.725 
				181.527,98.743 			"/>
			<polygon style="fill-rule:evenodd;clip-rule:evenodd;fill:#FFFFFF;" points="198.151,90.725 194.386,86.415 189.118,90.725 
				196.524,98.743 			"/>
			<polygon style="fill-rule:evenodd;clip-rule:evenodd;fill:#E6E6E6;" points="181.527,98.743 189.118,94.734 196.524,98.743 
				189.118,90.725 			"/>
			<g>
				<g>
					<path style="fill-rule:evenodd;clip-rule:evenodd;fill:#212E36;" d="M190.274,93.869c1.328-0.702,4.913-3.291,5.644-2.633
						c1.005,0.905,1.005,6.092,0,6.998c-0.73,0.657-4.316-1.931-5.644-2.633C189.893,95.142,189.893,94.328,190.274,93.869z"/>
					<path style="fill-rule:evenodd;clip-rule:evenodd;fill:#212E36;" d="M187.777,93.869c-1.328-0.702-4.913-3.291-5.643-2.633
						c-1.006,0.905-1.006,6.092,0,6.998c0.73,0.657,4.314-1.931,5.643-2.633C188.158,95.142,188.158,94.328,187.777,93.869z"/>
				</g>
				<path style="fill-rule:evenodd;clip-rule:evenodd;fill:#405059;" d="M188.047,93.463h1.958c0.338,0,0.614,0.276,0.614,0.614
					v1.316c0,0.338-0.276,0.614-0.614,0.614h-1.958c-0.338,0-0.614-0.276-0.614-0.614v-1.316
					C187.433,93.739,187.709,93.463,188.047,93.463z"/>
			</g>
			<path style="fill-rule:evenodd;clip-rule:evenodd;fill:#1A1A1A;" d="M177.355,222.751c4.895,0,8.89-2.006,8.89-4.466
				c0-2.459-3.994-4.465-8.89-4.465c-4.896,0-8.891,2.006-8.891,4.465C168.465,220.745,172.459,222.751,177.355,222.751z"/>
			<path style="fill-rule:evenodd;clip-rule:evenodd;fill:#1A1A1A;" d="M200.773,222.751c4.896,0,8.89-2.006,8.89-4.466
				c0-2.459-3.993-4.465-8.89-4.465s-8.89,2.006-8.89,4.465C191.884,220.745,195.877,222.751,200.773,222.751z"/>
			<path style="fill-rule:evenodd;clip-rule:evenodd;fill:#FFD8B8;" d="M130.343,134.846c-1.222,1.079-1.065,1.986-0.048,2.529
				c-1.999,1.354-2.384,3.883-1.546,4.832c1.632,1.85,4.991,1.551,7.503-0.666c2.512-2.217,3.225-5.513,1.594-7.361
				C136.214,132.33,132.854,132.629,130.343,134.846z"/>
			<path style="fill-rule:evenodd;clip-rule:evenodd;fill:#FFD8B8;" d="M189.118,88.003c14.811,0,26.891-9.312,26.891-20.727
				c0-11.416-12.08-20.728-26.891-20.728c-14.811,0-26.89,9.312-26.89,20.728C162.229,78.691,174.308,88.003,189.118,88.003z"/>
			<path style="fill-rule:evenodd;clip-rule:evenodd;fill:#91613A;" d="M189.118,88.734l-0.112-0.001v-7.848
				c2.043,0.204,2.346,3.873,5.456,3.799c3.198-0.077,3.621-7.34,3.545-9.7c-0.063-1.926-4.532-2.838-9.001-2.795v-1.555
				c5.29,0.034,10.659,1.994,10.335,5.568c-0.302,3.319,2.001,8.534,6.226,5.818c3.665-2.356,5.499-9.834,6.018-14.432
				c0.078-0.699,5.65-1.879,5.109,0.884C215.12,73.047,209.249,88.734,189.118,88.734z M189.006,88.733
				c-20.039-0.052-26.002-13.874-27.462-20.26c-0.541-2.763,5.03-1.583,5.109-0.884c0.519,4.598,2.353,12.075,6.018,14.432
				c4.225,2.716,6.737-2.358,6.436-5.678c-0.357-3.938,4.733-5.742,9.899-5.709v1.555c-4.469,0.044-8.937,1.042-8.997,2.936
				c-0.076,2.36,0.136,9.482,3.334,9.56c3.199,0.076,3.274-3.808,5.483-3.808c0.061,0,0.121,0.003,0.18,0.009V88.733z"/>
			<g>
				<path style="fill-rule:evenodd;clip-rule:evenodd;fill:#666666;" d="M180.943,67.887c0.823,0,1.494-1.175,1.494-2.615
					c0-1.439-0.671-2.614-1.494-2.614c-0.822,0-1.494,1.175-1.494,2.614C179.449,66.712,180.121,67.887,180.943,67.887z"/>
				<path style="fill-rule:evenodd;clip-rule:evenodd;fill:#666666;" d="M197.293,67.887c0.822,0,1.494-1.175,1.494-2.615
					c0-1.439-0.672-2.614-1.494-2.614c-0.823,0-1.494,1.175-1.494,2.614C195.799,66.712,196.47,67.887,197.293,67.887z"/>
			</g>
			<path style="fill-rule:evenodd;clip-rule:evenodd;fill:#91613A;" d="M206.3,52.422c-11.358-3.173-39.054-9.013-39.389,16.766
				c-0.013,0.998-3.566-6.317-4.26-5.502c2.314-12.269,17.515-19.155,30.439-17.371C197.86,46.973,202.218,48.228,206.3,52.422z"/>
			<path style="fill-rule:evenodd;clip-rule:evenodd;fill:#E7B791;" d="M197.992,74.979c-3.868,0.749-13.336,0.683-17.748,0
				C184.8,80.451,194.357,80.64,197.992,74.979z"/>
			<path style="fill-rule:evenodd;clip-rule:evenodd;fill:#91613A;" d="M214.824,61.854c-15.964-17.737-43.85,3.829-45.347-24.455
				C186.557,54.49,208.501,37.479,214.824,61.854z"/>
			<path style="fill-rule:evenodd;clip-rule:evenodd;fill:#91613A;" d="M214.824,65.072c-0.323-1.051-3.339,6.591-3.453,2.646
				c-0.747-25.93-40.725-7.845-34.13-36.317c4.83,8.476,5.77,11.89,15.37,13.849C202.392,47.245,214.4,50.322,214.824,65.072z"/>
			
				<ellipse transform="matrix(-0.2257 -0.9742 0.9742 -0.2257 137.4105 236.403)" style="fill-rule:evenodd;clip-rule:evenodd;fill:#FFD8B8;" cx="162.652" cy="63.595" rx="5.761" ry="3.688"/>
			
				<ellipse transform="matrix(0.2257 -0.9742 0.9742 0.2257 103.3049 262.0087)" style="fill-rule:evenodd;clip-rule:evenodd;fill:#FFD8B8;" cx="216.479" cy="66.016" rx="5.761" ry="3.687"/>
		</g>
		<path style="fill-rule:evenodd;clip-rule:evenodd;fill:#F9EDF2;" d="M86.574,43.84c22.447,0,40.822,38.094,42.348,86.327
			c-11.62,12.63-26.337,20.181-42.348,20.181c-16.01,0-30.727-7.551-42.347-20.181C45.753,81.933,64.128,43.84,86.574,43.84z"/>
		<rect x="80.738" y="88.739" style="fill-rule:evenodd;clip-rule:evenodd;fill:#E7B791;" width="11.633" height="16.416"/>
		<path style="fill-rule:evenodd;clip-rule:evenodd;fill:#FFD8B8;" d="M100.361,102.467c8.898,9.437,14.508,24.999,29.697,35.082
			l-2.393,3.444c-12.924-6.296-24.94-16.338-30.546-24.021C94.236,113.019,97.34,99.264,100.361,102.467z"/>
		<path style="fill-rule:evenodd;clip-rule:evenodd;fill:#FFD8B8;" d="M78.182,102.847c-11.591-2.637-30.741-14.15-42.889-27.745
			l-3.067,2.859c8.075,11.893,30.014,29.885,41.599,34.84C78.323,114.724,76.84,107.041,78.182,102.847z"/>
		<g>
			<path style="fill-rule:evenodd;clip-rule:evenodd;fill:#E7B791;" d="M83.839,218.539c1.059-22.73,2.116-45.461,3.175-68.191
				c-4.896,0-9.793,0-14.688,0c1.021,22.73,2.042,45.461,3.063,68.191C78.205,218.539,81.022,218.539,83.839,218.539z"/>
			<path style="fill-rule:evenodd;clip-rule:evenodd;fill:#E7B791;" d="M97.608,218.539c1.06-22.73,2.116-45.461,3.175-68.191
				c-4.896,0-9.792,0-14.688,0c1.021,22.73,2.043,45.461,3.063,68.191C91.976,218.539,94.793,218.539,97.608,218.539z"/>
		</g>
		<path style="fill-rule:evenodd;clip-rule:evenodd;fill:#FFFFFF;" d="M97.546,222.751c4.62,0,8.388-1.893,8.388-4.213
			s-3.768-4.213-8.388-4.213c-4.619,0-8.387,1.893-8.387,4.213S92.927,222.751,97.546,222.751z"/>
		<path style="fill-rule:evenodd;clip-rule:evenodd;fill:#FFFFFF;" d="M75.452,222.751c4.619,0,8.388-1.893,8.388-4.213
			s-3.769-4.213-8.388-4.213c-4.619,0-8.387,1.893-8.387,4.213S70.833,222.751,75.452,222.751z"/>
		<g>
			<path style="fill-rule:evenodd;clip-rule:evenodd;fill:#FCF7F9;" d="M96.337,133.263c0.457,1.329,1.004,2.993,3.56,6.804
				c4.646,6.93,7.232,20.521,10.851,29.855c3.618,9.333,10.747,33.497,16.996,39.436c6.249,5.939,0.244,9.145-6.249,8.201
				c-6.109-0.887-9.987-0.744-13.323,1.193c-4.771,2.771-7.638,2.374-13.877,1.477c-5.808-0.836-9.754-1.161-17.638,0.303
				c-6.183,1.146-9.5,0.129-12.471-1.577c-4.284-2.462-6.628-1.979-12.62-1.395c-5.992,0.585-12.498-2.263-6.25-8.201
				c6.249-5.939,12.935-30.104,16.553-39.436c3.618-9.333,6.194-22.926,10.831-29.855c2.471-3.694,3.82-5.483,4.398-6.804H96.337z"
				/>
			<path style="fill-rule:evenodd;clip-rule:evenodd;fill:#FFE0E9;" d="M65.532,219.66c-0.462-0.218-0.908-0.455-1.348-0.706
				c-4.034-2.317-6.348-2.026-11.609-1.495c5.617-8.771,16.821-37.232,19.202-50.042C73.159,182.057,68.143,210.194,65.532,219.66z"
				/>
			<path style="fill-rule:evenodd;clip-rule:evenodd;fill:#FFE0E9;" d="M120.557,217.429c-5.574-0.737-9.224-0.513-12.386,1.323
				c-0.235,0.137-0.467,0.266-0.693,0.388c-2.646-9.88-7.462-37.342-6.104-51.723C103.752,180.213,114.933,208.629,120.557,217.429z
				"/>
			<path style="fill-rule:evenodd;clip-rule:evenodd;fill:#FFE0E9;" d="M93.607,220.131c-4.699-0.657-8.279-0.929-14.043-0.086
				c3.734-15.012,6.795-45.141,7.011-52.939C86.791,174.92,89.863,205.142,93.607,220.131z"/>
		</g>
		<path style="fill-rule:evenodd;clip-rule:evenodd;fill:#FFD8B8;" d="M133.028,137.243c1.152,1.018,1.005,1.874,0.045,2.386
			c1.886,1.277,2.249,3.663,1.458,4.56c-1.539,1.744-4.708,1.462-7.078-0.629c-2.369-2.092-3.043-5.201-1.504-6.945
			C127.489,134.87,130.658,135.151,133.028,137.243z"/>
		<path style="fill-rule:evenodd;clip-rule:evenodd;fill:#FFF4C7;" d="M86.575,75.705c10.745,0,19.509-4.888,19.509-10.881
			c0-5.992-8.764-10.88-19.509-10.88c-10.744,0-19.508,4.888-19.508,10.88C67.067,70.817,75.831,75.705,86.575,75.705z"/>
		<path style="fill-rule:evenodd;clip-rule:evenodd;fill:#91613A;" d="M86.448,71.558c9.137,0,16.588-5.599,16.588-12.464
			c0-6.865-7.451-12.464-16.588-12.464s-16.589,5.599-16.589,12.464C69.859,65.96,77.312,71.558,86.448,71.558z"/>
		<g>
			<path style="fill-rule:evenodd;clip-rule:evenodd;fill:#FFFFFF;" d="M75.362,57.133c-0.033,0.038-0.068,0.073-0.106,0.105
				c0.077,0.101,0.132,0.22,0.155,0.353c0.078,0.446-0.22,0.872-0.666,0.95c-0.05,0.009-0.099,0.013-0.148,0.013
				c-0.007,0.126-0.042,0.253-0.109,0.37c-0.227,0.393-0.729,0.526-1.12,0.3c-0.044-0.025-0.085-0.055-0.122-0.086
				c-0.086,0.093-0.194,0.167-0.321,0.214c-0.426,0.154-0.896-0.065-1.052-0.49c-0.017-0.048-0.029-0.096-0.038-0.144
				c-0.125,0.016-0.256,0.003-0.383-0.044c-0.426-0.154-0.646-0.625-0.49-1.051c0.017-0.048,0.039-0.093,0.063-0.135
				c-0.106-0.068-0.198-0.162-0.267-0.279c-0.226-0.393-0.092-0.895,0.301-1.121c0.044-0.025,0.089-0.046,0.135-0.063
				c-0.037-0.12-0.047-0.252-0.024-0.385c0.079-0.445,0.505-0.744,0.951-0.665c0.049,0.009,0.098,0.022,0.143,0.039
				c0.049-0.116,0.125-0.224,0.229-0.311c0.347-0.291,0.864-0.246,1.155,0.102c0.033,0.038,0.062,0.079,0.085,0.122
				c0.112-0.059,0.24-0.091,0.375-0.091c0.453,0,0.82,0.367,0.82,0.819c0,0.051-0.004,0.102-0.014,0.148
				c0.124,0.028,0.242,0.085,0.346,0.172C75.607,56.267,75.653,56.785,75.362,57.133z"/>
			<path style="fill-rule:evenodd;clip-rule:evenodd;fill:#FFFFFF;" d="M80.306,54.431c-0.032,0.038-0.067,0.073-0.105,0.104
				c0.077,0.102,0.132,0.221,0.155,0.354c0.078,0.446-0.22,0.871-0.666,0.95c-0.05,0.009-0.1,0.013-0.148,0.013
				c-0.006,0.126-0.041,0.253-0.108,0.37c-0.227,0.392-0.728,0.526-1.121,0.3c-0.044-0.025-0.084-0.055-0.121-0.086
				c-0.086,0.093-0.194,0.167-0.321,0.214c-0.426,0.154-0.897-0.064-1.052-0.49c-0.018-0.048-0.029-0.096-0.038-0.144
				c-0.125,0.016-0.256,0.003-0.383-0.044c-0.426-0.154-0.646-0.625-0.49-1.051c0.017-0.048,0.038-0.093,0.063-0.135
				c-0.106-0.068-0.199-0.162-0.267-0.279c-0.227-0.392-0.092-0.893,0.3-1.121c0.045-0.024,0.09-0.046,0.136-0.062
				c-0.037-0.121-0.048-0.252-0.024-0.385c0.079-0.446,0.505-0.744,0.95-0.666c0.05,0.009,0.098,0.021,0.145,0.039
				c0.049-0.116,0.125-0.224,0.229-0.311c0.347-0.291,0.864-0.246,1.155,0.102c0.032,0.039,0.061,0.08,0.085,0.122
				c0.112-0.059,0.24-0.091,0.375-0.091c0.453,0,0.82,0.367,0.82,0.82c0,0.051-0.004,0.1-0.014,0.148
				c0.124,0.027,0.242,0.084,0.346,0.171C80.552,53.565,80.598,54.083,80.306,54.431z"/>
			<path style="fill-rule:evenodd;clip-rule:evenodd;fill:#FFFFFF;" d="M85.791,53.301c-0.032,0.039-0.067,0.074-0.105,0.105
				c0.077,0.101,0.131,0.221,0.154,0.353c0.078,0.446-0.219,0.872-0.665,0.95c-0.05,0.01-0.1,0.013-0.148,0.013
				c-0.006,0.126-0.042,0.253-0.108,0.37c-0.228,0.393-0.729,0.526-1.121,0.301c-0.044-0.025-0.085-0.055-0.121-0.086
				c-0.087,0.092-0.195,0.166-0.322,0.213c-0.425,0.155-0.896-0.064-1.051-0.49c-0.018-0.047-0.03-0.096-0.038-0.144
				c-0.125,0.017-0.257,0.003-0.384-0.043c-0.425-0.155-0.645-0.626-0.489-1.052c0.017-0.047,0.038-0.093,0.063-0.135
				c-0.107-0.068-0.198-0.162-0.266-0.279c-0.227-0.393-0.092-0.894,0.3-1.121c0.044-0.024,0.09-0.045,0.136-0.062
				c-0.037-0.121-0.048-0.252-0.024-0.385c0.078-0.446,0.504-0.744,0.95-0.665c0.05,0.008,0.098,0.021,0.144,0.038
				c0.049-0.116,0.126-0.224,0.229-0.31c0.348-0.291,0.865-0.245,1.156,0.101c0.032,0.039,0.061,0.08,0.085,0.122
				c0.112-0.059,0.239-0.091,0.375-0.091c0.453,0,0.82,0.367,0.82,0.82c0,0.051-0.005,0.101-0.014,0.148
				c0.123,0.027,0.242,0.085,0.346,0.171C86.037,52.435,86.082,52.953,85.791,53.301z"/>
			<path style="fill-rule:evenodd;clip-rule:evenodd;fill:#FFFFFF;" d="M97.286,57.133c0.032,0.038,0.067,0.073,0.105,0.105
				c-0.076,0.101-0.131,0.22-0.154,0.353c-0.079,0.446,0.22,0.871,0.665,0.95c0.051,0.009,0.1,0.013,0.148,0.012
				c0.006,0.127,0.042,0.254,0.109,0.371c0.227,0.392,0.728,0.526,1.12,0.3c0.044-0.025,0.085-0.054,0.122-0.086
				c0.086,0.093,0.194,0.167,0.321,0.214c0.425,0.154,0.897-0.065,1.051-0.49c0.018-0.048,0.03-0.096,0.038-0.145
				c0.126,0.017,0.257,0.004,0.384-0.043c0.425-0.154,0.645-0.625,0.49-1.051c-0.018-0.048-0.039-0.093-0.063-0.135
				c0.106-0.068,0.198-0.162,0.266-0.279c0.227-0.393,0.092-0.895-0.3-1.121c-0.044-0.025-0.089-0.046-0.135-0.063
				c0.037-0.12,0.047-0.252,0.023-0.385c-0.079-0.445-0.504-0.744-0.95-0.665c-0.05,0.009-0.098,0.022-0.144,0.039
				c-0.049-0.116-0.125-0.224-0.229-0.311c-0.348-0.291-0.864-0.246-1.156,0.102c-0.032,0.038-0.061,0.079-0.085,0.122
				c-0.112-0.059-0.239-0.091-0.375-0.091c-0.453,0-0.819,0.367-0.819,0.819c0,0.051,0.004,0.101,0.013,0.148
				c-0.123,0.028-0.241,0.085-0.345,0.172C97.04,56.267,96.995,56.785,97.286,57.133z"/>
			<path style="fill-rule:evenodd;clip-rule:evenodd;fill:#FFFFFF;" d="M92.342,54.431c0.033,0.038,0.068,0.073,0.105,0.104
				c-0.076,0.101-0.131,0.221-0.154,0.354c-0.078,0.446,0.22,0.871,0.666,0.95c0.05,0.009,0.099,0.013,0.147,0.013
				c0.006,0.126,0.042,0.253,0.109,0.369c0.227,0.393,0.728,0.527,1.12,0.301c0.044-0.025,0.085-0.054,0.122-0.086
				c0.086,0.093,0.194,0.168,0.321,0.214c0.426,0.154,0.896-0.064,1.051-0.49c0.017-0.048,0.03-0.096,0.038-0.144
				c0.126,0.016,0.257,0.003,0.384-0.044c0.426-0.154,0.645-0.625,0.49-1.051c-0.018-0.048-0.039-0.093-0.063-0.135
				c0.106-0.068,0.198-0.163,0.266-0.279c0.227-0.392,0.093-0.893-0.3-1.12c-0.044-0.025-0.089-0.047-0.135-0.063
				c0.037-0.121,0.047-0.252,0.023-0.385c-0.078-0.446-0.504-0.744-0.95-0.666c-0.05,0.009-0.098,0.022-0.144,0.039
				c-0.049-0.116-0.125-0.224-0.229-0.311c-0.348-0.291-0.864-0.246-1.155,0.102c-0.033,0.038-0.061,0.079-0.085,0.122
				c-0.112-0.058-0.24-0.091-0.376-0.091c-0.452,0-0.819,0.367-0.819,0.82c0,0.051,0.004,0.1,0.013,0.148
				c-0.123,0.027-0.241,0.084-0.345,0.171C92.096,53.566,92.051,54.083,92.342,54.431z"/>
			<path style="fill-rule:evenodd;clip-rule:evenodd;fill:#FFFFFF;" d="M86.857,53.301c0.032,0.039,0.067,0.074,0.105,0.105
				c-0.077,0.101-0.132,0.221-0.154,0.353c-0.079,0.446,0.219,0.872,0.665,0.95c0.05,0.009,0.099,0.013,0.149,0.013
				c0.006,0.126,0.041,0.253,0.108,0.37c0.227,0.393,0.729,0.526,1.121,0.3c0.043-0.024,0.084-0.054,0.121-0.085
				c0.086,0.092,0.194,0.167,0.321,0.213c0.426,0.155,0.896-0.064,1.052-0.49c0.017-0.047,0.029-0.096,0.038-0.144
				c0.125,0.016,0.256,0.003,0.383-0.043c0.426-0.155,0.646-0.626,0.49-1.052c-0.018-0.047-0.038-0.092-0.063-0.135
				c0.106-0.068,0.199-0.162,0.267-0.279c0.226-0.393,0.092-0.894-0.301-1.12c-0.044-0.025-0.089-0.046-0.135-0.062
				c0.037-0.121,0.048-0.252,0.024-0.385c-0.079-0.446-0.505-0.744-0.95-0.666c-0.05,0.009-0.098,0.023-0.143,0.039
				c-0.05-0.116-0.126-0.224-0.23-0.31c-0.347-0.291-0.864-0.246-1.155,0.101c-0.032,0.039-0.061,0.079-0.085,0.122
				c-0.112-0.058-0.24-0.091-0.375-0.091c-0.453,0-0.82,0.367-0.82,0.82c0,0.051,0.005,0.101,0.014,0.148
				c-0.124,0.027-0.242,0.085-0.346,0.171C86.611,52.436,86.565,52.954,86.857,53.301z"/>
		</g>
		<path style="fill-rule:evenodd;clip-rule:evenodd;fill:#FFD8B8;" d="M86.448,96.244c13.973,0,25.369-8.785,25.369-19.556
			s-11.396-19.556-25.369-19.556c-13.973,0-25.369,8.785-25.369,19.556S72.476,96.244,86.448,96.244z"/>
		<path style="fill-rule:evenodd;clip-rule:evenodd;fill:#91613A;" d="M61.655,79.554c1.432-1.717,2.105,5.827,3.416-2.929
			c1.315-8.787,8.396-19.211,20.704-16.919c15.104-2.731,21.645,10.242,22.129,17.235c0.309,4.442,2.704,0.572,3.413,1.732
			c2.549-14.203-9.962-24.614-25.613-24.302C72.958,54.627,60.067,61.017,61.655,79.554z"/>
		<g>
			<path style="fill-rule:evenodd;clip-rule:evenodd;fill:#666666;" d="M94.16,78.594c0.776,0,1.41-1.108,1.41-2.467
				c0-1.359-0.634-2.467-1.41-2.467c-0.776,0-1.409,1.107-1.409,2.467C92.751,77.485,93.384,78.594,94.16,78.594z"/>
			<path style="fill-rule:evenodd;clip-rule:evenodd;fill:#666666;" d="M78.736,78.594c0.776,0,1.409-1.108,1.409-2.467
				c0-1.359-0.633-2.467-1.409-2.467s-1.41,1.107-1.41,2.467C77.326,77.485,77.96,78.594,78.736,78.594z"/>
		</g>
		<g>
			<path style="fill-rule:evenodd;clip-rule:evenodd;fill:#91613A;" d="M101.732,101.809c4.999-25.257-7.859-41.252-15.284-42.161
				C96.828,56.527,110.93,73.586,101.732,101.809z"/>
			<path style="fill-rule:evenodd;clip-rule:evenodd;fill:#91613A;" d="M71.164,101.809c-4.999-25.257,7.858-41.252,15.284-42.161
				C76.068,56.527,61.967,73.586,71.164,101.809z"/>
		</g>
		<path style="fill-rule:evenodd;clip-rule:evenodd;fill:#E7B791;" d="M95.322,84.066c-3.618,2.85-13.096,2.739-17.748,0
			C82.13,89.537,91.688,89.727,95.322,84.066z"/>
		<path style="fill-rule:evenodd;clip-rule:evenodd;fill:#FFD8B8;" d="M79.219,135.18c-1.512-7.528-3.983-14.852-5.494-22.379
			c-0.711-3.543-0.465-7.293-1.176-10.837l8.09-3.535h11.633c2.697,1.382,6.357,2.317,8.09,4.144
			c-0.673,3.37-0.455,6.856-1.134,10.228c-1.509,7.494-3.926,14.879-5.446,22.379H79.219z"/>
		<path style="fill-rule:evenodd;clip-rule:evenodd;fill:#FCF7F9;" d="M77.175,135.179l-3.263-21.567
			c-0.058-0.264-0.088-0.535-0.088-0.811c0-2.804,3.081-5.076,6.883-5.076c2.482,0,4.657,0.969,5.868,2.42
			c1.211-1.451,3.386-2.42,5.867-2.42c3.803,0,6.884,2.272,6.884,5.076c0,0.267-0.027,0.529-0.082,0.785l-3.19,21.593H77.175z"/>
		
			<ellipse transform="matrix(-0.2258 -0.9742 0.9742 -0.2258 0.1623 153.5057)" style="fill-rule:evenodd;clip-rule:evenodd;fill:#FFD8B8;" cx="61.079" cy="76.688" rx="5.761" ry="3.687"/>
		
			<ellipse transform="matrix(0.2257 -0.9742 0.9742 0.2257 11.6082 168.5151)" style="fill-rule:evenodd;clip-rule:evenodd;fill:#FFD8B8;" cx="111.815" cy="76.955" rx="5.761" ry="3.687"/>
		<g>
			<path style="fill:#FFE0E9;" d="M22.023,75.806c-1.65-1.195-2.893-1.76-3.724-1.621l-0.008,0.002
				c-0.618,0.103-1.157,0.829-1.632,2.24c-1.129,3.358-3.217,4.077-5.528,3.609c-1.749-0.354-3.435-1.521-4.766-2.496
				c-0.275-0.202-0.527-0.156-0.757,0.051c-0.718,0.648-1.411,1.941-2.069,3.544L0,79.686c0.863-2.104,1.859-3.88,3.038-4.943
				c1.665-1.503,3.517-1.811,5.594-0.288c1.021,0.748,2.286,1.637,3.26,1.834c0.411,0.084,0.819-0.151,1.133-1.084
				c0.968-2.88,2.507-4.438,4.642-4.792v0.001c1.922-0.317,4.107,0.486,6.603,2.296L22.023,75.806z"/>
			<path style="fill:#FFE0E9;" d="M23.457,81.325c-2.016-0.271-3.378-0.176-4.05,0.344c-0.495,0.383-0.626,1.275-0.377,2.736
				c0.599,3.499-0.903,5.124-3.164,5.808c-1.704,0.516-3.739,0.287-5.372,0.059c-0.342-0.048-0.543,0.111-0.647,0.402
				c-0.32,0.895-0.316,2.364-0.135,4.098l-3.815,0.405c-0.235-2.252-0.197-4.285,0.343-5.796c0.755-2.113,2.239-3.262,4.785-2.906
				c1.255,0.176,2.792,0.359,3.747,0.07c0.397-0.119,0.642-0.518,0.479-1.48c-0.514-3.001,0.104-5.104,1.816-6.429
				c1.536-1.188,3.843-1.515,6.906-1.103L23.457,81.325z"/>
		</g>
		<path style="fill-rule:evenodd;clip-rule:evenodd;fill:#FFE0E9;" d="M36.01,88.635c-0.265-0.125-0.512-0.272-0.741-0.437
			c-0.452,0.575-1.044,1.055-1.755,1.38c-2.385,1.092-5.203,0.044-6.295-2.341c-0.122-0.266-0.217-0.537-0.287-0.812
			c-0.716,0.15-1.477,0.137-2.231-0.071c-2.528-0.696-4.014-3.311-3.317-5.839c0.078-0.282,0.18-0.552,0.303-0.807
			c-0.646-0.345-1.221-0.845-1.665-1.488c-1.489-2.159-0.946-5.116,1.213-6.605c0.241-0.166,0.491-0.308,0.75-0.424
			c-0.273-0.679-0.392-1.431-0.318-2.21c0.247-2.611,2.563-4.527,5.175-4.281c0.291,0.027,0.574,0.082,0.847,0.158
			c0.228-0.695,0.62-1.349,1.177-1.897c1.868-1.842,4.874-1.82,6.716,0.047c0.205,0.208,0.388,0.431,0.547,0.665
			c0.622-0.387,1.342-0.634,2.122-0.697c2.614-0.21,4.903,1.738,5.114,4.353c0.023,0.292,0.02,0.58-0.009,0.861
			c0.725,0.104,1.435,0.377,2.073,0.83c2.138,1.519,2.64,4.483,1.12,6.621c-0.17,0.239-0.357,0.458-0.56,0.654
			c0.488,0.546,0.857,1.212,1.055,1.969c0.66,2.538-0.86,5.131-3.399,5.792c-0.283,0.074-0.567,0.121-0.85,0.142
			c0.023,0.731-0.122,1.479-0.458,2.185C41.212,88.751,38.38,89.76,36.01,88.635z"/>
	</g>
</g>
<g>
</g>
<g>
</g>
<g>
</g>
<g>
</g>
<g>
</g>
<g>
</g>
<g>
</g>
<g>
</g>
<g>
</g>
<g>
</g>
<g>
</g>
<g>
</g>
<g>
</g>
<g>
</g>
<g>
</g>
</svg>
