<?xml version="1.0" encoding="iso-8859-1"?>
<!-- Generator: Adobe Illustrator 18.0.0, SVG Export Plug-In . SVG Version: 6.00 Build 0)  -->
<!DOCTYPE svg PUBLIC "-//W3C//DTD SVG 1.1//EN" "http://www.w3.org/Graphics/SVG/1.1/DTD/svg11.dtd">
<svg version="1.1" id="Capa_1" xmlns="http://www.w3.org/2000/svg" xmlns:xlink="http://www.w3.org/1999/xlink" x="0px" y="0px"
	 viewBox="0 0 182.56 182.56" style="enable-background:new 0 0 182.56 182.56;" xml:space="preserve">
<g>
	<g>
		<g>
			<path style="fill-rule:evenodd;clip-rule:evenodd;fill:#E7B791;" d="M96.305,63.64c-3.868,0.275-6.831,1.63-10.698,1.906
				c-0.39-5.459-0.779-10.917-1.168-16.375c3.867-0.276,7.735-0.553,11.603-0.828C96.431,53.801,96.927,57.414,96.305,63.64z"/>
			<path style="fill-rule:evenodd;clip-rule:evenodd;fill:#FFEDDE;" d="M94.465,96.56l4.378-21.492
				c0.041-5.518-0.143-8.484-1.915-15.299c-3.88,0.985-7.575,0.549-11.509-0.129c-2.721,1.333-5.505,8.361-4.867,14.286
				l1.953,22.418L94.465,96.56z"/>
			
				<ellipse transform="matrix(0.1795 -0.9838 0.9838 0.1795 69.3011 124.9356)" style="fill-rule:evenodd;clip-rule:evenodd;fill:#FFF4C7;" cx="109.547" cy="20.923" rx="15.362" ry="15.518"/>
			<path style="fill-rule:evenodd;clip-rule:evenodd;fill:#FFFFFF;" d="M107.26,32.658c-0.006,0.05-0.008,0.1-0.005,0.148
				c-0.126,0.013-0.251,0.054-0.364,0.127c-0.381,0.245-0.491,0.753-0.246,1.134c0.027,0.043,0.059,0.082,0.092,0.117
				c-0.089,0.09-0.157,0.202-0.197,0.332c-0.134,0.432,0.108,0.892,0.54,1.025c0.049,0.016,0.098,0.025,0.146,0.031
				c-0.01,0.126,0.01,0.256,0.063,0.381c0.175,0.418,0.655,0.614,1.073,0.438c0.047-0.019,0.091-0.043,0.131-0.069
				c0.074,0.103,0.172,0.189,0.293,0.252c0.402,0.207,0.896,0.049,1.104-0.354c0.022-0.045,0.041-0.091,0.056-0.138
				c0.122,0.031,0.254,0.035,0.386,0.006c0.441-0.101,0.719-0.54,0.618-0.981c-0.011-0.05-0.026-0.097-0.046-0.142
				c0.114-0.055,0.218-0.137,0.299-0.244c0.274-0.36,0.204-0.875-0.157-1.149c-0.04-0.03-0.082-0.057-0.126-0.079
				c0.053-0.114,0.079-0.244,0.072-0.379c-0.021-0.452-0.406-0.801-0.858-0.779c-0.051,0.003-0.1,0.01-0.147,0.021
				c-0.034-0.122-0.097-0.237-0.188-0.337c-0.308-0.332-0.826-0.352-1.159-0.045c-0.037,0.035-0.07,0.072-0.1,0.111
				c-0.104-0.072-0.227-0.12-0.36-0.138C107.728,31.891,107.318,32.209,107.26,32.658z"/>
			<path style="fill-rule:evenodd;clip-rule:evenodd;fill:#FFFFFF;" d="M105.886,27.194c-0.007,0.05-0.009,0.1-0.006,0.149
				c-0.126,0.012-0.251,0.054-0.364,0.127c-0.381,0.245-0.491,0.753-0.245,1.134c0.027,0.042,0.058,0.081,0.091,0.117
				c-0.088,0.09-0.157,0.202-0.197,0.331c-0.134,0.433,0.108,0.892,0.541,1.026c0.048,0.015,0.097,0.025,0.146,0.031
				c-0.011,0.126,0.009,0.256,0.062,0.381c0.175,0.417,0.655,0.614,1.073,0.438c0.047-0.02,0.091-0.043,0.132-0.069
				c0.073,0.102,0.172,0.19,0.292,0.252c0.402,0.207,0.897,0.048,1.104-0.354c0.022-0.045,0.042-0.091,0.056-0.138
				c0.122,0.031,0.254,0.035,0.386,0.005c0.441-0.1,0.719-0.539,0.618-0.98c-0.011-0.05-0.026-0.098-0.045-0.142
				c0.113-0.055,0.217-0.137,0.298-0.244c0.274-0.36,0.204-0.875-0.156-1.149c-0.041-0.03-0.083-0.057-0.126-0.079
				c0.052-0.114,0.078-0.244,0.072-0.379c-0.022-0.452-0.407-0.802-0.859-0.779c-0.051,0.003-0.1,0.01-0.147,0.02
				c-0.034-0.121-0.097-0.237-0.188-0.337c-0.308-0.332-0.826-0.352-1.158-0.044c-0.037,0.033-0.071,0.07-0.101,0.109
				c-0.104-0.071-0.226-0.119-0.36-0.137C106.353,26.427,105.943,26.745,105.886,27.194z"/>
			<path style="fill-rule:evenodd;clip-rule:evenodd;fill:#FFFFFF;" d="M102.99,22.401c-0.007,0.05-0.008,0.1-0.006,0.148
				c-0.125,0.012-0.251,0.054-0.364,0.127c-0.381,0.245-0.49,0.752-0.245,1.134c0.027,0.042,0.058,0.081,0.092,0.117
				c-0.089,0.09-0.158,0.202-0.198,0.331c-0.134,0.433,0.108,0.893,0.541,1.026c0.048,0.015,0.097,0.025,0.146,0.031
				c-0.01,0.126,0.01,0.256,0.062,0.381c0.175,0.417,0.656,0.613,1.074,0.438c0.046-0.02,0.09-0.043,0.131-0.07
				c0.073,0.104,0.172,0.191,0.292,0.253c0.402,0.206,0.897,0.048,1.104-0.354c0.023-0.045,0.042-0.091,0.056-0.138
				c0.123,0.031,0.254,0.035,0.386,0.005c0.442-0.1,0.719-0.539,0.619-0.981c-0.012-0.05-0.027-0.098-0.046-0.143
				c0.113-0.055,0.217-0.136,0.299-0.243c0.273-0.36,0.203-0.876-0.157-1.149c-0.04-0.031-0.083-0.057-0.126-0.079
				c0.053-0.115,0.078-0.244,0.072-0.379c-0.021-0.452-0.406-0.802-0.859-0.779c-0.051,0.003-0.1,0.01-0.147,0.02
				c-0.033-0.122-0.096-0.237-0.188-0.337c-0.308-0.332-0.827-0.353-1.159-0.045c-0.037,0.034-0.07,0.071-0.1,0.11
				c-0.104-0.071-0.227-0.119-0.361-0.137C103.456,21.634,103.046,21.952,102.99,22.401z"/>
			<path style="fill-rule:evenodd;clip-rule:evenodd;fill:#FFFFFF;" d="M97.711,18.36c-0.051,0.002-0.101,0-0.149-0.006
				c-0.022,0.124-0.073,0.245-0.155,0.352c-0.273,0.361-0.788,0.431-1.15,0.157c-0.04-0.03-0.077-0.065-0.109-0.101
				c-0.097,0.081-0.214,0.142-0.346,0.172c-0.442,0.1-0.881-0.177-0.981-0.619c-0.011-0.049-0.018-0.099-0.02-0.147
				c-0.126,0-0.255-0.029-0.375-0.091c-0.402-0.207-0.562-0.701-0.354-1.105c0.022-0.045,0.049-0.087,0.079-0.125
				c-0.097-0.082-0.177-0.186-0.229-0.31c-0.176-0.418,0.021-0.898,0.438-1.074c0.047-0.02,0.094-0.035,0.142-0.045
				c-0.021-0.125-0.016-0.256,0.024-0.385c0.135-0.433,0.594-0.675,1.026-0.541c0.049,0.016,0.095,0.034,0.138,0.057
				c0.063-0.109,0.152-0.206,0.267-0.279c0.38-0.245,0.888-0.135,1.133,0.246c0.028,0.042,0.051,0.086,0.069,0.132
				c0.119-0.044,0.249-0.059,0.384-0.043c0.449,0.057,0.767,0.468,0.71,0.917c-0.006,0.05-0.017,0.099-0.031,0.144
				c0.118,0.044,0.229,0.115,0.32,0.214c0.308,0.333,0.288,0.851-0.045,1.159c-0.037,0.034-0.076,0.065-0.117,0.091
				c0.063,0.109,0.101,0.235,0.108,0.37C98.512,17.954,98.163,18.338,97.711,18.36z"/>
			<path style="fill-rule:evenodd;clip-rule:evenodd;fill:#FFFFFF;" d="M102.265,21.618c-0.05,0.003-0.1,0.001-0.148-0.006
				c-0.021,0.125-0.072,0.246-0.154,0.354c-0.274,0.361-0.789,0.431-1.149,0.157c-0.04-0.03-0.077-0.065-0.109-0.101
				c-0.097,0.082-0.214,0.142-0.346,0.172c-0.442,0.1-0.882-0.177-0.981-0.619c-0.012-0.049-0.018-0.099-0.02-0.147
				c-0.127,0-0.255-0.028-0.375-0.091c-0.403-0.207-0.562-0.701-0.354-1.104c0.023-0.045,0.05-0.087,0.08-0.126
				c-0.097-0.081-0.177-0.186-0.229-0.311c-0.175-0.418,0.021-0.898,0.439-1.073c0.047-0.02,0.094-0.034,0.142-0.045
				c-0.022-0.124-0.016-0.256,0.024-0.385c0.134-0.433,0.594-0.675,1.026-0.541c0.048,0.015,0.094,0.034,0.138,0.057
				c0.063-0.109,0.152-0.206,0.266-0.279c0.381-0.245,0.889-0.135,1.134,0.245c0.027,0.043,0.051,0.088,0.069,0.133
				c0.118-0.043,0.249-0.061,0.383-0.043c0.449,0.057,0.768,0.467,0.711,0.917c-0.007,0.05-0.018,0.099-0.032,0.145
				c0.119,0.044,0.23,0.114,0.321,0.214c0.308,0.333,0.287,0.851-0.045,1.159c-0.037,0.034-0.076,0.065-0.118,0.091
				c0.063,0.109,0.103,0.235,0.109,0.37C103.067,21.212,102.718,21.597,102.265,21.618z"/>
			
				<ellipse transform="matrix(0.1795 -0.9838 0.9838 0.1795 37.8659 115.0919)" style="fill-rule:evenodd;clip-rule:evenodd;fill:#FFD8B8;" cx="87.93" cy="34.846" rx="19.555" ry="20.203"/>
			<path style="fill-rule:evenodd;clip-rule:evenodd;fill:#F2F8FA;" d="M98.843,75.067c-1.432,0-11.778-9.375-17.914-7.197
				c-0.421,1.973-0.59,4.076-0.377,6.056l1.521,21.11l4.112,0.869l8.279,0.654L98.843,75.067z"/>
			<g>
				<path style="fill-rule:evenodd;clip-rule:evenodd;fill:#F2F8FA;" d="M88.821,93.342c-26.588-5.165-17.032,20.556-32.404,22.072
					c-10.309,1.017-13.926,7.963-13.578,19.314c0.215,6.995-2.042,8.364-10.88,11.943c-6.215,2.517-13.111,11.021-4.864,17.636
					c8.246,6.614,83.406,20.474,92.396,17.949c8.989-2.525,8.059-13.291,3.238-17.951c-6.855-6.628-9.087-9.078-7.398-15.932
					c2.396-9.729,1.407-18.223-5.359-22.992C97.192,116.374,115.409,98.507,88.821,93.342z"/>
				<path style="fill-rule:evenodd;clip-rule:evenodd;fill:#F2F8FA;" d="M88.824,93.342c-19.679-3.822-13.768,21.19-25.364,23.44
					c-7.776,1.508-10.825,8.565-11.117,19.792c-0.18,6.919-1.938,8.386-8.737,12.36c-4.78,2.795-10.363,11.555-4.503,17.705
					c5.859,6.15,61.523,16.223,68.385,13.285c6.86-2.938,6.687-13.558,3.301-17.939c-4.816-6.232-6.37-8.549-4.771-15.42
					c2.271-9.754,1.942-18.119-2.898-22.516C93.978,115.75,108.502,97.165,88.824,93.342z"/>
				<path style="fill-rule:evenodd;clip-rule:evenodd;fill:#F2F8FA;" d="M88.824,93.343c-15.954-3.1-12.008,21.531-21.569,24.177
					c-6.412,1.773-9.154,8.89-9.79,20.05c-0.393,6.878-1.882,8.396-7.582,12.585c-4.008,2.944-8.883,11.843-4.309,17.743
					c4.573,5.9,49.73,13.932,55.443,10.771c5.714-3.161,5.949-13.701,3.335-17.933c-3.718-6.018-4.906-8.266-3.354-15.145
					c2.201-9.768,2.229-18.063-1.573-22.258C92.245,115.413,104.78,96.442,88.824,93.343z"/>
				<path style="fill-rule:evenodd;clip-rule:evenodd;fill:#F2F8FA;" d="M88.826,93.343c-9.413-1.828-8.916,22.133-14.902,25.472
					c-4.015,2.24-6.22,9.461-7.461,20.503c-0.766,6.805-1.783,8.416-5.552,12.979c-2.65,3.208-6.282,12.348-3.969,17.809
					c2.313,5.462,29.012,9.907,32.71,6.354c3.699-3.552,4.649-13.953,3.393-17.921c-1.787-5.643-2.333-7.765-0.867-14.662
					c2.082-9.79,2.735-17.965,0.758-21.805C89.202,114.822,98.24,95.172,88.826,93.343z"/>
				<path style="fill-rule:evenodd;clip-rule:evenodd;fill:#F2F8FA;" d="M88.828,93.343c-5.281-1.025-6.964,22.512-10.692,26.29
					c-2.501,2.534-4.366,9.821-5.99,20.788c-1,6.76-1.72,8.428-4.269,13.229c-1.793,3.375-4.64,12.667-3.754,17.852
					c0.886,5.184,15.927,7.364,18.353,3.564c2.427-3.799,3.83-14.112,3.431-17.913c-0.566-5.406-0.708-7.45,0.705-14.356
					c2.005-9.806,3.054-17.903,2.228-21.52C87.28,114.448,94.11,94.369,88.828,93.343z"/>
			</g>
			<path style="fill-rule:evenodd;clip-rule:evenodd;fill:#FFF4C7;" d="M75.703,19.137c5.672,0.339,18.2,19.665,20.421,33.691
				c5.921-2.491,10.468-7.714,11.68-14.356c1.938-10.624-5.388-20.86-16.364-22.863C85.663,14.555,80.029,15.991,75.703,19.137z"/>
			
				<ellipse transform="matrix(0.3968 -0.9179 0.9179 0.3968 19.6311 108.4695)" style="fill-rule:evenodd;clip-rule:evenodd;fill:#FFD8B8;" cx="92.348" cy="39.298" rx="5.761" ry="3.687"/>
			<path style="fill-rule:evenodd;clip-rule:evenodd;fill:#FFF4C7;" d="M73.521,63.619c5.067-0.782,8.094-5.334,6.443-9.26
				c-1.651-3.927-1.43-6.625,2.295-9.032c3.726-2.406,4.632-6.742,1.787-9.146c-2.846-2.405-4.599-2.813-2.754-7.055
				c1.846-4.243-1.262-8.117-5.846-10.474c6.182,1.838,13.948,1.806,13.343,8.82c-0.605,7.014,0.772,4.188,1.941,6.999
				c1.169,2.812-0.817,9.886-5.099,12.293c-4.28,2.406-4.951,3.909-3.3,7.836C83.984,58.526,81.098,64.572,73.521,63.619z"/>
			<path style="fill-rule:evenodd;clip-rule:evenodd;fill:#D9E0E2;" d="M105.81,4.538c1.936,26.692,0.405,49.423-9.347,83.301
				c12.423,8.792,19.72,9.598,25.971,5.334C131.888,68.738,143.843,3.874,105.81,4.538z"/>
			
				<ellipse transform="matrix(0.1795 -0.9838 0.9838 0.1795 28.4947 98.6067)" style="fill-rule:evenodd;clip-rule:evenodd;fill:#666666;" cx="73.362" cy="32.221" rx="2.467" ry="1.41"/>
			<path style="fill-rule:evenodd;clip-rule:evenodd;fill:#E7B791;" d="M69.162,41.873c2.399-0.251,5.429-0.882,7.419-1.599
				c-1.97,1.646-4.455,2.499-6.949,2.627C69.414,42.427,69.327,42.253,69.162,41.873z"/>
			
				<ellipse transform="matrix(-0.0497 -0.9988 0.9988 -0.0497 -85.4758 274.9203)" style="fill-rule:evenodd;clip-rule:evenodd;fill:#CAD3D7;" cx="88.047" cy="178.123" rx="4.212" ry="8.387"/>
			<g>
				<path style="fill-rule:evenodd;clip-rule:evenodd;fill:#FFD8B8;" d="M86.398,69.464c7.539,9.704,16.186,25.52,19.53,40.441
					l4.071-1.003c-1.26-14.32-7.874-33.74-12.803-41.875C91.31,57.311,78.792,59.676,86.398,69.464z"/>
				<path style="fill-rule:evenodd;clip-rule:evenodd;fill:#FFD8B8;" d="M102.456,110.329c-0.262,1.666,0.463,2.285,1.631,2.047
					c-0.699,2.398,0.662,4.667,1.958,4.87c2.52,0.396,4.999-2.058,5.537-5.481c0.538-3.424-1.067-6.521-3.587-6.917
					C105.475,104.451,102.995,106.905,102.456,110.329z"/>
			</g>
		</g>
		<g>
			<path style="fill-rule:evenodd;clip-rule:evenodd;fill:#FFF4C7;" d="M112.672,19.655c16.226-7.958,44.479,8.447,46.58-12.877
				c-7.754,5.213-9.44,2.267-18.513-0.123C131.589,4.244,119.179,6.102,112.672,19.655z"/>
			<path style="fill-rule:evenodd;clip-rule:evenodd;fill:#FFF4C7;" d="M111.841,20.45C126.517,9.901,157.105,21.377,155.628,0
				c-6.777,6.431-8.931,3.806-18.275,2.96C127.931,2.105,116.002,6.002,111.841,20.45z"/>
			<g>
				<polygon style="fill-rule:evenodd;clip-rule:evenodd;fill:#323232;" points="136.538,142.101 138.631,121.974 139.704,109.148 
					140.861,95.613 124.441,93.815 123.993,139.265 				"/>
				<polygon style="fill-rule:evenodd;clip-rule:evenodd;fill:#323232;" points="140.07,104.874 139.865,104.856 139.704,109.149 
					139.704,109.148 				"/>
			</g>
			<g>
				<path style="fill-rule:evenodd;clip-rule:evenodd;fill:#323232;" d="M131.916,176.68l4.866-38.413l-12.793,1.059l-1.007,36.708
					C125.96,176.248,128.939,176.464,131.916,176.68z"/>
				
					<ellipse transform="matrix(0.0258 -0.9997 0.9997 0.0258 -48.7264 304.9532)" style="fill-rule:evenodd;clip-rule:evenodd;fill:#1A1A1A;" cx="132.099" cy="177.477" rx="4.619" ry="9.196"/>
			</g>
			
				<rect x="120.403" y="44.278" transform="matrix(0.996 -0.0888 0.0888 0.996 -3.6877 11.358)" style="fill-rule:evenodd;clip-rule:evenodd;fill:#FFFFFF;" width="10.696" height="5.655"/>
			<polygon style="fill-rule:evenodd;clip-rule:evenodd;fill:#1A1A1A;" points="144.662,92.013 119.971,94.216 120.093,99.237 
				145.091,97.007 			"/>
			<path style="fill-rule:evenodd;clip-rule:evenodd;fill:#FFFFFF;" d="M126.656,46.042c2.97,19.146,7.662,30.137,16.878,36.137
				l-1.261-10.361l-9.898-20.713l-1.548-7.29L126.656,46.042z"/>
			<g>
				<path style="fill-rule:evenodd;clip-rule:evenodd;fill:#212E36;" d="M131.728,48.232c-0.573-0.634-2.208-3.035-2.391-2.349
					c-0.252,0.945,0.406,6.09,0.887,6.941c0.35,0.619,1.328-2.115,1.723-2.874C132.028,49.479,131.925,48.671,131.728,48.232z"/>
				<path style="fill-rule:evenodd;clip-rule:evenodd;fill:#405059;" d="M132.432,47.733l-0.602,0.077
					c-0.153,0.02-0.264,0.161-0.244,0.315l0.251,1.965c0.02,0.153,0.162,0.263,0.316,0.243l0.601-0.077
					c0.154-0.02,0.264-0.161,0.244-0.315l-0.251-1.964C132.728,47.823,132.585,47.714,132.432,47.733z"/>
			</g>
			<polygon style="fill-rule:evenodd;clip-rule:evenodd;fill:#323232;" points="120.049,97.567 120.328,46.929 128.532,47.989 
				143.009,77.532 144.961,95.229 			"/>
			<g>
				<path style="fill-rule:evenodd;clip-rule:evenodd;fill:#1A1A1A;" d="M128.633,62.581c-8.027,10.824-17.116,28.374-20.416,44.815
					l-4.488-1c1.029-15.729,7.802-37.182,13.005-46.222C122.949,49.378,136.73,51.663,128.633,62.581z"/>
				<path style="fill-rule:evenodd;clip-rule:evenodd;fill:#FFD8B8;" d="M111.323,110.158c-0.027,1.686-0.847,2.173-1.957,1.738
					c0.278,2.482-1.45,4.484-2.761,4.464c-2.551-0.04-4.574-2.882-4.519-6.348c0.055-3.466,2.167-6.242,4.717-6.201
					C109.354,103.851,111.376,106.692,111.323,110.158z"/>
			</g>
			<g>
				
					<ellipse transform="matrix(0.1202 -0.9927 0.9927 0.1202 89.7395 150.7424)" style="fill-rule:evenodd;clip-rule:evenodd;fill:#FFD8B8;" cx="129.918" cy="24.741" rx="21.443" ry="22.152"/>
				<path style="fill-rule:evenodd;clip-rule:evenodd;fill:#FFF4C7;" d="M147.828,12.264c-7.292,14.068-35.22,16.437-32.337,28.646
					c-5.392-4.534-8.455-11.48-7.565-18.832c1.423-11.756,12.423-20.095,24.569-18.624C138.887,4.227,144.321,7.563,147.828,12.264z
					"/>
				
					<ellipse transform="matrix(0.1202 -0.9928 0.9928 0.1202 101.9421 168.4827)" style="fill-rule:evenodd;clip-rule:evenodd;fill:#666666;" cx="146.027" cy="26.727" rx="2.706" ry="1.546"/>
				<path style="fill-rule:evenodd;clip-rule:evenodd;fill:#E7B791;" d="M147.59,37.878c-3.416-0.45-5.973-2.288-7.552-3.763
					c1.527,2.363,3.854,4.064,6.424,5.009C146.741,38.872,147.303,38.185,147.59,37.878z"/>
			</g>
			
				<ellipse transform="matrix(-0.1071 -0.9943 0.9943 -0.1071 109.2949 154.0926)" style="fill-rule:evenodd;clip-rule:evenodd;fill:#FFD8B8;" cx="123.844" cy="27.967" rx="6.318" ry="4.042"/>
			<path style="fill-rule:evenodd;clip-rule:evenodd;fill:#FFF4C7;" d="M151.034,17.591c-4.936,0.84-9.585,2.088-15.43,5.663
				c-6.425,3.929-16.979-19.087-7.792-20.026C136.999,2.288,147.677,3.149,151.034,17.591z"/>
			<path style="fill-rule:evenodd;clip-rule:evenodd;fill:#1A1A1A;" d="M114.978,122.327c6.789-2.927,13.671-16.179,15.323-24.142
				l-9.288-11.813C121.013,86.372,115.464,111.189,114.978,122.327z"/>
			<path style="fill-rule:evenodd;clip-rule:evenodd;fill:#323232;" d="M128.866,96.359l-7.853-9.987c0,0-4.859,21.139-5.821,32.984
				C121.191,117.056,126.856,103.45,128.866,96.359z"/>
		</g>
	</g>
</g>
<g>
</g>
<g>
</g>
<g>
</g>
<g>
</g>
<g>
</g>
<g>
</g>
<g>
</g>
<g>
</g>
<g>
</g>
<g>
</g>
<g>
</g>
<g>
</g>
<g>
</g>
<g>
</g>
<g>
</g>
</svg>
