<?xml version="1.0" encoding="iso-8859-1"?>
<!-- Generator: Adobe Illustrator 19.0.0, SVG Export Plug-In . SVG Version: 6.00 Build 0)  -->
<svg version="1.1" id="Layer_1" xmlns="http://www.w3.org/2000/svg" xmlns:xlink="http://www.w3.org/1999/xlink" x="0px" y="0px"
	 viewBox="0 0 512 512" style="enable-background:new 0 0 512 512;" xml:space="preserve">
<circle style="fill:#FDDF6D;" cx="256.001" cy="224.543" r="224.543"/>
<path style="fill:#FCC56B;" d="M304.116,415.935c-124.011,0-224.541-100.53-224.541-224.541c0-66.254,28.701-125.798,74.342-166.898
	C81.223,61.664,31.457,137.291,31.457,224.541c0,124.011,100.53,224.541,224.541,224.541c57.757,0,110.414-21.814,150.2-57.642
	C375.571,407.1,340.876,415.935,304.116,415.935z"/>
<g>
	<path style="fill:#7F184C;" d="M303.053,241.621L303.053,241.621c48.466,0,87.756,39.29,87.756,87.756v26.692H215.296v-26.692
		C215.296,280.911,254.587,241.621,303.053,241.621z"/>
	<path style="fill:#7F184C;" d="M230.778,191.302c-20.543,0-39.671-9.211-49.919-24.039c-2.868-4.151-1.829-9.84,2.321-12.709
		c4.151-2.87,9.84-1.828,12.708,2.32c6.888,9.968,20.257,16.159,34.89,16.159c14.279,0,27.828-6.29,35.36-16.417
		c3.012-4.046,8.733-4.886,12.781-1.877c4.049,3.011,4.889,8.733,1.878,12.781C269.885,182.191,250.72,191.302,230.778,191.302z"/>
	<path style="fill:#7F184C;" d="M371.245,191.302c-20.542,0-39.67-9.211-49.919-24.039c-2.868-4.15-1.829-9.84,2.32-12.709
		c4.15-2.87,9.84-1.828,12.708,2.32c6.889,9.968,20.258,16.159,34.891,16.159c14.279,0,27.828-6.29,35.36-16.417
		c3.011-4.046,8.734-4.886,12.781-1.877c4.049,3.011,4.889,8.733,1.878,12.781C410.352,182.191,391.187,191.302,371.245,191.302z"/>
</g>
<path style="fill:#B5E589;" d="M303.053,281.841L303.053,281.841c-28.438,0-51.49,23.053-51.49,51.49v59.003v39.584v23.029
	c0,9.479,7.684,17.163,17.163,17.163l0,0c9.479,0,17.163-7.684,17.163-17.163v39.888c0,9.479,7.684,17.163,17.163,17.163
	s17.163-7.684,17.163-17.163v-24.664c0,9.479,7.684,17.163,17.163,17.163c9.479,0,17.163-7.684,17.163-17.163v-38.254v-24.359
	v-74.227C354.543,304.895,331.49,281.841,303.053,281.841z"/>
<g>
	<path style="fill:#8BC673;" d="M337.38,397.208c-16.95,0-17.163,7.5-17.163,7.5c-2.358,8.685-7.684,17.163-17.163,17.163
		s-17.163-7.684-17.163-17.163c0,0,2.874-22.725-17.163-22.725c-9.479,0-17.163-7.684-17.163-17.163v27.516v39.584v23.029
		c0,9.479,7.684,17.163,17.163,17.163s17.163-7.684,17.163-17.163v39.888c0,9.479,7.684,17.163,17.163,17.163
		s17.163-7.684,17.163-17.163v-24.664c0,9.479,7.684,17.163,17.163,17.163c9.479,0,17.163-7.684,17.163-17.163v-38.254V407.56
		v-27.516C354.543,389.522,346.859,397.208,337.38,397.208z"/>
	<circle style="fill:#8BC673;" cx="317.532" cy="351.381" r="9.135"/>
	<circle style="fill:#8BC673;" cx="304.914" cy="389.405" r="9.135"/>
	<circle style="fill:#8BC673;" cx="279.787" cy="342.246" r="9.135"/>
</g>
<ellipse transform="matrix(0.2723 -0.9622 0.9622 0.2723 140.2222 322.2386)" style="fill:#FCEB88;" cx="283.154" cy="68.414" rx="26.186" ry="46.891"/>
<g>
</g>
<g>
</g>
<g>
</g>
<g>
</g>
<g>
</g>
<g>
</g>
<g>
</g>
<g>
</g>
<g>
</g>
<g>
</g>
<g>
</g>
<g>
</g>
<g>
</g>
<g>
</g>
<g>
</g>
</svg>
