<?xml version="1.0" encoding="iso-8859-1"?>
<!-- Generator: Adobe Illustrator 19.0.0, SVG Export Plug-In . SVG Version: 6.00 Build 0)  -->
<svg version="1.1" id="Layer_1" xmlns="http://www.w3.org/2000/svg" xmlns:xlink="http://www.w3.org/1999/xlink" x="0px" y="0px"
	 viewBox="0 0 512.006 512.006" style="enable-background:new 0 0 512.006 512.006;" xml:space="preserve">
<circle style="fill:#FDDF6D;" cx="256.004" cy="286.12" r="225.887"/>
<path style="fill:#FCC56B;" d="M304.408,478.652c-124.753,0-225.885-101.132-225.885-225.885
	c0-66.651,28.873-126.551,74.787-167.897C80.179,122.262,30.115,198.34,30.115,286.115C30.115,410.868,131.247,512,256.001,512
	c58.102,0,111.075-21.944,151.099-57.987C376.29,469.766,341.387,478.652,304.408,478.652z"/>
<g>
	<path style="fill:#7F184C;" d="M296.706,416.155c-24.343,0-46.83-13.223-58.687-34.507c-2.47-4.434-0.877-10.031,3.556-12.5
		c4.434-2.469,10.03-0.877,12.5,3.556c8.615,15.465,24.95,25.072,42.63,25.072c17.231,0,33.752-9.704,43.118-25.325
		c2.609-4.352,8.253-5.767,12.607-3.156c4.353,2.61,5.766,8.254,3.156,12.607C342.918,403.029,320.357,416.155,296.706,416.155z"/>
	<path style="fill:#7F184C;" d="M247.089,245.852c-5.075,0-9.189-4.114-9.189-9.189c0-11.853-9.644-21.496-21.496-21.496
		c-11.852,0-21.496,9.643-21.496,21.496c0,5.075-4.114,9.189-9.189,9.189c-5.075,0-9.189-4.114-9.189-9.189
		c0-21.987,17.887-39.874,39.874-39.874s39.874,17.887,39.874,39.874C256.279,241.738,252.164,245.852,247.089,245.852z"/>
	<path style="fill:#7F184C;" d="M402.296,245.852c-5.075,0-9.189-4.114-9.189-9.189c0-11.853-9.644-21.496-21.496-21.496
		c-11.852,0-21.496,9.643-21.496,21.496c0,5.075-4.114,9.189-9.189,9.189c-5.075,0-9.189-4.114-9.189-9.189
		c0-21.987,17.889-39.874,39.874-39.874c21.986,0,39.874,17.887,39.874,39.874C411.486,241.738,407.371,245.852,402.296,245.852z"/>
</g>
<path style="fill:#0DAED3;" d="M258.305,0C138.232,0,40.895,32.817,40.895,73.299s97.337,73.298,217.41,73.298
	s217.41-32.817,217.41-73.298S378.377,0,258.305,0z M258.305,112.354c-86.953,0-157.443-17.63-157.443-39.379
	s70.49-39.379,157.443-39.379s157.443,17.63,157.443,39.379S345.259,112.354,258.305,112.354z"/>
<g>
	<path style="fill:#F9A880;" d="M158.929,272.647c-16.775,0-30.374,13.599-30.374,30.374h60.749
		C189.304,286.246,175.704,272.647,158.929,272.647z"/>
	<path style="fill:#F9A880;" d="M423.873,268.578c-16.775,0-30.375,13.599-30.375,30.374h60.749
		C454.247,282.177,440.648,268.578,423.873,268.578z"/>
</g>
<g>
</g>
<g>
</g>
<g>
</g>
<g>
</g>
<g>
</g>
<g>
</g>
<g>
</g>
<g>
</g>
<g>
</g>
<g>
</g>
<g>
</g>
<g>
</g>
<g>
</g>
<g>
</g>
<g>
</g>
</svg>
