<?xml version="1.0" encoding="iso-8859-1"?>
<!-- Generator: Adobe Illustrator 19.0.0, SVG Export Plug-In . SVG Version: 6.00 Build 0)  -->
<svg version="1.1" id="Layer_1" xmlns="http://www.w3.org/2000/svg" xmlns:xlink="http://www.w3.org/1999/xlink" x="0px" y="0px"
	 viewBox="0 0 512.003 512.003" style="enable-background:new 0 0 512.003 512.003;" xml:space="preserve">
<circle style="fill:#CCE7A0;" cx="256.001" cy="256.001" r="256.001"/>
<path style="fill:#AED893;" d="M310.859,474.208c-141.385,0-256-114.615-256-256c0-75.537,32.722-143.422,84.757-190.281
	C56.738,70.303,0,156.525,0,256c0,141.385,114.615,256,256,256c65.849,0,125.883-24.87,171.243-65.718
	C392.325,464.135,352.77,474.208,310.859,474.208z"/>
<circle style="fill:#7F184C;" cx="318.238" cy="365.603" r="55.019"/>
<g>
	<path style="fill:#639657;" d="M192.819,239.038c-2.665,0-5.331-1.016-7.364-3.049c-4.067-4.069-4.067-10.662,0-14.729l54.33-54.33
		c4.07-4.067,10.663-4.064,14.729,0c4.067,4.069,4.067,10.662,0,14.729l-54.332,54.33
		C198.15,238.022,195.484,239.038,192.819,239.038z"/>
	<path style="fill:#639657;" d="M247.15,239.038c-2.665,0-5.331-1.016-7.365-3.049l-54.33-54.33c-4.067-4.069-4.067-10.662,0-14.729
		c4.067-4.066,10.662-4.066,14.727,0l54.332,54.33c4.067,4.069,4.067,10.662,0,14.729
		C252.481,238.022,249.815,239.038,247.15,239.038z"/>
	<path style="fill:#639657;" d="M389.999,239.038c-2.666,0-5.331-1.016-7.365-3.049c-4.067-4.069-4.067-10.662,0-14.729
		l54.332-54.33c4.07-4.067,10.663-4.064,14.729,0c4.067,4.069,4.067,10.662,0,14.729l-54.332,54.33
		C395.33,238.022,392.664,239.038,389.999,239.038z"/>
	<path style="fill:#639657;" d="M444.331,239.038c-2.665,0-5.331-1.016-7.365-3.049l-54.332-54.33
		c-4.067-4.069-4.067-10.662,0-14.729c4.069-4.066,10.662-4.066,14.729,0l54.332,54.33c4.067,4.069,4.067,10.662,0,14.729
		C449.662,238.022,446.996,239.038,444.331,239.038z"/>
</g>
<ellipse transform="matrix(0.2723 -0.9622 0.9622 0.2723 144.2425 343.362)" style="fill:#E6F9BD;" cx="299.13" cy="76.317" rx="29.854" ry="53.46"/>
<g>
</g>
<g>
</g>
<g>
</g>
<g>
</g>
<g>
</g>
<g>
</g>
<g>
</g>
<g>
</g>
<g>
</g>
<g>
</g>
<g>
</g>
<g>
</g>
<g>
</g>
<g>
</g>
<g>
</g>
</svg>
